<svg viewBox="0 0 494.546 305.454" fill="none" stroke-linecap="square" stroke-miterlimit="10" xmlns="http://www.w3.org/2000/svg"><clipPath id="a"><path d="M0 0h494.546v305.454H0V0z"/></clipPath><g clip-path="url(#a)"><path d="M0 0h494.546v305.454H0z"/><path d="M7.88 151.8c0-55.228 46.012-100 102.77-100 27.258 0 53.398 10.536 72.671 29.29 19.274 18.753 30.102 44.189 30.102 70.71 0 55.229-46.013 100-102.772 100-56.76 0-102.772-44.771-102.772-100z"/><path stroke="#595959" stroke-width="2" stroke-linejoin="round" stroke-linecap="butt" d="M7.88 151.8h0c0-55.228 46.012-100 102.77-100h0c27.258 0 53.398 10.536 72.671 29.29 19.274 18.753 30.102 44.189 30.102 70.71h0c0 55.229-46.013 100-102.772 100h0c-56.76 0-102.772-44.771-102.772-100z"/><path d="M141.656 151.8c0-55.228 46.013-100 102.772-100 27.257 0 53.397 10.536 72.67 29.29 19.274 18.753 30.101 44.189 30.101 70.71 0 55.229-46.012 100-102.771 100-56.76 0-102.772-44.771-102.772-100z"/><path stroke="#595959" stroke-width="2" stroke-linejoin="round" stroke-linecap="butt" d="M141.656 151.8h0c0-55.228 46.013-100 102.772-100h0c27.257 0 53.397 10.536 72.67 29.29 19.274 18.753 30.101 44.189 30.101 70.71h0c0 55.229-46.012 100-102.771 100h0c-56.76 0-102.772-44.771-102.772-100z"/><path d="M245.433 118.693c0-15.22 12.896-27.56 28.803-27.56 7.64 0 14.965 2.904 20.367 8.073 5.402 5.168 8.436 12.178 8.436 19.487 0 15.22-12.895 27.559-28.803 27.559-15.907 0-28.803-12.339-28.803-27.56z"/><path stroke="#595959" stroke-width="2" stroke-linejoin="round" stroke-linecap="butt" d="M245.433 118.693h0c0-15.22 12.896-27.56 28.803-27.56h0c7.64 0 14.965 2.904 20.367 8.073 5.402 5.168 8.436 12.178 8.436 19.487h0c0 15.22-12.895 27.559-28.803 27.559h0c-15.907 0-28.803-12.339-28.803-27.56z"/><path fill="#0097a7" d="M271.465 129.024c0-2.149 1.24-3.89 2.771-3.89.735 0 1.44.41 1.96 1.14.52.729.812 1.718.812 2.75 0 2.148-1.241 3.89-2.772 3.89-1.53 0-2.771-1.742-2.771-3.89z" fill-rule="evenodd"/><path stroke="#595959" stroke-linejoin="round" stroke-linecap="butt" d="M271.465 129.024h0c0-2.149 1.24-3.89 2.771-3.89h0c.735 0 1.44.41 1.96 1.14.52.729.812 1.718.812 2.75h0c0 2.148-1.241 3.89-2.772 3.89h0c-1.53 0-2.771-1.742-2.771-3.89z"/><path fill="#0097a7" d="M271.465 118.693c0-2.148 1.24-3.89 2.771-3.89.735 0 1.44.41 1.96 1.14.52.729.812 1.718.812 2.75 0 2.148-1.241 3.89-2.772 3.89-1.53 0-2.771-1.742-2.771-3.89z" fill-rule="evenodd"/><path stroke="#595959" stroke-linejoin="round" stroke-linecap="butt" d="M271.465 118.693h0c0-2.148 1.24-3.89 2.771-3.89h0c.735 0 1.44.41 1.96 1.14.52.729.812 1.718.812 2.75h0c0 2.148-1.241 3.89-2.772 3.89h0c-1.53 0-2.771-1.742-2.771-3.89z"/><path fill="#0097a7" d="M249.88 192.134c0-2.148 1.24-3.89 2.77-3.89.736 0 1.441.41 1.96 1.14.52.729.813 1.718.813 2.75 0 2.148-1.241 3.89-2.772 3.89-1.53 0-2.772-1.742-2.772-3.89z" fill-rule="evenodd"/><path stroke="#595959" stroke-linejoin="round" stroke-linecap="butt" d="M249.88 192.134h0c0-2.148 1.24-3.89 2.77-3.89h0c.736 0 1.441.41 1.96 1.14.52.729.813 1.718.813 2.75h0c0 2.148-1.241 3.89-2.772 3.89h0c-1.53 0-2.772-1.742-2.772-3.89z"/><path fill="#0097a7" d="M282.85 121.244c0-2.148 1.241-3.89 2.772-3.89.735 0 1.44.41 1.96 1.14s.812 1.718.812 2.75c0 2.148-1.241 3.89-2.772 3.89-1.53 0-2.772-1.742-2.772-3.89z" fill-rule="evenodd"/><path stroke="#595959" stroke-linejoin="round" stroke-linecap="butt" d="M282.85 121.244h0c0-2.148 1.241-3.89 2.772-3.89h0c.735 0 1.44.41 1.96 1.14s.812 1.718.812 2.75h0c0 2.148-1.241 3.89-2.772 3.89h0c-1.53 0-2.772-1.742-2.772-3.89z"/><path fill="#0097a7" d="M260.079 207.693c0-2.148 1.24-3.89 2.771-3.89.735 0 1.44.41 1.96 1.14.52.729.812 1.718.812 2.75 0 2.148-1.24 3.89-2.772 3.89-1.53 0-2.771-1.742-2.771-3.89z" fill-rule="evenodd"/><path stroke="#595959" stroke-linejoin="round" stroke-linecap="butt" d="M260.079 207.693h0c0-2.148 1.24-3.89 2.771-3.89h0c.735 0 1.44.41 1.96 1.14.52.729.812 1.718.812 2.75h0c0 2.148-1.24 3.89-2.772 3.89h0c-1.53 0-2.771-1.742-2.771-3.89z"/><path fill="#0097a7" d="M271.465 199.913c0-2.148 1.24-3.89 2.771-3.89.735 0 1.44.41 1.96 1.14s.812 1.719.812 2.75c0 2.149-1.241 3.89-2.772 3.89-1.53 0-2.771-1.741-2.771-3.89z" fill-rule="evenodd"/><path stroke="#595959" stroke-linejoin="round" stroke-linecap="butt" d="M271.465 199.913h0c0-2.148 1.24-3.89 2.771-3.89h0c.735 0 1.44.41 1.96 1.14s.812 1.719.812 2.75h0c0 2.149-1.241 3.89-2.772 3.89h0c-1.53 0-2.771-1.741-2.771-3.89z"/><path fill="#0097a7" d="M277.008 207.693c0-2.148 1.24-3.89 2.772-3.89.735 0 1.44.41 1.96 1.14.52.729.811 1.718.811 2.75 0 2.148-1.24 3.89-2.771 3.89s-2.772-1.742-2.772-3.89z" fill-rule="evenodd"/><path stroke="#595959" stroke-linejoin="round" stroke-linecap="butt" d="M277.008 207.693h0c0-2.148 1.24-3.89 2.772-3.89h0c.735 0 1.44.41 1.96 1.14.52.729.811 1.718.811 2.75h0c0 2.148-1.24 3.89-2.771 3.89h0c-1.531 0-2.772-1.742-2.772-3.89z"/><path fill="#0097a7" d="M187.018 115.693c0-2.148 1.241-3.89 2.772-3.89.735 0 1.44.41 1.96 1.14.52.729.812 1.718.812 2.75 0 2.148-1.241 3.89-2.772 3.89-1.53 0-2.772-1.742-2.772-3.89z" fill-rule="evenodd"/><path stroke="#595959" stroke-linejoin="round" stroke-linecap="butt" d="M187.018 115.693h0c0-2.148 1.241-3.89 2.772-3.89h0c.735 0 1.44.41 1.96 1.14.52.729.812 1.718.812 2.75h0c0 2.148-1.241 3.89-2.772 3.89h0c-1.53 0-2.772-1.742-2.772-3.89z"/><path fill="#0097a7" d="M175.465 107.913c0-2.148 1.24-3.89 2.771-3.89.735 0 1.44.41 1.96 1.14s.812 1.719.812 2.75c0 2.149-1.241 3.89-2.772 3.89-1.53 0-2.771-1.741-2.771-3.89z" fill-rule="evenodd"/><path stroke="#595959" stroke-linejoin="round" stroke-linecap="butt" d="M175.465 107.913h0c0-2.148 1.24-3.89 2.771-3.89h0c.735 0 1.44.41 1.96 1.14s.812 1.719.812 2.75h0c0 2.149-1.241 3.89-2.772 3.89h0c-1.53 0-2.771-1.741-2.771-3.89z"/><path fill="#0097a7" d="M175.465 187.47c0-2.148 1.24-3.89 2.771-3.89.735 0 1.44.41 1.96 1.14.52.729.812 1.718.812 2.75 0 2.148-1.241 3.89-2.772 3.89-1.53 0-2.771-1.742-2.771-3.89z" fill-rule="evenodd"/><path stroke="#595959" stroke-linejoin="round" stroke-linecap="butt" d="M175.465 187.47h0c0-2.148 1.24-3.89 2.771-3.89h0c.735 0 1.44.41 1.96 1.14.52.729.812 1.718.812 2.75h0c0 2.148-1.241 3.89-2.772 3.89h0c-1.53 0-2.771-1.742-2.771-3.89z"/><path fill="#0097a7" d="M187.018 173.06c0-2.148 1.241-3.89 2.772-3.89.735 0 1.44.41 1.96 1.14s.812 1.719.812 2.75c0 2.149-1.241 3.89-2.772 3.89-1.53 0-2.772-1.741-2.772-3.89z" fill-rule="evenodd"/><path stroke="#595959" stroke-linejoin="round" stroke-linecap="butt" d="M187.018 173.06h0c0-2.148 1.241-3.89 2.772-3.89h0c.735 0 1.44.41 1.96 1.14s.812 1.719.812 2.75h0c0 2.149-1.241 3.89-2.772 3.89h0c-1.53 0-2.772-1.741-2.772-3.89z"/><path d="M261.433 122.803c0-8.654 7.164-15.67 16-15.67 4.244 0 8.313 1.652 11.314 4.59 3 2.939 4.686 6.924 4.686 11.08 0 8.654-7.163 15.67-16 15.67-8.836 0-16-7.016-16-15.67z"/><path stroke="#595959" stroke-linejoin="round" stroke-linecap="butt" d="M261.433 122.803h0c0-8.654 7.164-15.67 16-15.67h0c4.244 0 8.313 1.652 11.314 4.59 3 2.939 4.686 6.924 4.686 11.08h0c0 8.654-7.163 15.67-16 15.67h0c-8.836 0-16-7.016-16-15.67z"/><path d="M52.344 180.354c0-8.654 7.163-15.669 16-15.669 4.243 0 8.313 1.65 11.314 4.59 3 2.938 4.686 6.924 4.686 11.08 0 8.653-7.164 15.669-16 15.669-8.837 0-16-7.016-16-15.67z"/><path stroke="#595959" stroke-linejoin="round" stroke-linecap="butt" stroke-dasharray="4.0,3.0" d="M52.344 180.354h0c0-8.654 7.163-15.669 16-15.669h0c4.243 0 8.313 1.65 11.314 4.59 3 2.938 4.686 6.924 4.686 11.08h0c0 8.653-7.164 15.669-16 15.669h0c-8.837 0-16-7.016-16-15.67z"/><path fill="#b7b7b7" d="M72.18 180.354c0-2.148 1.24-3.89 2.771-3.89.736 0 1.44.41 1.96 1.14s.812 1.719.812 2.75c0 2.149-1.24 3.89-2.772 3.89-1.53 0-2.771-1.741-2.771-3.89z" fill-rule="evenodd"/><path stroke="#595959" stroke-linejoin="round" stroke-linecap="butt" d="M72.18 180.354h0c0-2.148 1.24-3.89 2.771-3.89h0c.736 0 1.44.41 1.96 1.14s.812 1.719.812 2.75h0c0 2.149-1.24 3.89-2.772 3.89h0c-1.53 0-2.771-1.741-2.771-3.89z"/><path fill="#b7b7b7" d="M65.572 187.47c0-2.148 1.241-3.89 2.772-3.89.735 0 1.44.41 1.96 1.14.52.729.811 1.718.811 2.75 0 2.148-1.24 3.89-2.771 3.89-1.53 0-2.772-1.742-2.772-3.89z" fill-rule="evenodd"/><path stroke="#595959" stroke-linejoin="round" stroke-linecap="butt" d="M65.572 187.47h0c0-2.148 1.241-3.89 2.772-3.89h0c.735 0 1.44.41 1.96 1.14.52.729.811 1.718.811 2.75h0c0 2.148-1.24 3.89-2.771 3.89h0c-1.53 0-2.772-1.742-2.772-3.89z"/><path fill="#b7b7b7" d="M60.029 180.354c0-2.148 1.24-3.89 2.772-3.89.735 0 1.44.41 1.96 1.14s.811 1.719.811 2.75c0 2.149-1.24 3.89-2.771 3.89s-2.772-1.741-2.772-3.89z" fill-rule="evenodd"/><path stroke="#595959" stroke-linejoin="round" stroke-linecap="butt" d="M60.029 180.354h0c0-2.148 1.24-3.89 2.772-3.89h0c.735 0 1.44.41 1.96 1.14s.811 1.719.811 2.75h0c0 2.149-1.24 3.89-2.771 3.89h0c-1.531 0-2.772-1.741-2.772-3.89z"/><path d="M261.433 122.803c-44.272 0-66.406 14.386-88.544 28.772-22.138 14.386-44.28 28.771-88.558 28.771"/><path stroke="#0097a7" stroke-width="2" stroke-linejoin="round" stroke-linecap="butt" d="M261.433 122.803c-44.272 0-66.406 14.386-88.544 28.772-22.138 14.386-44.28 28.771-88.558 28.771"/><path d="M52.344 10.023h142.708V41.36H52.344z"/><path fill="#999" d="M68.438 28.85H66.03v8.093h-2.78v-8.094h-1.532v-1.344l1.531-.75v-.75q0-1.734.844-2.53.86-.813 2.75-.813 1.437 0 2.562.437l-.718 2.031q-.829-.25-1.547-.25-.594 0-.86.344-.25.344-.25.89v.641h2.407v2.094zm3.802 2.984q0 1.515.5 2.296.5.766 1.609.766 1.11 0 1.594-.766.5-.78.5-2.296 0-1.516-.5-2.266-.485-.766-1.61-.766-1.11 0-1.61.766-.483.75-.483 2.266zm7.046 0q0 2.484-1.312 3.89-1.313 1.406-3.656 1.406-1.47 0-2.594-.64-1.11-.656-1.719-1.844-.594-1.203-.594-2.812 0-2.5 1.297-3.875 1.297-1.391 3.657-1.391 1.468 0 2.593.64 1.125.641 1.719 1.829.61 1.187.61 2.797zm7.973-5.266q.563 0 .938.078l-.203 2.61q-.344-.094-.829-.094-1.328 0-2.078.687-.734.688-.734 1.906v5.188h-2.781V26.755h2.109l.406 1.72h.14q.47-.86 1.267-1.376.812-.531 1.765-.531zm6.925 10.562q-4.75 0-4.75-5.218 0-2.61 1.281-3.97 1.297-1.374 3.72-1.374 1.765 0 3.171.687l-.828 2.157q-.656-.266-1.219-.438-.562-.172-1.125-.172-2.172 0-2.172 3.078 0 3 2.172 3 .797 0 1.469-.218.687-.22 1.375-.672v2.375q-.672.437-1.36.594-.687.171-1.734.171zm9.67-8.593q-.874 0-1.374.562-.5.563-.579 1.594h3.891q-.016-1.031-.531-1.594-.516-.562-1.406-.562zm.391 8.593q-2.453 0-3.844-1.359-1.375-1.36-1.375-3.844 0-2.562 1.266-3.953 1.281-1.406 3.547-1.406 2.156 0 3.36 1.234 1.202 1.219 1.202 3.39v1.345h-6.562q.047 1.187.703 1.859.656.656 1.828.656.922 0 1.735-.187.828-.188 1.718-.61v2.157q-.718.359-1.547.53-.828.188-2.03.188zm15.478-8.593q-.875 0-1.375.562-.5.563-.578 1.594h3.89q-.015-1.031-.53-1.594-.516-.562-1.407-.562zm.39 8.593q-2.452 0-3.843-1.359-1.375-1.36-1.375-3.844 0-2.562 1.266-3.953 1.281-1.406 3.547-1.406 2.156 0 3.359 1.234 1.203 1.219 1.203 3.39v1.345h-6.562q.047 1.187.703 1.859.656.656 1.828.656.922 0 1.734-.187.828-.188 1.719-.61v2.157q-.719.359-1.547.53-.828.188-2.031.188zm8.508-5.39l-3.281-4.985h3.156l1.968 3.25 2-3.25h3.157l-3.328 4.985 3.468 5.203h-3.156l-2.14-3.484-2.141 3.484h-3.156l3.453-5.203zm14.285 5.39q-1.796 0-2.812-1.312h-.14q.14 1.281.14 1.484v4.125h-2.781V26.755h2.265l.39 1.329h.126q.969-1.516 2.89-1.516 1.797 0 2.813 1.39 1.031 1.391 1.031 3.876 0 1.625-.484 2.828-.469 1.203-1.36 1.843-.874.625-2.078.625zm-.812-8.343q-1.031 0-1.516.64-.468.625-.484 2.094v.297q0 1.64.484 2.36.485.702 1.547.702 1.875 0 1.875-3.078 0-1.515-.469-2.265-.453-.75-1.437-.75zm6.634 6.859q0-.766.406-1.156.422-.39 1.203-.39.75 0 1.157.405.421.391.421 1.141 0 .719-.421 1.14-.407.407-1.157.407-.765 0-1.187-.406-.422-.407-.422-1.141z"/><path d="M191.496 10.023h142.709V41.36H191.496z"/><path fill="#999" d="M209.059 33.912q0 1.578-1.094 2.406-1.078.812-3.25.812-1.11 0-1.89-.156-.782-.156-1.47-.437V34.24q.766.36 1.735.61.984.25 1.719.25 1.515 0 1.515-.876 0-.328-.203-.531-.203-.219-.703-.469-.484-.265-1.313-.61-1.171-.484-1.718-.905-.547-.422-.797-.954-.25-.546-.25-1.343 0-1.36 1.047-2.094 1.047-.75 2.984-.75 1.844 0 3.578.797l-.844 2.015q-.765-.328-1.437-.53-.656-.22-1.344-.22-1.234 0-1.234.657 0 .375.39.656.407.266 1.75.812 1.188.47 1.735.891.562.422.828.969.266.547.266 1.297zm4.382-2.078q0 1.515.5 2.296.5.766 1.61.766t1.594-.766q.5-.78.5-2.296 0-1.516-.5-2.266-.485-.766-1.61-.766-1.11 0-1.61.766-.484.75-.484 2.266zm7.047 0q0 2.484-1.312 3.89-1.313 1.406-3.656 1.406-1.47 0-2.594-.64-1.11-.656-1.719-1.844-.594-1.203-.594-2.812 0-2.5 1.297-3.875 1.297-1.391 3.656-1.391 1.47 0 2.594.64 1.125.641 1.719 1.829.61 1.187.61 2.797zm9.504 5.109l-.375-1.297h-.14q-.454.703-1.282 1.094-.812.39-1.859.39-1.797 0-2.703-.953-.906-.968-.906-2.781v-6.64h2.78v5.953q0 1.093.391 1.656.391.547 1.25.547 1.157 0 1.672-.782.532-.78.532-2.578v-4.797h2.765v10.188h-2.125zm10.73-10.375q.563 0 .938.078l-.203 2.61q-.344-.094-.828-.094-1.328 0-2.078.687-.735.688-.735 1.906v5.188h-2.781V26.755h2.11l.406 1.72h.14q.469-.86 1.266-1.376.812-.531 1.765-.531zm6.925 10.562q-4.75 0-4.75-5.218 0-2.61 1.282-3.97 1.296-1.374 3.718-1.374 1.766 0 3.172.687l-.828 2.157q-.656-.266-1.219-.438-.562-.172-1.125-.172-2.172 0-2.172 3.078 0 3 2.172 3 .797 0 1.47-.218.687-.22 1.374-.672v2.375q-.672.437-1.36.594-.687.171-1.734.171zm9.67-8.593q-.874 0-1.374.562-.5.563-.578 1.594h3.89q-.015-1.031-.531-1.594-.516-.562-1.406-.562zm.391 8.593q-2.453 0-3.843-1.359-1.375-1.36-1.375-3.844 0-2.562 1.265-3.953 1.282-1.406 3.547-1.406 2.156 0 3.36 1.234 1.203 1.219 1.203 3.39v1.345h-6.563q.047 1.187.703 1.859.656.656 1.828.656.922 0 1.735-.187.828-.188 1.718-.61v2.157q-.718.359-1.546.53-.829.188-2.032.188zm15.478-8.593q-.875 0-1.375.562-.5.563-.578 1.594h3.891q-.016-1.031-.531-1.594-.516-.562-1.407-.562zm.391 8.593q-2.453 0-3.844-1.359-1.375-1.36-1.375-3.844 0-2.562 1.266-3.953 1.281-1.406 3.547-1.406 2.156 0 3.36 1.234 1.202 1.219 1.202 3.39v1.345h-6.562q.047 1.187.703 1.859.656.656 1.828.656.922 0 1.734-.187.829-.188 1.72-.61v2.157q-.72.359-1.548.53-.828.188-2.03.188zm8.507-5.39l-3.281-4.985h3.156l1.969 3.25 2-3.25h3.156l-3.328 4.985 3.469 5.203h-3.157l-2.14-3.484-2.14 3.484h-3.157l3.453-5.203zm14.286 5.39q-1.797 0-2.813-1.312h-.14q.14 1.281.14 1.484v4.125h-2.781V26.755h2.266l.39 1.329h.125q.969-1.516 2.89-1.516 1.798 0 2.813 1.39 1.032 1.391 1.032 3.876 0 1.625-.485 2.828-.469 1.203-1.36 1.843-.874.625-2.077.625zm-.813-8.343q-1.031 0-1.515.64-.47.625-.485 2.094v.297q0 1.64.485 2.36.484.702 1.546.702 1.875 0 1.875-3.078 0-1.515-.468-2.265-.453-.75-1.438-.75zm6.634 6.859q0-.766.406-1.156.422-.39 1.204-.39.75 0 1.156.405.422.391.422 1.141 0 .719-.422 1.14-.406.407-1.156.407-.766 0-1.188-.406-.422-.407-.422-1.141z"/><path d="M212.268 65.579h101.165v44.44H212.268z"/><path fill="#999" d="M225.674 80.113q.469 0 .844.078l-.14 1q-.454-.094-.782-.094-.875 0-1.5.704-.61.703-.61 1.75v3.828h-1.078v-7.125h.891l.125 1.312h.062q.391-.703.954-1.078.562-.375 1.234-.375zm5.19 7.39q-1.578 0-2.5-.952-.906-.97-.906-2.672 0-1.735.844-2.75.86-1.016 2.281-1.016 1.344 0 2.125.89.782.876.782 2.329v.672h-4.907q.032 1.265.625 1.922.61.64 1.703.64 1.141 0 2.266-.484v.969q-.562.25-1.078.343-.516.11-1.234.11zm-.296-6.484q-.86 0-1.375.563-.5.562-.594 1.547h3.734q0-1.016-.453-1.563-.453-.547-1.312-.547zm8.087-.89q1.406 0 2.171.968.782.954.782 2.704 0 1.765-.782 2.734-.78.969-2.171.969-.704 0-1.282-.25-.578-.266-.968-.797h-.079l-.218.922h-.782V77.254h1.079v2.453q0 .828-.047 1.484h.047q.765-1.062 2.25-1.062zm-.157.906q-1.109 0-1.609.64-.484.626-.484 2.126 0 1.515.5 2.156.515.64 1.609.64 1 0 1.484-.718.5-.719.5-2.078 0-1.407-.5-2.079-.484-.687-1.5-.687zm9.386 6.344l-.218-1.016h-.047q-.531.672-1.063.906-.53.235-1.328.235-1.062 0-1.672-.547-.593-.547-.593-1.547 0-2.156 3.453-2.266l1.218-.047v-.437q0-.844-.359-1.234-.36-.407-1.156-.407-.89 0-2.016.547l-.344-.828q.532-.281 1.157-.437.64-.172 1.265-.172 1.282 0 1.891.562.61.563.61 1.813v4.875h-.798zm-2.437-.766q1 0 1.578-.547.578-.562.578-1.547v-.64l-1.078.031q-1.281.047-1.86.406-.562.36-.562 1.11 0 .578.344.89.36.297 1 .297zm6.537.766h-1.078V77.254h1.078v10.125zm6.684 0l-.219-1.016h-.047q-.53.672-1.062.906-.531.235-1.328.235-1.063 0-1.672-.547-.594-.547-.594-1.547 0-2.156 3.453-2.266l1.22-.047v-.437q0-.844-.36-1.234-.36-.407-1.157-.407-.89 0-2.015.547l-.344-.828q.531-.281 1.156-.437.64-.172 1.266-.172 1.281 0 1.89.562.61.563.61 1.813v4.875h-.797zm-2.437-.766q1 0 1.578-.547.578-.562.578-1.547v-.64l-1.078.031q-1.282.047-1.86.406-.562.36-.562 1.11 0 .578.344.89.359.297 1 .297zm10.35.766v-4.61q0-.875-.407-1.297-.39-.437-1.234-.437-1.125 0-1.656.61-.516.593-.516 2v3.734h-1.078v-7.125h.89l.172.968h.047q.328-.53.922-.812.61-.297 1.344-.297 1.297 0 1.937.625.657.625.657 1.984v4.657h-1.078zm6.149.125q-1.547 0-2.407-.953-.843-.954-.843-2.688 0-1.797.86-2.766.858-.984 2.452-.984.516 0 1.031.11.516.109.813.265l-.328.922q-.36-.156-.797-.25-.422-.094-.734-.094-2.172 0-2.172 2.781 0 1.313.515 2.016.532.703 1.578.703.891 0 1.829-.39v.968q-.72.36-1.797.36zm6.501 0q-1.578 0-2.5-.953-.906-.97-.906-2.672 0-1.735.844-2.75.859-1.016 2.28-1.016 1.345 0 2.126.89.781.876.781 2.329v.672h-4.906q.031 1.265.625 1.922.61.64 1.703.64 1.14 0 2.266-.484v.969q-.563.25-1.079.343-.515.11-1.234.11zm-.297-6.485q-.86 0-1.375.563-.5.562-.594 1.547h3.735q0-1.016-.453-1.563-.453-.547-1.313-.547zm9.618 5.407h-.062q-.75 1.078-2.234 1.078-1.407 0-2.188-.953-.766-.954-.766-2.72 0-1.765.782-2.734.78-.984 2.172-.984 1.453 0 2.218 1.063h.094l-.047-.516-.031-.5v-2.906h1.078v10.125h-.875l-.14-.953zm-2.156.171q1.11 0 1.594-.593.5-.61.5-1.938v-.234q0-1.516-.5-2.156-.5-.657-1.61-.657-.953 0-1.453.75-.5.735-.5 2.078 0 1.36.5 2.063.5.687 1.47.687zm-60.722 9.516q.469 0 .844.078l-.14 1q-.454-.094-.782-.094-.875 0-1.5.704-.61.703-.61 1.75v3.828h-1.078v-7.125h.891l.125 1.312h.062q.391-.703.954-1.078.562-.375 1.234-.375zm6.784 5.313q0 1-.75 1.546-.734.532-2.078.532-1.422 0-2.219-.438v-1.015q.516.265 1.11.421.594.141 1.14.141.844 0 1.297-.266.453-.265.453-.828 0-.406-.359-.703-.36-.297-1.406-.703-1-.375-1.422-.64-.422-.282-.625-.626-.203-.359-.203-.843 0-.875.703-1.375.719-.516 1.953-.516 1.156 0 2.25.469l-.375.875q-1.078-.438-1.953-.438-.766 0-1.156.25-.39.235-.39.657 0 .28.14.484.156.203.468.39.329.172 1.25.532 1.282.453 1.72.922.452.468.452 1.172zm4.765 2.078q-1.578 0-2.5-.953-.906-.97-.906-2.672 0-1.735.843-2.75.86-1.016 2.282-1.016 1.343 0 2.125.89.78.876.78 2.329v.672h-4.905q.03 1.265.625 1.922.609.64 1.703.64 1.14 0 2.265-.484v.969q-.562.25-1.078.343-.515.11-1.234.11zm-.297-6.485q-.86 0-1.375.563-.5.562-.594 1.547h3.735q0-1.016-.454-1.563-.453-.547-1.312-.547z"/><path d="M15.46 117.845h117.322v49.764H15.46z"/><path fill="#999" d="M34.694 139.645v-4.64q0-.86-.36-1.282-.36-.422-1.14-.422-1 0-1.485.579-.484.578-.484 1.78v3.985h-1.078v-4.64q0-.86-.375-1.282-.36-.422-1.125-.422-1.016 0-1.5.61-.469.61-.469 2v3.734H25.6v-7.125h.89l.172.969h.047q.313-.516.86-.813.562-.296 1.25-.296 1.672 0 2.187 1.218h.047q.328-.562.922-.89.61-.328 1.39-.328 1.204 0 1.797.625.61.625.61 1.984v4.656h-1.078zm9.46-3.578q0 1.75-.875 2.734-.875.97-2.422.97-.953 0-1.703-.438-.735-.453-1.14-1.297-.407-.844-.407-1.969 0-1.734.875-2.703.875-.984 2.422-.984 1.484 0 2.36 1 .89 1 .89 2.687zm-5.422 0q0 1.375.547 2.094.547.703 1.593.703 1.063 0 1.61-.703.562-.719.562-2.094 0-1.36-.562-2.062-.547-.704-1.61-.704-1.062 0-1.609.704-.531.687-.531 2.062zm8.878 3.578l-2.703-7.125h1.156l1.532 4.219q.53 1.484.625 1.937h.046q.063-.359.438-1.437.39-1.078 1.719-4.719h1.156l-2.703 7.125H47.61zm8.13.125q-1.578 0-2.5-.953-.906-.969-.906-2.672 0-1.734.844-2.75.86-1.015 2.281-1.015 1.344 0 2.125.89.781.875.781 2.328v.672H53.46q.031 1.266.625 1.922.61.64 1.703.64 1.14 0 2.266-.484v.969q-.563.25-1.078.344-.516.11-1.235.11zm-.296-6.484q-.86 0-1.375.562-.5.563-.594 1.547h3.734q0-1.015-.453-1.562-.453-.547-1.312-.547zm9.618 5.406h-.063q-.75 1.078-2.234 1.078-1.406 0-2.188-.953-.765-.953-.765-2.719 0-1.765.781-2.734.781-.984 2.172-.984 1.453 0 2.219 1.062h.093l-.047-.516-.03-.5v-2.906h1.077v10.125h-.875l-.14-.953zm-2.157.172q1.11 0 1.594-.594.5-.61.5-1.937v-.235q0-1.515-.5-2.156-.5-.656-1.61-.656-.952 0-1.452.75-.5.734-.5 2.078 0 1.36.5 2.062.5.688 1.468.688zm12.255.906q-.703 0-1.281-.25-.578-.265-.969-.797h-.078q.078.625.078 1.188v2.937h-1.078V132.52h.89l.141.969h.047q.422-.578.969-.844.562-.265 1.281-.265 1.422 0 2.188.968.765.969.765 2.719 0 1.766-.781 2.734-.781.97-2.172.97zm-.156-6.469q-1.094 0-1.594.61-.484.594-.5 1.922v.234q0 1.516.5 2.156.516.64 1.61.64.937 0 1.453-.733.53-.75.53-2.063 0-1.344-.53-2.047-.516-.719-1.47-.719zm9.386 6.344l-.219-1.015h-.047q-.531.671-1.062.906-.531.234-1.328.234-1.063 0-1.672-.547-.594-.547-.594-1.547 0-2.156 3.453-2.265l1.219-.047v-.438q0-.843-.36-1.234-.359-.406-1.156-.406-.89 0-2.015.547l-.344-.828q.531-.282 1.156-.438.64-.172 1.266-.172 1.281 0 1.89.563.61.562.61 1.812v4.875h-.797zm-2.438-.765q1 0 1.579-.547.578-.563.578-1.547v-.64l-1.078.03q-1.282.047-1.86.407-.562.359-.562 1.109 0 .578.343.89.36.298 1 .298zm8.725-6.5q.47 0 .844.078l-.14 1q-.454-.094-.782-.094-.875 0-1.5.703-.61.703-.61 1.75v3.828h-1.077v-7.125h.89l.125 1.313h.063q.39-.703.953-1.078.563-.375 1.234-.375zm4.488 6.5q.281 0 .547-.032.265-.047.422-.093v.828q-.172.078-.516.125-.344.062-.61.062-2.078 0-2.078-2.172v-4.25h-1.015v-.515l1.015-.453.454-1.516h.625v1.656h2.078v.828h-2.078v4.203q0 .641.312.985.313.344.844.344zm12.011-2.813q0 1.75-.875 2.734-.875.97-2.422.97-.953 0-1.703-.438-.734-.453-1.14-1.297-.407-.844-.407-1.969 0-1.734.875-2.703.875-.984 2.422-.984 1.484 0 2.36 1 .89 1 .89 2.687zm-5.422 0q0 1.375.547 2.094.547.703 1.594.703 1.062 0 1.61-.703.562-.719.562-2.094 0-1.36-.563-2.062-.547-.704-1.61-.704-1.062 0-1.609.704-.53.687-.53 2.062zm10.535-2.719h-1.813v6.297h-1.078v-6.297h-1.281v-.484l1.281-.39v-.391q0-2.641 2.297-2.641.562 0 1.328.234l-.281.86q-.625-.203-1.078-.203-.61 0-.907.406-.28.406-.28 1.312v.47h1.812v.827zm9.15 6.297l-.218-1.015h-.047q-.532.671-1.063.906-.531.234-1.328.234-1.062 0-1.672-.547-.594-.547-.594-1.547 0-2.156 3.454-2.265l1.218-.047v-.438q0-.843-.36-1.234-.358-.406-1.155-.406-.891 0-2.016.547l-.344-.828q.532-.282 1.157-.438.64-.172 1.265-.172 1.281 0 1.89.563.61.562.61 1.812v4.875h-.797zm-2.437-.765q1 0 1.578-.547.578-.563.578-1.547v-.64l-1.078.03q-1.281.047-1.86.407-.562.359-.562 1.109 0 .578.344.89.36.298 1 .298zM30.46 154.692h-.063q-.75 1.078-2.235 1.078-1.406 0-2.187-.953-.766-.953-.766-2.719 0-1.765.782-2.734.78-.984 2.171-.984 1.454 0 2.22 1.062h.093l-.047-.516-.031-.5v-2.906h1.078v10.125H30.6l-.14-.953zm-2.157.172q1.11 0 1.594-.594.5-.61.5-1.937v-.235q0-1.515-.5-2.156-.5-.656-1.61-.656-.953 0-1.453.75-.5.734-.5 2.078 0 1.36.5 2.062.5.688 1.47.688zm9.855.781l-.219-1.015h-.047q-.53.671-1.062.906-.531.234-1.328.234-1.063 0-1.672-.547-.594-.547-.594-1.547 0-2.156 3.453-2.265l1.219-.047v-.438q0-.843-.36-1.234-.359-.406-1.156-.406-.89 0-2.015.547l-.344-.828q.531-.282 1.156-.438.64-.172 1.266-.172 1.281 0 1.89.563.61.562.61 1.812v4.875h-.797zm-2.438-.765q1 0 1.579-.547.578-.563.578-1.547v-.64l-1.078.03q-1.282.047-1.86.407-.562.359-.562 1.109 0 .578.343.89.36.298 1 .298zm7.772 0q.282 0 .547-.032.266-.047.422-.093v.828q-.172.078-.516.125-.343.062-.609.062-2.078 0-2.078-2.172v-4.25h-1.016v-.515l1.016-.453.453-1.516h.625v1.656h2.078v.828h-2.078v4.203q0 .641.313.985.312.344.843.344zm6.784.765l-.22-1.015h-.046q-.531.671-1.062.906-.532.234-1.329.234-1.062 0-1.671-.547-.594-.547-.594-1.547 0-2.156 3.453-2.265l1.219-.047v-.438q0-.843-.36-1.234-.36-.406-1.156-.406-.89 0-2.016.547l-.343-.828q.53-.282 1.156-.438.64-.172 1.266-.172 1.28 0 1.89.563.61.562.61 1.812v4.875h-.797zm-2.438-.765q1 0 1.578-.547.578-.563.578-1.547v-.64l-1.078.03q-1.281.047-1.86.407-.562.359-.562 1.109 0 .578.344.89.36.298 1 .298zm10.069-1.188q0 1-.75 1.547-.735.531-2.078.531-1.422 0-2.219-.437v-1.016q.516.266 1.11.422.593.14 1.14.14.844 0 1.297-.265.453-.266.453-.828 0-.406-.36-.703-.359-.297-1.406-.703-1-.375-1.422-.641-.421-.281-.625-.625-.203-.36-.203-.844 0-.875.703-1.375.72-.515 1.954-.515 1.156 0 2.25.468l-.375.875q-1.079-.437-1.954-.437-.765 0-1.156.25-.39.234-.39.656 0 .281.14.484.156.204.469.391.328.172 1.25.531 1.281.453 1.719.922.453.469.453 1.172zm4.764 2.078q-1.578 0-2.5-.953-.906-.969-.906-2.672 0-1.734.844-2.75.86-1.015 2.281-1.015 1.344 0 2.125.89.781.875.781 2.328v.672H60.39q.031 1.266.625 1.922.61.64 1.703.64 1.14 0 2.266-.484v.969q-.563.25-1.078.344-.516.11-1.235.11zm-.297-6.484q-.859 0-1.375.562-.5.563-.593 1.547h3.734q0-1.015-.453-1.562-.453-.547-1.313-.547zm7.072 5.594q.281 0 .547-.032.265-.047.421-.093v.828q-.171.078-.515.125-.344.062-.61.062-2.078 0-2.078-2.172v-4.25h-1.015v-.515l1.015-.453.453-1.516h.625v1.656h2.079v.828h-2.079v4.203q0 .641.313.985.312.344.844.344z"/><path d="M313.433 262.239h186.425v31.338H313.433z"/><path fill="#0097a7" d="M325.058 280.383q0 1.078.344 1.64.36.547 1.156.547.797 0 1.14-.547.36-.547.36-1.64 0-1.079-.36-1.61-.343-.547-1.14-.547-.797 0-1.156.547-.344.531-.344 1.61zm5.031 0q0 1.78-.937 2.78-.938 1-2.61 1-1.046 0-1.859-.452-.797-.453-1.234-1.313-.422-.86-.422-2.015 0-1.782.922-2.766.937-.984 2.625-.984 1.047 0 1.843.453.813.453 1.235 1.312.437.844.437 1.985zm8.346 3.656h-1.984v-4.25q0-.781-.282-1.172-.265-.406-.89-.406-.828 0-1.203.562-.36.547-.36 1.844v3.422h-1.984v-7.281h1.516l.265.937h.11q.328-.531.906-.797.594-.265 1.328-.265 1.266 0 1.922.687.656.672.656 1.969v4.75zm5.057-6q-.625 0-.985.406-.36.39-.406 1.125h2.781q-.015-.734-.39-1.125-.36-.406-1-.406zm.28 6.125q-1.75 0-2.75-.969-.984-.969-.984-2.734 0-1.844.907-2.828.922-1 2.547-1 1.53 0 2.39.875.86.875.86 2.421v.97h-4.688q.031.843.5 1.327.469.47 1.313.47.656 0 1.234-.142.594-.14 1.234-.437v1.531q-.515.266-1.11.39-.593.126-1.452.126zm10.353 0q-1.281 0-2.016-.985-.734-1-.734-2.765 0-1.797.75-2.781.75-1 2.047-1 1.375 0 2.11 1.062h.062q-.156-.812-.156-1.453v-2.328h2v10.125h-1.532l-.375-.938h-.093q-.672 1.063-2.063 1.063zm.703-1.578q.75 0 1.11-.438.359-.453.39-1.5v-.219q0-1.171-.36-1.671-.359-.516-1.171-.516-.672 0-1.047.562-.36.563-.36 1.641 0 1.063.36 1.61.375.53 1.078.53zm5.34-7.703q0-.97 1.079-.97 1.094 0 1.094.97 0 .468-.282.718-.265.25-.812.25-1.078 0-1.078-.968zm2.079 9.156h-1.985v-7.281h1.985v7.28zm7.161-2.156q0 1.109-.781 1.703-.782.578-2.328.578-.797 0-1.36-.11-.562-.093-1.047-.312v-1.64q.563.265 1.25.437.688.172 1.22.172 1.077 0 1.077-.625 0-.235-.14-.375-.141-.14-.5-.328-.344-.188-.938-.438-.828-.344-1.234-.64-.39-.313-.578-.688-.172-.39-.172-.953 0-.985.75-1.5.765-.531 2.14-.531 1.313 0 2.563.562l-.61 1.438q-.546-.235-1.03-.375-.47-.157-.954-.157-.875 0-.875.47 0 .265.281.468.282.187 1.235.578.86.344 1.25.64.39.297.578.688.203.39.203.938zm4.61.703q.515 0 1.25-.219v1.469q-.75.328-1.829.328-1.187 0-1.734-.594-.547-.61-.547-1.812v-3.5h-.937v-.844l1.093-.656.563-1.547h1.265v1.547h2.047v1.5h-2.047v3.5q0 .421.235.625.25.203.64.203zm6.785-5.953q.39 0 .656.046l-.14 1.86q-.25-.063-.594-.063-.938 0-1.469.5-.531.485-.531 1.36v3.703h-1.985v-7.281h1.5l.297 1.234h.094q.344-.625.906-.984.578-.375 1.266-.375zm1.896-1.75q0-.97 1.078-.97 1.094 0 1.094.97 0 .468-.281.718-.266.25-.813.25-1.078 0-1.078-.968zm2.078 9.156h-1.984v-7.281h1.984v7.28zm6.13-7.406q1.281 0 2 1 .734 1 .734 2.75 0 1.812-.75 2.796-.75.985-2.046.985-1.282 0-2-.922h-.141l-.328.797h-1.516v-10.125h1.985v2.36q0 .437-.079 1.437h.079q.687-1.078 2.062-1.078zm-.64 1.578q-.735 0-1.079.453-.328.453-.343 1.5v.219q0 1.156.343 1.671.344.5 1.11.5.609 0 .968-.562.36-.563.36-1.625 0-1.078-.375-1.61-.36-.546-.985-.546zm10.184 5.828l-.282-.938h-.093q-.329.516-.922.797-.578.266-1.328.266-1.282 0-1.938-.688-.64-.687-.64-1.968v-4.75h1.984v4.25q0 .796.281 1.187.281.39.89.39.829 0 1.204-.546.375-.563.375-1.86v-3.421h1.984v7.28h-1.515zm6.665-1.453q.516 0 1.25-.219v1.469q-.75.328-1.828.328-1.187 0-1.734-.594-.547-.61-.547-1.812v-3.5h-.937v-.844l1.093-.656.563-1.547h1.265v1.547h2.047v1.5h-2.047v3.5q0 .421.235.625.25.203.64.203zm5.723-4.547q-.625 0-.984.406-.36.39-.406 1.125h2.781q-.016-.734-.39-1.125-.36-.406-1-.406zm.282 6.125q-1.75 0-2.75-.969-.985-.969-.985-2.734 0-1.844.907-2.828.921-1 2.546-1 1.532 0 2.391.875.86.875.86 2.421v.97h-4.688q.031.843.5 1.327.469.47 1.312.47.657 0 1.235-.142.594-.14 1.234-.437v1.531q-.515.266-1.11.39-.593.126-1.452.126zm6.89 0q-1.281 0-2.016-.985-.734-1-.734-2.765 0-1.797.75-2.781.75-1 2.047-1 1.375 0 2.11 1.062h.062q-.157-.812-.157-1.453v-2.328h2v10.125h-1.53l-.376-.938h-.094q-.672 1.063-2.062 1.063zm.703-1.578q.75 0 1.11-.438.359-.453.39-1.5v-.219q0-1.171-.36-1.671-.359-.516-1.171-.516-.672 0-1.047.562-.36.563-.36 1.641 0 1.063.36 1.61.375.53 1.078.53zm11.193 1.578q-1.281 0-2.015-.985-.735-1-.735-2.765 0-1.797.75-2.781.75-1 2.047-1 1.375 0 2.11 1.062h.062q-.156-.812-.156-1.453v-2.328h2v10.125h-1.531l-.375-.938h-.094q-.672 1.063-2.063 1.063zm.703-1.578q.75 0 1.11-.438.36-.453.39-1.5v-.219q0-1.171-.359-1.671-.36-.516-1.172-.516-.672 0-1.047.562-.36.563-.36 1.641 0 1.063.36 1.61.375.53 1.078.53zm10.044 1.453l-.375-.985h-.063q-.5.625-1.03.875-.532.235-1.376.235-1.047 0-1.656-.594-.594-.594-.594-1.703 0-1.156.813-1.703.812-.563 2.437-.61l1.266-.046v-.313q0-1.11-1.14-1.11-.86 0-2.048.532l-.656-1.344q1.266-.656 2.781-.656 1.47 0 2.25.64.782.626.782 1.938v4.844h-1.391zm-.578-3.375l-.766.031q-.875.031-1.297.313-.422.28-.422.875 0 .828.97.828.687 0 1.093-.39.422-.392.422-1.048v-.61zm7.081 1.922q.516 0 1.25-.219v1.469q-.75.328-1.828.328-1.187 0-1.734-.594-.547-.61-.547-1.812v-3.5h-.938v-.844l1.094-.656.563-1.547h1.265v1.547h2.047v1.5h-2.047v3.5q0 .421.235.625.25.203.64.203zm7.333 1.453l-.375-.985h-.063q-.5.625-1.031.875-.531.235-1.375.235-1.047 0-1.656-.594-.594-.594-.594-1.703 0-1.156.812-1.703.813-.563 2.438-.61l1.266-.046v-.313q0-1.11-1.141-1.11-.86 0-2.047.532l-.656-1.344q1.265-.656 2.781-.656 1.469 0 2.25.64.781.626.781 1.938v4.844h-1.39zm-.578-3.375l-.766.031q-.875.031-1.297.313-.422.28-.422.875 0 .828.969.828.687 0 1.094-.39.422-.392.422-1.048v-.61zm9.097 1.219q0 1.109-.782 1.703-.78.578-2.328.578-.797 0-1.36-.11-.562-.093-1.046-.312v-1.64q.563.265 1.25.437.688.172 1.219.172 1.078 0 1.078-.625 0-.235-.14-.375-.141-.14-.5-.328-.344-.188-.938-.438-.828-.344-1.235-.64-.39-.313-.578-.688-.172-.39-.172-.953 0-.985.75-1.5.766-.531 2.141-.531 1.313 0 2.563.562l-.61 1.438q-.547-.235-1.031-.375-.469-.157-.953-.157-.875 0-.875.47 0 .265.281.468.281.187 1.234.578.86.344 1.25.64.391.297.579.688.203.39.203.938zm4.547-3.844q-.625 0-.985.406-.36.39-.406 1.125h2.781q-.015-.734-.39-1.125-.36-.406-1-.406zm.28 6.125q-1.75 0-2.75-.969-.984-.969-.984-2.734 0-1.844.907-2.828.922-1 2.547-1 1.53 0 2.39.875.86.875.86 2.421v.97h-4.688q.031.843.5 1.327.469.47 1.313.47.656 0 1.234-.142.594-.14 1.234-.437v1.531q-.515.266-1.109.39-.594.126-1.453.126zm7.657-1.578q.515 0 1.25-.219v1.469q-.75.328-1.829.328-1.187 0-1.734-.594-.547-.61-.547-1.812v-3.5h-.937v-.844l1.093-.656.563-1.547h1.266v1.547h2.046v1.5h-2.046v3.5q0 .421.234.625.25.203.64.203z"/><path d="M406.646 262.239l-117.89-128.347"/><path stroke="#595959" stroke-linejoin="round" stroke-linecap="butt" d="M406.646 262.239L292.815 138.31"/><path fill="#595959" stroke="#595959" stroke-linecap="butt" d="M294.031 137.194l-4.286-2.225 1.853 4.46z" fill-rule="evenodd"/><path d="M406.646 262.239L279.78 211.593"/><path stroke="#595959" stroke-linejoin="round" stroke-linecap="butt" d="M406.646 262.239l-121.294-48.421"/><path fill="#595959" stroke="#595959" stroke-linecap="butt" d="M285.964 212.284l-4.827-.149 3.603 3.217z" fill-rule="evenodd"/><path d="M406.646 262.239L187.024 115.688"/><path stroke="#595959" stroke-linejoin="round" stroke-linecap="butt" d="M406.646 262.239L192.015 119.018"/><path fill="#595959" stroke="#595959" stroke-linecap="butt" d="M192.931 117.644l-4.691-1.145 2.858 3.893z" fill-rule="evenodd"/><path d="M406.646 262.239l-226.457-72.032"/><path stroke="#595959" stroke-linejoin="round" stroke-linecap="butt" d="M406.646 262.239l-220.74-70.213"/><path fill="#595959" stroke="#595959" stroke-linecap="butt" d="M186.407 190.452l-4.825.198 3.824 2.95z" fill-rule="evenodd"/><path d="M89.661 167.629h46.678v25.448H89.66z"/><path fill="#0097a7" d="M103.755 182.022q1.281 0 2 1 .735 1 .735 2.75 0 1.813-.75 2.797-.75.985-2.047.985-1.282 0-2-.922h-.141l-.328.797h-1.516v-10.125h1.985v2.359q0 .437-.078 1.437h.078q.687-1.078 2.062-1.078zm-.64 1.578q-.735 0-1.079.454-.328.453-.343 1.5v.218q0 1.157.343 1.672.344.5 1.11.5.61 0 .969-.562.359-.563.359-1.625 0-1.078-.375-1.61-.36-.547-.984-.547zm9.074-1.578q1.282 0 2 1 .735 1 .735 2.75 0 1.813-.75 2.797-.75.985-2.047.985-1.281 0-2-.922h-.14l-.329.797h-1.516v-10.125h1.985v2.359q0 .437-.078 1.437h.078q.687-1.078 2.062-1.078zm-.64 1.578q-.735 0-1.078.454-.329.453-.344 1.5v.218q0 1.157.344 1.672.343.5 1.109.5.61 0 .969-.562.36-.563.36-1.625 0-1.078-.376-1.61-.36-.547-.984-.547zm7.793-3.812q1.375 0 2.203.625.844.625.844 1.672 0 .734-.406 1.312-.406.563-1.313 1 1.079.578 1.532 1.203.468.625.468 1.36 0 1.172-.921 1.89-.907.704-2.407.704-1.562 0-2.453-.657-.89-.672-.89-1.89 0-.813.421-1.438.438-.625 1.407-1.11-.813-.515-1.172-1.093-.36-.594-.36-1.297 0-1.015.844-1.64.844-.641 2.203-.641zm-1.484 7.11q0 .562.39.874.391.313 1.063.313.75 0 1.125-.313.375-.328.375-.859 0-.438-.375-.813-.36-.39-1.187-.812-1.391.64-1.391 1.61zm1.469-5.641q-.516 0-.828.265-.313.266-.313.703 0 .391.25.704.25.312.906.64.64-.297.89-.61.25-.312.25-.734 0-.437-.327-.703-.313-.265-.828-.265z"/></g></svg>