<svg viewBox="0 0 425.454 314.546" fill="none" stroke-linecap="square" stroke-miterlimit="10" xmlns="http://www.w3.org/2000/svg"><clipPath id="a"><path d="M0 0h425.454v314.546H0V0z"/></clipPath><g clip-path="url(#a)"><path d="M0 0h425.454v314.546H0zm43.738 288.165L44.84 19.283"/><path stroke="#595959" stroke-width="3" stroke-linejoin="round" stroke-linecap="butt" d="M43.738 288.165l1.028-250.882"/><path fill="#595959" stroke="#595959" stroke-width="3" stroke-linecap="butt" d="M49.721 37.304l-4.9-13.635-5.01 13.594z" fill-rule="evenodd"/><path d="M12.535 288.165V230.56h42.237v57.606z"/><path fill="#000" d="M31.784 272.79q.328 0 .53.032.204.015.329.046.11.032.156.094.047.063.047.156 0 .079-.031.172-.031.078-.063.203-.03.11-.062.25-.047.125-.047.297 0 .188.078.375.078.188.25.407.156.203.438.421.265.22.671.485h5.063q.094 0 .172.062.062.047.11.188.046.125.062.344.015.218.015.546 0 .344-.015.563-.016.219-.063.36-.047.124-.11.187-.077.047-.171.047h-8.125q-.094 0-.156-.047-.063-.047-.11-.156-.047-.125-.062-.313-.031-.187-.031-.469 0-.297.03-.484.016-.203.063-.297.047-.11.11-.156.062-.047.156-.047h1.016q-.454-.313-.75-.594-.297-.281-.47-.531-.171-.266-.234-.516-.078-.265-.078-.515 0-.125.016-.25.016-.14.047-.282.031-.156.078-.265.031-.11.078-.156.047-.047.11-.063.046-.031.14-.047.094-.015.297-.031.187-.016.516-.016zm7.39-8.334q.125 0 .203.093.063.094.094.297.031.188.031.578 0 .407-.03.594-.032.188-.095.266-.078.078-.203.078h-.64q.53.5.828 1.14.297.641.297 1.422 0 .657-.172 1.203-.157.532-.485.938-.343.39-.828.61-.5.218-1.156.218-.703 0-1.219-.281-.531-.281-.875-.828-.344-.563-.5-1.375-.172-.813-.172-1.907v-.796h-.484q-.39 0-.672.078-.297.078-.484.265-.188.172-.282.469-.093.297-.093.734 0 .579.14 1.032.125.437.282.797.14.343.28.578.126.218.126.375 0 .093-.063.172-.062.078-.187.14-.125.047-.297.078-.172.016-.375.016-.281 0-.438-.047-.171-.047-.296-.172-.141-.125-.297-.437-.172-.328-.297-.75-.14-.438-.219-.938-.094-.5-.094-1.047 0-.953.188-1.625.187-.687.578-1.125.375-.437.984-.64.61-.203 1.453-.203h5.47zm-3.484 2.25v.875q0 .562.094.953.078.39.25.64.156.25.39.36.219.109.531.109.5 0 .797-.312.297-.329.297-.907 0-.484-.25-.89-.25-.407-.719-.828h-1.39zm2.656-9.335q.406 0 .625.047.203.047.297.14.078.078.156.235.063.156.11.375.046.203.078.453.03.25.03.515 0 .688-.17 1.188-.173.5-.532.828-.375.328-.922.484-.547.141-1.281.141h-4.172v.984q0 .172-.203.266-.22.094-.72.094-.265 0-.437-.016-.187-.031-.296-.078-.11-.047-.157-.11-.047-.077-.047-.171v-.969h-1.812q-.094 0-.156-.047-.078-.047-.125-.172-.047-.14-.063-.36-.031-.218-.031-.546 0-.344.031-.562.016-.235.063-.36t.125-.172q.062-.062.156-.062h1.812v-1.766q0-.094.047-.156.047-.078.157-.11.109-.046.296-.062.172-.031.438-.031.5 0 .719.094.203.078.203.25v1.78h3.828q.656 0 1-.202.328-.22.328-.75 0-.188-.031-.328-.031-.141-.078-.25l-.078-.204q-.032-.078-.032-.14 0-.047.032-.094.03-.062.14-.078.094-.031.266-.047.156-.031.406-.031zm.797-3.952q.094 0 .172.062.062.047.11.188.046.125.062.343.015.22.015.547 0 .344-.015.563-.016.219-.063.36-.047.124-.11.187-.077.047-.171.047h-8.11q-.093 0-.156-.047-.062-.063-.11-.188-.062-.14-.077-.36-.031-.218-.031-.562 0-.328.03-.547.016-.218.079-.343.047-.14.11-.188.062-.062.156-.062h8.109zm-10.875-.172q.687 0 .953.281.266.281.266 1.047 0 .766-.25 1.047-.25.265-.922.265-.688 0-.953-.28-.282-.282-.282-1.063 0-.75.266-1.016.266-.281.922-.281zm6.734-10.332q1.032 0 1.89.281.86.266 1.485.828.61.547.953 1.39.329.829.329 1.954 0 1.078-.297 1.89-.297.797-.875 1.329-.578.515-1.407.78-.843.25-1.921.25-1.032 0-1.891-.28-.86-.282-1.469-.829-.625-.562-.953-1.39-.344-.828-.344-1.953 0-1.094.297-1.89.297-.813.875-1.329.563-.531 1.406-.781.844-.25 1.922-.25zm.094 2.36q-.61 0-1.11.093-.5.094-.874.328-.375.219-.578.594-.22.375-.22.953 0 .515.188.906.188.375.547.625.36.234.875.36.5.124 1.14.124.595 0 1.11-.093.5-.11.875-.328.375-.22.578-.594.203-.39.203-.953 0-.532-.187-.907-.188-.39-.531-.625-.36-.25-.86-.359-.515-.125-1.156-.125z"/><path d="M45.96 159.276h335.56"/><path stroke="#595959" stroke-linejoin="round" stroke-linecap="butt" d="M45.96 159.276h335.56"/><path d="M45.96 199.722h335.56"/><path stroke="#595959" stroke-linejoin="round" stroke-linecap="butt" d="M45.96 199.722h335.56"/><path d="M43.738 118.83h335.559"/><path stroke="#595959" stroke-linejoin="round" stroke-linecap="butt" d="M43.738 118.83h335.559"/><path d="M281.297 89.559h139.118v39.496H281.297z"/><path fill="#000" d="M297.375 107.013q0 .265-.078.39-.079.125-.188.125h-1.016q.282.282.391.625.11.329.11.704 0 .609-.204 1.078-.187.468-.562.797-.36.312-.86.484t-1.109.172q-.422 0-.812-.11-.391-.109-.594-.28-.14.14-.235.327-.093.172-.093.407 0 .265.25.453.265.172.687.187l1.828.078q.532.016.97.157.437.125.75.359.327.234.5.594.187.343.187.812 0 .485-.204.922-.203.438-.625.766-.421.328-1.078.515-.64.203-1.515.203-.86 0-1.453-.156-.594-.14-.985-.39-.375-.25-.547-.594-.172-.344-.172-.75 0-.266.063-.516.062-.234.187-.453t.313-.422q.203-.203.453-.39-.39-.204-.578-.5-.172-.297-.172-.641 0-.469.188-.844.203-.375.484-.672-.234-.297-.375-.656-.14-.36-.14-.875 0-.61.202-1.078.204-.484.563-.813.36-.328.86-.5.5-.171 1.093-.171.328 0 .594.03.281.032.531.095h2.125q.125 0 .188.14.078.125.078.39zm-2.016 1.844q0-.72-.406-1.11-.39-.406-1.11-.406-.375 0-.656.125t-.469.344q-.171.218-.265.5-.094.28-.094.593 0 .704.39 1.11.407.39 1.11.39.39 0 .672-.125.281-.125.453-.328.188-.218.281-.5.094-.281.094-.593zm.64 5.578q0-.453-.374-.703-.36-.25-1-.266l-1.813-.063q-.25.204-.422.391-.156.172-.25.328-.093.156-.125.313-.03.156-.03.328 0 .5.515.765.515.266 1.437.266.578 0 .969-.125.406-.11.64-.297.25-.187.344-.437.11-.235.11-.5zm4.313-.72q0 .063-.031.11t-.11.078q-.062.032-.187.047-.125.016-.312.016-.188 0-.313-.016-.125-.015-.203-.047-.078-.03-.11-.078-.015-.047-.015-.11v-10.437q0-.062.016-.109.03-.047.109-.078.078-.031.203-.047t.313-.016q.187 0 .312.016t.188.047q.078.031.109.078t.031.11v10.437zm8.922-3.593q0 .86-.234 1.594-.219.719-.672 1.25-.438.516-1.125.812-.672.297-1.563.297-.859 0-1.515-.265-.64-.266-1.078-.75-.422-.5-.641-1.203-.203-.704-.203-1.594 0-.86.219-1.578.234-.72.671-1.235.454-.531 1.125-.812.672-.297 1.579-.297.859 0 1.5.266.656.25 1.078.75.437.484.64 1.187.22.703.22 1.578zm-1.36.094q0-.578-.109-1.078-.093-.516-.343-.89-.235-.391-.657-.61-.406-.219-1.03-.219-.563 0-.985.203-.407.203-.672.578-.266.36-.39.875-.126.5-.126 1.11 0 .578.094 1.093.11.5.36.875t.656.61q.421.219 1.03.219.563 0 .97-.204.421-.203.687-.562.266-.375.39-.875.126-.516.126-1.125zm9.735-.11q0 .922-.203 1.657-.203.719-.594 1.234-.375.516-.937.797-.563.281-1.297.281-.328 0-.625-.078-.281-.062-.563-.203-.265-.156-.547-.375-.265-.234-.562-.562v.859q0 .062-.031.11-.032.046-.11.077-.062.032-.172.047-.109.016-.265.016-.156 0-.266-.016-.11-.015-.187-.047-.063-.03-.094-.078-.016-.047-.016-.11v-10.437q0-.062.016-.109.031-.047.11-.078.077-.031.202-.047t.313-.016q.187 0 .312.016t.188.047q.078.031.11.078.03.047.03.11v4.218q.313-.328.61-.547.297-.218.578-.343.281-.141.563-.204.28-.062.593-.062.766 0 1.297.312.547.297.89.813.345.5.5 1.187.157.688.157 1.454zm-1.36.157q0-.547-.093-1.047-.078-.516-.281-.906-.203-.391-.547-.625-.328-.235-.828-.235-.25 0-.5.078-.235.063-.485.235-.25.156-.515.422-.266.25-.578.64v2.797q.53.656 1.015 1 .485.328 1.016.328.484 0 .828-.234t.547-.61q.219-.39.312-.874.11-.485.11-.97zm8.594 3.469q0 .093-.062.14-.063.047-.172.063-.11.03-.328.03-.203 0-.328-.03-.11-.016-.172-.063-.047-.047-.047-.14v-.704q-.469.485-1.031.766-.563.281-1.203.281-.547 0-1-.156-.453-.14-.766-.406-.312-.281-.5-.672-.172-.406-.172-.922 0-.594.235-1.031.25-.438.703-.719.453-.297 1.11-.437.655-.141 1.483-.141h.97v-.547q0-.406-.095-.719-.078-.312-.28-.515-.188-.22-.5-.313-.298-.11-.735-.11-.485 0-.86.11t-.671.25q-.282.14-.47.25-.187.11-.28.11-.063 0-.11-.032-.047-.031-.094-.093-.03-.063-.046-.157-.016-.093-.016-.218 0-.188.031-.297.031-.125.125-.22.11-.108.36-.233.265-.141.593-.25.344-.125.735-.188.406-.078.812-.078.766 0 1.297.172.531.172.86.5.328.328.468.828.156.484.156 1.14v4.75zm-1.28-3.22h-1.11q-.531 0-.922.095-.39.093-.656.265-.25.172-.375.422-.11.25-.11.563 0 .546.344.875.344.328.969.328.515 0 .937-.25.438-.266.922-.797v-1.5zm4.929 3.204q0 .062-.031.11-.032.046-.11.077-.062.032-.187.047-.125.016-.313.016-.187 0-.312-.016-.125-.015-.203-.047-.078-.03-.11-.078-.015-.047-.015-.11v-10.437q0-.062.015-.109.032-.047.11-.078t.203-.047q.125-.016.312-.016.188 0 .313.016t.187.047q.078.031.11.078.03.047.03.11v10.437zm10.117-6.563q0 .172-.016.297 0 .11-.03.172-.016.063-.063.11-.032.03-.094.03-.063 0-.156-.03-.078-.047-.203-.079-.11-.03-.25-.062-.141-.031-.297-.031-.203 0-.39.078-.188.078-.392.265-.203.172-.437.47-.219.296-.5.718v4.625q0 .062-.031.11-.032.046-.11.077-.062.032-.187.047-.125.016-.313.016-.187 0-.312-.016-.125-.015-.203-.047-.078-.03-.11-.078-.015-.047-.015-.11v-7.03q0-.063.015-.094.032-.047.094-.078.078-.047.188-.047.109-.016.28-.016.173 0 .282.016.125 0 .188.047.062.031.078.078.031.031.031.094v1.03q.297-.421.547-.687.25-.265.469-.421.234-.157.453-.204.234-.062.453-.062.11 0 .234.016.125 0 .266.03.14.032.25.079.125.031.172.078.047.031.062.078.016.031.016.094.015.047.015.156.016.094.016.281zm6.766 6.579q0 .093-.063.14-.062.047-.172.063-.109.03-.328.03-.203 0-.328-.03-.11-.016-.172-.063-.047-.047-.047-.14v-.704q-.468.485-1.03.766-.563.281-1.204.281-.547 0-1-.156-.453-.14-.766-.406-.312-.281-.5-.672-.172-.406-.172-.922 0-.594.235-1.031.25-.438.703-.719.453-.297 1.11-.437.656-.141 1.484-.141h.968v-.547q0-.406-.093-.719-.078-.312-.282-.515-.187-.22-.5-.313-.296-.11-.734-.11-.484 0-.86.11-.374.11-.671.25-.281.14-.469.25-.187.11-.281.11-.063 0-.11-.032-.046-.031-.093-.093-.032-.063-.047-.157-.016-.093-.016-.218 0-.188.031-.297.032-.125.125-.22.11-.108.36-.233.265-.141.594-.25.343-.125.734-.188.406-.078.812-.078.766 0 1.297.172.532.172.86.5.328.328.468.828.157.484.157 1.14v4.75zm-1.282-3.22h-1.109q-.531 0-.922.095-.39.093-.656.265-.25.172-.375.422-.11.25-.11.563 0 .546.344.875.344.328.97.328.515 0 .937-.25.437-.266.921-.797v-1.5zm7.305 2.688q0 .235-.031.375-.031.125-.094.188-.062.062-.187.125-.125.047-.297.078-.156.047-.344.062-.172.032-.344.032-.547 0-.937-.141-.39-.156-.64-.453-.25-.297-.376-.734-.11-.454-.11-1.063v-4.11h-.984q-.109 0-.187-.124-.063-.125-.063-.407 0-.156.016-.25.016-.109.047-.171.031-.063.078-.094.063-.031.125-.031h.969v-1.672q0-.047.031-.094t.094-.078q.078-.047.203-.063.125-.015.312-.015.204 0 .329.015.125.016.187.063.078.031.11.078.03.047.03.094v1.672h1.798q.062 0 .109.03.047.032.078.095.047.062.063.171.015.094.015.25 0 .282-.078.407-.062.125-.187.125h-1.797v3.922q0 .718.203 1.093.219.375.781.375.172 0 .313-.031.14-.047.25-.078.109-.047.187-.078t.14-.031q.048 0 .079.015.031.016.047.078.03.047.047.14.015.095.015.235zm2.985.516q0 .062-.032.11-.031.046-.11.077-.062.032-.187.047-.125.016-.312.016-.188 0-.313-.016-.125-.015-.203-.047-.078-.03-.11-.078-.015-.047-.015-.11v-7.03q0-.047.016-.094.031-.047.11-.078.077-.031.202-.047t.313-.016q.187 0 .312.016t.188.047q.078.031.11.078.03.047.03.094v7.03zm.156-9.406q0 .453-.172.625-.172.156-.64.156-.454 0-.626-.156-.156-.157-.156-.61 0-.453.172-.61.172-.171.625-.171t.625.172q.172.156.172.594zm8.765 5.812q0 .86-.234 1.594-.219.719-.672 1.25-.437.516-1.125.812-.672.297-1.562.297-.86 0-1.516-.265-.64-.266-1.078-.75-.422-.5-.64-1.203-.204-.704-.204-1.594 0-.86.219-1.578.234-.72.672-1.235.453-.531 1.125-.812.672-.297 1.578-.297.86 0 1.5.266.656.25 1.078.75.438.484.64 1.187.22.703.22 1.578zm-1.359.094q0-.578-.11-1.078-.093-.516-.343-.89-.234-.391-.656-.61-.407-.219-1.032-.219-.562 0-.984.203-.406.203-.672.578-.265.36-.39.875-.125.5-.125 1.11 0 .578.093 1.093.11.5.36.875t.656.61q.422.219 1.031.219.563 0 .969-.204.422-.203.687-.562.266-.375.391-.875.125-.516.125-1.125zm13.102-.797q0 .14-.032.25-.015.11-.062.188-.031.062-.094.093-.047.032-.11.032h-2.562v2.843q0 .063-.031.11-.031.03-.094.062-.062.031-.172.063-.109.015-.28.015-.157 0-.267-.015-.109-.032-.187-.063-.063-.031-.094-.062-.031-.047-.031-.11v-2.843h-2.563q-.062 0-.125-.032-.046-.031-.093-.093-.032-.079-.063-.188-.015-.11-.015-.25t.015-.25q.031-.11.063-.172.047-.078.093-.11.063-.03.125-.03h2.563v-2.844q0-.063.031-.11.031-.046.094-.078.078-.047.187-.062.11-.016.266-.016.172 0 .281.016.11.015.172.062.063.032.094.078.031.047.031.11v2.844h2.578q.063 0 .11.03.047.032.093.11.047.063.063.172.016.11.016.25zm11.414 3.969q0 .14-.032.25-.015.094-.062.156-.031.063-.094.094-.047.031-.094.031h-5.28q-.063 0-.11-.031t-.094-.094q-.031-.062-.062-.156-.016-.11-.016-.25t.016-.235q.03-.109.062-.171.031-.079.078-.11.063-.031.125-.031h2.11v-7.688l-1.954 1.157q-.156.078-.25.093-.078.016-.14-.03-.047-.048-.078-.157-.016-.125-.016-.313 0-.125.016-.218.015-.094.03-.157.032-.062.063-.109.047-.047.125-.094l2.329-1.5q.03-.015.078-.031.047-.016.109-.031.078-.016.172-.016.094-.015.234-.015.188 0 .313.015.125.016.187.047.078.031.094.078.031.031.031.078v8.89h1.828q.063 0 .11.032.062.031.094.11.03.062.046.171.032.094.032.235zm8.422-4.547q0 1.156-.188 2.125-.187.953-.61 1.656-.421.688-1.109 1.078-.687.375-1.703.375-.953 0-1.61-.343-.64-.344-1.046-1-.39-.672-.563-1.625-.171-.97-.171-2.22 0-1.155.187-2.124.188-.969.61-1.656.421-.688 1.109-1.063.687-.39 1.687-.39.969 0 1.61.343.656.344 1.047 1 .406.656.578 1.625.172.969.172 2.219zm-1.375.094q0-.766-.063-1.36-.047-.61-.156-1.062-.11-.469-.281-.797-.157-.328-.391-.547-.234-.219-.547-.312-.297-.094-.672-.094-.656 0-1.078.312-.406.313-.656.86-.235.547-.328 1.28-.078.735-.078 1.579 0 1.125.109 1.922.125.797.375 1.297.266.5.656.734.39.219.953.219.438 0 .766-.14.344-.141.578-.407.234-.266.39-.625.157-.375.25-.812.094-.454.126-.97.047-.515.047-1.077zm6.718-2.578q0 .609-.14 1.109-.125.484-.407.828-.265.344-.687.547-.422.203-.984.203-.563 0-.97-.187-.405-.188-.671-.516-.25-.344-.375-.828-.125-.5-.125-1.125 0-.563.125-1.047.14-.484.406-.828.266-.36.672-.563.422-.203 1-.203.61 0 1.031.219.422.203.672.562.25.344.344.829.11.468.11 1zm-1.093.046q0-.437-.063-.78-.062-.345-.203-.563-.125-.235-.344-.344-.203-.11-.484-.11-.281 0-.485.11-.203.11-.328.328-.125.219-.187.547-.063.312-.063.75 0 .531.063.89.078.36.219.563.14.203.343.297.203.078.469.078.313 0 .516-.11.203-.124.312-.359.125-.234.172-.547.063-.328.063-.75zm7.093 4.954q0 .609-.14 1.109-.125.484-.407.828-.265.344-.687.547-.422.203-.984.203-.563 0-.97-.187-.405-.188-.671-.516-.25-.344-.375-.828-.125-.5-.125-1.125 0-.563.125-1.047.14-.484.406-.828.266-.36.672-.563.422-.203 1-.203.61 0 1.031.219.422.203.672.562.25.344.344.829.11.468.11 1zm-1.093.046q0-.437-.063-.78-.062-.345-.203-.563-.125-.235-.344-.344-.203-.11-.484-.11-.281 0-.485.11-.203.11-.328.328-.125.219-.187.547-.063.312-.063.75 0 .531.063.89.078.36.219.563.14.203.343.297.203.078.469.078.313 0 .516-.11.203-.124.312-.359.125-.234.172-.547.063-.328.063-.75zm-6.97 2.579q-.046.078-.109.109-.046.031-.125.062-.078.032-.187.032-.11.015-.266.015-.172 0-.281-.031-.094-.031-.14-.078-.047-.047-.032-.125.016-.078.078-.172l7.032-10.078q.046-.063.093-.094.063-.047.14-.062.079-.032.188-.047.11-.016.266-.016.172 0 .266.031.109.032.156.094.047.047.031.125 0 .078-.062.156l-7.047 10.079z"/><path d="M281.297 168.551h144.252v39.496H281.297z"/><path fill="#000" d="M297.375 186.005q0 .266-.078.39-.079.126-.188.126h-1.016q.282.28.391.625.11.328.11.703 0 .61-.204 1.078-.187.469-.562.797-.36.312-.86.484t-1.109.172q-.422 0-.812-.11-.391-.109-.594-.28-.14.14-.235.327-.093.172-.093.407 0 .265.25.453.265.172.687.187l1.828.078q.532.016.97.157.437.125.75.36.327.233.5.593.187.344.187.812 0 .485-.204.922-.203.438-.625.766-.421.328-1.078.515-.64.204-1.515.204-.86 0-1.453-.157-.594-.14-.985-.39-.375-.25-.547-.594-.172-.344-.172-.75 0-.266.063-.516.062-.234.187-.453t.313-.422q.203-.203.453-.39-.39-.203-.578-.5-.172-.297-.172-.64 0-.47.188-.845.203-.375.484-.672-.234-.296-.375-.656-.14-.36-.14-.875 0-.61.202-1.078.204-.484.563-.812.36-.329.86-.5.5-.172 1.093-.172.328 0 .594.03.281.032.531.095h2.125q.125 0 .188.14.078.125.078.39zm-2.016 1.844q0-.72-.406-1.11-.39-.406-1.11-.406-.375 0-.656.125t-.469.344q-.171.219-.265.5t-.094.594q0 .703.39 1.109.407.39 1.11.39.39 0 .672-.124.281-.125.453-.329.188-.218.281-.5.094-.28.094-.593zm.64 5.578q0-.453-.374-.703-.36-.25-1-.266l-1.813-.062q-.25.203-.422.39-.156.172-.25.328-.093.157-.125.313-.03.156-.03.328 0 .5.515.766.515.265 1.437.265.578 0 .969-.125.406-.11.64-.297.25-.187.344-.437.11-.235.11-.5zm4.313-.719q0 .063-.031.11-.031.046-.11.078-.062.03-.187.046t-.312.016q-.188 0-.313-.016-.125-.015-.203-.046-.078-.032-.11-.079-.015-.046-.015-.109v-10.437q0-.063.016-.11.03-.047.109-.078.078-.031.203-.047.125-.015.313-.015.187 0 .312.015.125.016.188.047.078.031.109.078t.031.11v10.437zm8.922-3.594q0 .86-.234 1.594-.219.719-.672 1.25-.438.516-1.125.813-.672.296-1.563.296-.859 0-1.515-.265-.64-.266-1.078-.75-.422-.5-.641-1.203-.203-.703-.203-1.594 0-.86.219-1.578.234-.719.671-1.235.454-.53 1.125-.812.672-.297 1.579-.297.859 0 1.5.266.656.25 1.078.75.437.484.64 1.187.22.703.22 1.578zm-1.36.094q0-.578-.109-1.078-.093-.516-.343-.89-.235-.391-.657-.61-.406-.219-1.03-.219-.563 0-.985.203-.407.203-.672.578-.266.36-.39.875-.126.5-.126 1.11 0 .578.094 1.094.11.5.36.875t.656.609q.421.219 1.03.219.563 0 .97-.203.421-.204.687-.563.266-.375.39-.875.126-.516.126-1.125zm9.735-.11q0 .923-.203 1.657-.203.719-.594 1.234-.375.516-.937.797-.563.281-1.297.281-.328 0-.625-.078-.281-.062-.563-.203-.265-.156-.547-.375-.265-.234-.562-.562v.86q0 .062-.031.108-.032.047-.11.079-.062.03-.172.046-.109.016-.265.016-.156 0-.266-.016-.11-.015-.187-.046-.063-.032-.094-.079-.016-.046-.016-.109v-10.437q0-.063.016-.11.031-.047.11-.078.077-.031.202-.047.125-.015.313-.015.187 0 .312.015.125.016.188.047.078.031.11.078.03.047.03.11v4.218q.313-.328.61-.547.297-.218.578-.343.281-.14.563-.203.28-.063.593-.063.766 0 1.297.313.547.296.89.812.345.5.5 1.188.157.687.157 1.453zm-1.36.157q0-.547-.093-1.047-.078-.516-.281-.906t-.547-.625q-.328-.235-.828-.235-.25 0-.5.079-.235.062-.485.234-.25.156-.515.422-.266.25-.578.64v2.797q.53.657 1.015 1 .485.328 1.016.328.484 0 .828-.234t.547-.61q.219-.39.312-.874.11-.485.11-.97zm8.594 3.469q0 .093-.062.14-.063.047-.172.063-.11.031-.328.031-.203 0-.328-.031-.11-.016-.172-.063-.047-.047-.047-.14v-.703q-.469.484-1.031.765-.563.281-1.203.281-.547 0-1-.156-.453-.14-.766-.406-.312-.281-.5-.672-.172-.406-.172-.922 0-.594.235-1.031.25-.438.703-.719.453-.297 1.11-.437.655-.14 1.483-.14h.97v-.548q0-.406-.095-.719-.078-.312-.28-.515-.188-.219-.5-.313-.298-.11-.735-.11-.485 0-.86.11t-.671.25q-.282.14-.47.25-.187.11-.28.11-.063 0-.11-.032-.047-.03-.094-.093-.03-.063-.046-.157-.016-.093-.016-.218 0-.188.031-.297.031-.125.125-.219.11-.11.36-.234.265-.14.593-.25.344-.125.735-.188.406-.078.812-.078.766 0 1.297.172.531.172.86.5.328.328.468.828.156.484.156 1.14v4.75zm-1.28-3.22h-1.11q-.531 0-.922.095-.39.093-.656.265-.25.172-.375.422-.11.25-.11.563 0 .547.344.875.344.328.969.328.515 0 .937-.25.438-.266.922-.797v-1.5zm4.929 3.204q0 .063-.031.11-.032.046-.11.078-.062.03-.187.046t-.313.016q-.187 0-.312-.016-.125-.015-.203-.046-.078-.032-.11-.079-.015-.046-.015-.109v-10.437q0-.063.015-.11.032-.047.11-.078t.203-.047q.125-.015.312-.015.188 0 .313.015.125.016.187.047.078.031.11.078.03.047.03.11v10.437zm10.117-6.562q0 .171-.016.296 0 .11-.03.172-.016.063-.063.11-.032.03-.094.03-.063 0-.156-.03-.078-.047-.203-.078-.11-.032-.25-.063-.141-.031-.297-.031-.203 0-.39.078-.188.078-.392.266-.203.171-.437.468-.219.297-.5.72v4.624q0 .063-.031.11-.032.046-.11.078-.062.03-.187.046t-.313.016q-.187 0-.312-.016-.125-.015-.203-.046-.078-.032-.11-.079-.015-.046-.015-.109v-7.031q0-.063.015-.094.032-.047.094-.078.078-.047.188-.047.109-.016.28-.016.173 0 .282.016.125 0 .188.047.062.031.078.078.031.031.031.094v1.031q.297-.422.547-.687.25-.266.469-.422.234-.157.453-.203.234-.063.453-.063.11 0 .234.016.125 0 .266.03.14.032.25.08.125.03.172.077.047.031.062.078.016.032.016.094.015.047.015.156.016.094.016.282zm6.766 6.578q0 .093-.063.14-.062.047-.172.063-.109.031-.328.031-.203 0-.328-.031-.11-.016-.172-.063-.047-.047-.047-.14v-.703q-.468.484-1.03.765-.563.281-1.204.281-.547 0-1-.156-.453-.14-.766-.406-.312-.281-.5-.672-.172-.406-.172-.922 0-.594.235-1.031.25-.438.703-.719.453-.297 1.11-.437.656-.14 1.484-.14h.968v-.548q0-.406-.093-.719-.078-.312-.282-.515-.187-.219-.5-.313-.296-.11-.734-.11-.484 0-.86.11-.374.11-.671.25-.281.14-.469.25-.187.11-.281.11-.063 0-.11-.032-.046-.03-.093-.093-.032-.063-.047-.157-.016-.093-.016-.218 0-.188.031-.297.032-.125.125-.219.11-.11.36-.234.265-.14.594-.25.343-.125.734-.188.406-.078.812-.078.766 0 1.297.172.532.172.86.5.328.328.468.828.157.484.157 1.14v4.75zm-1.282-3.22h-1.109q-.531 0-.922.095-.39.093-.656.265-.25.172-.375.422-.11.25-.11.563 0 .547.344.875.344.328.97.328.515 0 .937-.25.437-.266.921-.797v-1.5zm7.305 2.688q0 .235-.031.375-.031.125-.094.188-.062.062-.187.125-.125.047-.297.078-.156.047-.344.063-.172.03-.344.03-.547 0-.937-.14-.39-.156-.64-.453-.25-.297-.376-.734-.11-.453-.11-1.063v-4.11h-.984q-.109 0-.187-.124-.063-.125-.063-.406 0-.157.016-.25.016-.11.047-.172.031-.063.078-.094.063-.031.125-.031h.969v-1.672q0-.047.031-.094t.094-.078q.078-.047.203-.063.125-.015.312-.015.204 0 .329.015.125.016.187.063.078.031.11.078.03.047.03.094v1.672h1.798q.062 0 .109.03.047.032.078.095.047.062.063.172.015.093.015.25 0 .28-.078.406-.062.125-.187.125h-1.797v3.922q0 .718.203 1.093.219.375.781.375.172 0 .313-.03.14-.048.25-.079.109-.047.187-.078t.14-.031q.048 0 .079.015.031.016.047.078.03.047.047.141.015.094.015.234zm2.985.516q0 .063-.032.11-.031.046-.11.078-.062.03-.187.046t-.312.016q-.188 0-.313-.016-.125-.015-.203-.046-.078-.032-.11-.079-.015-.046-.015-.109v-7.031q0-.047.016-.094.031-.047.11-.078.077-.031.202-.047t.313-.016q.187 0 .312.016t.188.047q.078.031.11.078.03.047.03.094v7.031zm.156-9.406q0 .453-.172.625-.172.156-.64.156-.454 0-.626-.156-.156-.156-.156-.61 0-.453.172-.609.172-.172.625-.172t.625.172q.172.156.172.594zm8.765 5.812q0 .86-.234 1.594-.219.719-.672 1.25-.437.516-1.125.813-.672.296-1.562.296-.86 0-1.516-.265-.64-.266-1.078-.75-.422-.5-.64-1.203-.204-.703-.204-1.594 0-.86.219-1.578.234-.719.672-1.235.453-.53 1.125-.812.672-.297 1.578-.297.86 0 1.5.266.656.25 1.078.75.438.484.64 1.187.22.703.22 1.578zm-1.359.094q0-.578-.11-1.078-.093-.516-.343-.89-.234-.391-.656-.61-.407-.219-1.032-.219-.562 0-.984.203-.406.203-.672.578-.265.36-.39.875-.125.5-.125 1.11 0 .578.093 1.094.11.5.36.875t.656.609q.422.219 1.031.219.563 0 .969-.203.422-.204.687-.563.266-.375.391-.875.125-.516.125-1.125zm10.04-.25q0 .313-.079.438-.063.109-.188.109h-3.265q-.14 0-.219-.125-.062-.125-.062-.422t.062-.406q.078-.125.219-.125h3.265q.063 0 .11.031.047.016.078.094.047.062.062.172.016.093.016.234zm11.405 3.422q0 .14-.03.25-.017.094-.063.156-.032.063-.094.094-.047.031-.094.031h-5.281q-.063 0-.11-.031-.046-.031-.093-.094-.032-.062-.063-.156-.015-.11-.015-.25t.015-.234q.031-.11.063-.172.031-.078.078-.11.062-.03.125-.03h2.11v-7.688l-1.954 1.156q-.156.078-.25.094-.078.015-.14-.032-.047-.047-.079-.156-.015-.125-.015-.312 0-.125.015-.22.016-.093.032-.155.03-.063.062-.11.047-.047.125-.094l2.328-1.5q.031-.015.078-.03.047-.016.11-.032.078-.016.172-.016.093-.015.234-.015.187 0 .312.015.125.016.188.047.078.031.094.078.031.032.031.078v8.891h1.828q.063 0 .11.031.062.032.093.11.031.062.047.172.031.093.031.234zm8.422-4.547q0 1.156-.187 2.125-.188.953-.61 1.656-.422.688-1.109 1.078-.688.375-1.703.375-.953 0-1.61-.343-.64-.344-1.046-1-.391-.672-.563-1.625-.172-.97-.172-2.22 0-1.155.188-2.124.187-.969.61-1.656.421-.688 1.108-1.063.688-.39 1.688-.39.969 0 1.61.343.656.344 1.046 1 .406.657.578 1.625.172.97.172 2.22zm-1.375.094q0-.766-.062-1.36-.047-.609-.157-1.062-.109-.469-.28-.797-.157-.328-.391-.547-.235-.219-.547-.312-.297-.094-.672-.094-.656 0-1.078.312-.407.313-.657.86-.234.547-.328 1.281-.078.734-.078 1.578 0 1.125.11 1.922.125.797.375 1.297.265.5.656.734.39.22.953.22.437 0 .766-.142.343-.14.578-.406.234-.265.39-.625.157-.375.25-.812.094-.453.125-.97.047-.515.047-1.077zm6.719-2.578q0 .61-.14 1.11-.126.483-.407.827-.266.344-.687.547-.422.203-.985.203-.562 0-.969-.187-.406-.188-.671-.516-.25-.344-.375-.828-.125-.5-.125-1.125 0-.563.125-1.047.14-.484.406-.828.265-.36.672-.563.422-.203 1-.203.61 0 1.031.22.422.202.672.562.25.343.344.828.109.468.109 1zm-1.094.047q0-.438-.062-.782-.063-.343-.203-.562-.125-.235-.344-.344-.203-.11-.485-.11-.28 0-.484.11-.203.11-.328.328-.125.219-.188.547-.062.313-.062.75 0 .531.062.89.079.36.22.563.14.203.343.297.203.078.469.078.312 0 .515-.11.203-.124.313-.359.125-.234.172-.546.062-.329.062-.75zm7.094 4.953q0 .61-.14 1.11-.126.483-.407.827-.266.344-.687.547-.422.203-.985.203-.562 0-.969-.187-.406-.188-.671-.516-.25-.344-.375-.828-.125-.5-.125-1.125 0-.563.125-1.047.14-.484.406-.828.265-.36.672-.563.422-.203 1-.203.61 0 1.031.22.422.202.672.562.25.343.344.828.109.468.109 1zm-1.094.047q0-.438-.062-.782-.063-.343-.203-.562-.125-.235-.344-.344-.203-.11-.485-.11-.28 0-.484.11-.203.11-.328.328-.125.219-.188.547-.062.313-.062.75 0 .531.062.89.079.36.22.563.14.203.343.297.203.078.469.078.312 0 .515-.11.203-.124.313-.359.125-.234.172-.546.062-.329.062-.75zm-6.969 2.578q-.046.078-.109.11-.047.03-.125.062-.078.03-.187.03-.11.016-.266.016-.172 0-.281-.03-.094-.032-.14-.079-.048-.047-.032-.125.015-.078.078-.172l7.031-10.078q.047-.062.094-.094.062-.047.14-.062.079-.031.188-.047.11-.016.266-.016.172 0 .265.032.11.03.157.093.046.047.03.125 0 .078-.062.157l-7.047 10.078z"/><path d="M281.297 129.055h108.881v39.496H281.297z"/><path fill="#000" d="M297.375 146.509q0 .265-.078.39-.079.125-.188.125h-1.016q.282.282.391.625.11.329.11.704 0 .609-.204 1.078-.187.468-.562.797-.36.312-.86.484t-1.109.172q-.422 0-.812-.11-.391-.109-.594-.28-.14.14-.235.327-.093.172-.093.407 0 .265.25.453.265.172.687.187l1.828.078q.532.016.97.157.437.125.75.359.327.234.5.594.187.343.187.812 0 .485-.204.922-.203.438-.625.766-.421.328-1.078.515-.64.203-1.515.203-.86 0-1.453-.156-.594-.14-.985-.39-.375-.25-.547-.594-.172-.344-.172-.75 0-.266.063-.516.062-.234.187-.453t.313-.422q.203-.203.453-.39-.39-.204-.578-.5-.172-.297-.172-.641 0-.469.188-.844.203-.375.484-.672-.234-.297-.375-.656-.14-.36-.14-.875 0-.61.202-1.078.204-.484.563-.813.36-.328.86-.5.5-.171 1.093-.171.328 0 .594.03.281.032.531.095h2.125q.125 0 .188.14.078.125.078.39zm-2.016 1.844q0-.72-.406-1.11-.39-.406-1.11-.406-.375 0-.656.125t-.469.344q-.171.218-.265.5-.094.281-.094.593 0 .704.39 1.11.407.39 1.11.39.39 0 .672-.125.281-.125.453-.328.188-.218.281-.5.094-.28.094-.593zm.64 5.578q0-.453-.374-.703-.36-.25-1-.266l-1.813-.063q-.25.204-.422.391-.156.172-.25.328-.093.156-.125.313-.03.156-.03.328 0 .5.515.765.515.266 1.437.266.578 0 .969-.125.406-.11.64-.297.25-.187.344-.437.11-.235.11-.5zm4.313-.719q0 .062-.031.11-.031.046-.11.077-.062.032-.187.047-.125.016-.312.016-.188 0-.313-.016-.125-.015-.203-.047-.078-.03-.11-.078-.015-.047-.015-.109v-10.438q0-.062.016-.109.03-.047.109-.078.078-.031.203-.047t.313-.016q.187 0 .312.016t.188.047q.078.031.109.078t.031.11v10.437zm8.922-3.594q0 .86-.234 1.594-.219.719-.672 1.25-.438.516-1.125.812-.672.297-1.563.297-.859 0-1.515-.265-.64-.266-1.078-.75-.422-.5-.641-1.203-.203-.704-.203-1.594 0-.86.219-1.578.234-.719.671-1.235.454-.53 1.125-.812.672-.297 1.579-.297.859 0 1.5.266.656.25 1.078.75.437.484.64 1.187.22.703.22 1.578zm-1.36.094q0-.578-.109-1.078-.093-.516-.343-.89-.235-.391-.657-.61-.406-.219-1.03-.219-.563 0-.985.203-.407.203-.672.578-.266.36-.39.875-.126.5-.126 1.11 0 .578.094 1.093.11.5.36.875t.656.61q.421.219 1.03.219.563 0 .97-.204.421-.203.687-.562.266-.375.39-.875.126-.516.126-1.125zm9.735-.11q0 .922-.203 1.657-.203.719-.594 1.234-.375.516-.937.797-.563.281-1.297.281-.328 0-.625-.078-.281-.062-.563-.203-.265-.156-.547-.375-.265-.234-.562-.562v.859q0 .062-.031.11-.032.046-.11.077-.062.032-.172.047-.109.016-.265.016-.156 0-.266-.016-.11-.015-.187-.047-.063-.03-.094-.078-.016-.047-.016-.109v-10.438q0-.062.016-.109.031-.047.11-.078.077-.031.202-.047t.313-.016q.187 0 .312.016t.188.047q.078.031.11.078.03.047.03.11v4.218q.313-.328.61-.547.297-.218.578-.343.281-.141.563-.204.28-.062.593-.062.766 0 1.297.312.547.297.89.813.345.5.5 1.187.157.688.157 1.454zm-1.36.157q0-.547-.093-1.047-.078-.516-.281-.906t-.547-.625q-.328-.235-.828-.235-.25 0-.5.078-.235.063-.485.235-.25.156-.515.422-.266.25-.578.64v2.797q.53.656 1.015 1 .485.328 1.016.328.484 0 .828-.234t.547-.61q.219-.39.312-.874.11-.485.11-.97zm8.594 3.469q0 .093-.062.14-.063.047-.172.063-.11.031-.328.031-.203 0-.328-.031-.11-.016-.172-.063-.047-.047-.047-.14v-.704q-.469.485-1.031.766-.563.281-1.203.281-.547 0-1-.156-.453-.14-.766-.406-.312-.281-.5-.672-.172-.406-.172-.922 0-.594.235-1.031.25-.438.703-.719.453-.297 1.11-.437.655-.141 1.483-.141h.97v-.547q0-.406-.095-.719-.078-.312-.28-.515-.188-.219-.5-.313-.298-.11-.735-.11-.485 0-.86.11t-.671.25q-.282.14-.47.25-.187.11-.28.11-.063 0-.11-.032-.047-.03-.094-.093-.03-.063-.046-.157-.016-.093-.016-.218 0-.188.031-.297.031-.125.125-.219.11-.11.36-.234.265-.141.593-.25.344-.125.735-.188.406-.078.812-.078.766 0 1.297.172.531.172.86.5.328.328.468.828.156.484.156 1.14v4.75zm-1.28-3.22h-1.11q-.531 0-.922.095-.39.093-.656.265-.25.172-.375.422-.11.25-.11.563 0 .546.344.875.344.328.969.328.515 0 .937-.25.438-.266.922-.797v-1.5zm4.929 3.204q0 .062-.031.11-.032.046-.11.077-.062.032-.187.047-.125.016-.313.016-.187 0-.312-.016-.125-.015-.203-.047-.078-.03-.11-.078-.015-.047-.015-.109v-10.438q0-.062.015-.109.032-.047.11-.078t.203-.047q.125-.016.312-.016.188 0 .313.016t.187.047q.078.031.11.078.03.047.03.11v10.437zm10.117-6.563q0 .172-.016.297 0 .11-.03.172-.016.063-.063.11-.032.03-.094.03-.063 0-.156-.03-.078-.047-.203-.079-.11-.03-.25-.062-.141-.031-.297-.031-.203 0-.39.078-.188.078-.392.265-.203.172-.437.47-.219.296-.5.718v4.625q0 .062-.031.11-.032.046-.11.077-.062.032-.187.047-.125.016-.313.016-.187 0-.312-.016-.125-.015-.203-.047-.078-.03-.11-.078-.015-.047-.015-.109v-7.031q0-.063.015-.094.032-.047.094-.078.078-.047.188-.047.109-.016.28-.016.173 0 .282.016.125 0 .188.047.062.031.078.078.031.031.031.094v1.031q.297-.422.547-.688.25-.265.469-.421.234-.157.453-.204.234-.062.453-.062.11 0 .234.016.125 0 .266.03.14.032.25.079.125.031.172.078.047.031.062.078.016.031.016.094.015.047.015.156.016.094.016.281zm6.766 6.579q0 .093-.063.14-.062.047-.172.063-.109.031-.328.031-.203 0-.328-.031-.11-.016-.172-.063-.047-.047-.047-.14v-.704q-.468.485-1.03.766-.563.281-1.204.281-.547 0-1-.156-.453-.14-.766-.406-.312-.281-.5-.672-.172-.406-.172-.922 0-.594.235-1.031.25-.438.703-.719.453-.297 1.11-.437.656-.141 1.484-.141h.968v-.547q0-.406-.093-.719-.078-.312-.282-.515-.187-.219-.5-.313-.296-.11-.734-.11-.484 0-.86.11-.374.11-.671.25-.281.14-.469.25-.187.11-.281.11-.063 0-.11-.032-.046-.03-.093-.093-.032-.063-.047-.157-.016-.093-.016-.218 0-.188.031-.297.032-.125.125-.219.11-.11.36-.234.265-.141.594-.25.343-.125.734-.188.406-.078.812-.078.766 0 1.297.172.532.172.86.5.328.328.468.828.157.484.157 1.14v4.75zm-1.282-3.22h-1.109q-.531 0-.922.095-.39.093-.656.265-.25.172-.375.422-.11.25-.11.563 0 .546.344.875.344.328.97.328.515 0 .937-.25.437-.266.921-.797v-1.5zm7.305 2.688q0 .235-.031.375-.031.125-.094.188-.062.062-.187.125-.125.047-.297.078-.156.047-.344.062-.172.032-.344.032-.547 0-.937-.14-.39-.157-.64-.454-.25-.297-.376-.734-.11-.454-.11-1.063v-4.11h-.984q-.109 0-.187-.124-.063-.125-.063-.407 0-.156.016-.25.016-.109.047-.171.031-.063.078-.094.063-.031.125-.031h.969v-1.672q0-.047.031-.094t.094-.078q.078-.047.203-.063.125-.015.312-.015.204 0 .329.015.125.016.187.063.078.031.11.078.03.047.03.094v1.672h1.798q.062 0 .109.03.047.032.078.095.047.062.063.171.015.094.015.25 0 .282-.078.407-.062.125-.187.125h-1.797v3.922q0 .718.203 1.093.219.375.781.375.172 0 .313-.03.14-.048.25-.079.109-.047.187-.078t.14-.031q.048 0 .079.015.031.016.047.078.03.047.047.141.015.094.015.234zm2.985.516q0 .062-.032.11-.031.046-.11.077-.062.032-.187.047-.125.016-.312.016-.188 0-.313-.016-.125-.015-.203-.047-.078-.03-.11-.078-.015-.047-.015-.109v-7.031q0-.047.016-.094.031-.047.11-.078.077-.031.202-.047t.313-.016q.187 0 .312.016t.188.047q.078.031.11.078.03.047.03.094v7.031zm.156-9.406q0 .453-.172.625-.172.156-.64.156-.454 0-.626-.156-.156-.157-.156-.61 0-.453.172-.609.172-.172.625-.172t.625.172q.172.156.172.594zm8.765 5.812q0 .86-.234 1.594-.219.719-.672 1.25-.437.516-1.125.812-.672.297-1.562.297-.86 0-1.516-.265-.64-.266-1.078-.75-.422-.5-.64-1.203-.204-.704-.204-1.594 0-.86.219-1.578.234-.719.672-1.235.453-.53 1.125-.812.672-.297 1.578-.297.86 0 1.5.266.656.25 1.078.75.438.484.64 1.187.22.703.22 1.578zm-1.359.094q0-.578-.11-1.078-.093-.516-.343-.89-.234-.391-.656-.61-.407-.219-1.032-.219-.562 0-.984.203-.406.203-.672.578-.265.36-.39.875-.125.5-.125 1.11 0 .578.093 1.093.11.5.36.875t.656.61q.422.219 1.031.219.563 0 .969-.204.422-.203.687-.562.266-.375.391-.875.125-.516.125-1.125z"/><path fill="#0097a7" d="M160.297 172.44c0-2.147 1.24-3.889 2.771-3.889.735 0 1.44.41 1.96 1.14.52.729.812 1.718.812 2.75 0 2.148-1.241 3.89-2.772 3.89-1.53 0-2.771-1.742-2.771-3.89z" fill-rule="evenodd"/><path stroke="#595959" stroke-linejoin="round" stroke-linecap="butt" d="M160.297 172.44h0c0-2.147 1.24-3.889 2.771-3.889h0c.735 0 1.44.41 1.96 1.14.52.729.812 1.718.812 2.75h0c0 2.148-1.241 3.89-2.772 3.89h0c-1.53 0-2.771-1.742-2.771-3.89z"/><path fill="#0097a7" d="M188.869 148.803c0-2.148 1.24-3.89 2.771-3.89.736 0 1.44.41 1.96 1.14s.812 1.719.812 2.75c0 2.148-1.24 3.89-2.772 3.89-1.53 0-2.771-1.742-2.771-3.89z" fill-rule="evenodd"/><path stroke="#595959" stroke-linejoin="round" stroke-linecap="butt" d="M188.869 148.803h0c0-2.148 1.24-3.89 2.771-3.89h0c.736 0 1.44.41 1.96 1.14s.812 1.719.812 2.75h0c0 2.148-1.24 3.89-2.772 3.89h0c-1.53 0-2.771-1.742-2.771-3.89z"/><path fill="#0097a7" d="M208.745 179.499c0-2.149 1.241-3.89 2.772-3.89.735 0 1.44.41 1.96 1.14.52.729.812 1.718.812 2.75 0 2.148-1.241 3.89-2.772 3.89-1.53 0-2.772-1.742-2.772-3.89z" fill-rule="evenodd"/><path stroke="#595959" stroke-linejoin="round" stroke-linecap="butt" d="M208.745 179.499h0c0-2.149 1.241-3.89 2.772-3.89h0c.735 0 1.44.41 1.96 1.14.52.729.812 1.718.812 2.75h0c0 2.148-1.241 3.89-2.772 3.89h0c-1.53 0-2.772-1.742-2.772-3.89z"/><path fill="#0097a7" d="M183.325 179.499c0-2.149 1.241-3.89 2.772-3.89.735 0 1.44.41 1.96 1.14.52.729.812 1.718.812 2.75 0 2.148-1.241 3.89-2.772 3.89-1.53 0-2.772-1.742-2.772-3.89z" fill-rule="evenodd"/><path stroke="#595959" stroke-linejoin="round" stroke-linecap="butt" d="M183.325 179.499h0c0-2.149 1.241-3.89 2.772-3.89h0c.735 0 1.44.41 1.96 1.14.52.729.812 1.718.812 2.75h0c0 2.148-1.241 3.89-2.772 3.89h0c-1.53 0-2.772-1.742-2.772-3.89z"/><path fill="#0097a7" d="M214.289 139.052c0-2.148 1.24-3.89 2.771-3.89.735 0 1.44.41 1.96 1.14s.812 1.719.812 2.75c0 2.149-1.24 3.89-2.772 3.89-1.53 0-2.771-1.741-2.771-3.89z" fill-rule="evenodd"/><path stroke="#595959" stroke-linejoin="round" stroke-linecap="butt" d="M214.289 139.052h0c0-2.148 1.24-3.89 2.771-3.89h0c.735 0 1.44.41 1.96 1.14s.812 1.719.812 2.75h0c0 2.149-1.24 3.89-2.772 3.89h0c-1.53 0-2.771-1.741-2.771-3.89z"/><path fill="#0097a7" d="M160.297 139.052c0-2.148 1.24-3.89 2.771-3.89.735 0 1.44.41 1.96 1.14s.812 1.719.812 2.75c0 2.149-1.241 3.89-2.772 3.89-1.53 0-2.771-1.741-2.771-3.89z" fill-rule="evenodd"/><path stroke="#595959" stroke-linejoin="round" stroke-linecap="butt" d="M160.297 139.052h0c0-2.148 1.24-3.89 2.771-3.89h0c.735 0 1.44.41 1.96 1.14s.812 1.719.812 2.75h0c0 2.149-1.241 3.89-2.772 3.89h0c-1.53 0-2.771-1.741-2.771-3.89z"/><path fill="#e06666" d="M203.202 100.274c0-2.148 1.241-3.89 2.772-3.89.735 0 1.44.41 1.96 1.14s.811 1.719.811 2.75c0 2.149-1.24 3.89-2.771 3.89s-2.772-1.741-2.772-3.89z" fill-rule="evenodd"/><path stroke="#595959" stroke-linejoin="round" stroke-linecap="butt" d="M203.202 100.274h0c0-2.148 1.241-3.89 2.772-3.89h0c.735 0 1.44.41 1.96 1.14s.811 1.719.811 2.75h0c0 2.149-1.24 3.89-2.771 3.89h0c-1.531 0-2.772-1.741-2.772-3.89z"/><path fill="#0097a7" d="M173.732 79.608c0-2.149 1.241-3.89 2.772-3.89.735 0 1.44.41 1.96 1.14.52.729.812 1.718.812 2.75 0 2.148-1.241 3.89-2.772 3.89-1.53 0-2.772-1.742-2.772-3.89z" fill-rule="evenodd"/><path stroke="#595959" stroke-linejoin="round" stroke-linecap="butt" d="M173.732 79.608h0c0-2.149 1.241-3.89 2.772-3.89h0c.735 0 1.44.41 1.96 1.14.52.729.812 1.718.812 2.75h0c0 2.148-1.241 3.89-2.772 3.89h0c-1.53 0-2.772-1.742-2.772-3.89z"/><path fill="#e06666" d="M208.745 78.941c0-2.148 1.241-3.89 2.772-3.89.735 0 1.44.41 1.96 1.14.52.729.812 1.718.812 2.75 0 2.148-1.241 3.89-2.772 3.89-1.53 0-2.772-1.742-2.772-3.89z" fill-rule="evenodd"/><path stroke="#595959" stroke-linejoin="round" stroke-linecap="butt" d="M208.745 78.941h0c0-2.148 1.241-3.89 2.772-3.89h0c.735 0 1.44.41 1.96 1.14.52.729.812 1.718.812 2.75h0c0 2.148-1.241 3.89-2.772 3.89h0c-1.53 0-2.772-1.742-2.772-3.89z"/><path fill="#0097a7" d="M183.325 251.008c0-2.148 1.241-3.89 2.772-3.89.735 0 1.44.41 1.96 1.14.52.729.812 1.718.812 2.75 0 2.148-1.241 3.89-2.772 3.89-1.53 0-2.772-1.742-2.772-3.89z" fill-rule="evenodd"/><path stroke="#595959" stroke-linejoin="round" stroke-linecap="butt" d="M183.325 251.008h0c0-2.148 1.241-3.89 2.772-3.89h0c.735 0 1.44.41 1.96 1.14.52.729.812 1.718.812 2.75h0c0 2.148-1.241 3.89-2.772 3.89h0c-1.53 0-2.772-1.742-2.772-3.89z"/><path fill="#e06666" d="M183.325 98.606c0-2.148 1.241-3.89 2.772-3.89.735 0 1.44.41 1.96 1.14s.812 1.719.812 2.75c0 2.149-1.241 3.89-2.772 3.89-1.53 0-2.772-1.741-2.772-3.89z" fill-rule="evenodd"/><path stroke="#595959" stroke-linejoin="round" stroke-linecap="butt" d="M183.325 98.606h0c0-2.148 1.241-3.89 2.772-3.89h0c.735 0 1.44.41 1.96 1.14s.812 1.719.812 2.75h0c0 2.149-1.241 3.89-2.772 3.89h0c-1.53 0-2.772-1.741-2.772-3.89z"/><path fill="#0097a7" d="M173.732 211.937c0-2.148 1.241-3.89 2.772-3.89.735 0 1.44.41 1.96 1.14.52.729.812 1.718.812 2.75 0 2.148-1.241 3.89-2.772 3.89-1.53 0-2.772-1.742-2.772-3.89z" fill-rule="evenodd"/><path stroke="#595959" stroke-linejoin="round" stroke-linecap="butt" d="M173.732 211.937h0c0-2.148 1.241-3.89 2.772-3.89h0c.735 0 1.44.41 1.96 1.14.52.729.812 1.718.812 2.75h0c0 2.148-1.241 3.89-2.772 3.89h0c-1.53 0-2.772-1.742-2.772-3.89z"/><path fill="#0097a7" d="M188.404 244.058c0-2.149 1.241-3.89 2.772-3.89.735 0 1.44.41 1.96 1.14.52.729.812 1.718.812 2.75 0 2.148-1.241 3.89-2.772 3.89-1.53 0-2.772-1.742-2.772-3.89z" fill-rule="evenodd"/><path stroke="#595959" stroke-linejoin="round" stroke-linecap="butt" d="M188.404 244.058h0c0-2.149 1.241-3.89 2.772-3.89h0c.735 0 1.44.41 1.96 1.14.52.729.812 1.718.812 2.75h0c0 2.148-1.241 3.89-2.772 3.89h0c-1.53 0-2.772-1.742-2.772-3.89z"/><path fill="#0097a7" d="M203.856 211.937c0-2.148 1.24-3.89 2.771-3.89.735 0 1.44.41 1.96 1.14.52.729.812 1.718.812 2.75 0 2.148-1.241 3.89-2.772 3.89-1.53 0-2.771-1.742-2.771-3.89z" fill-rule="evenodd"/><path stroke="#595959" stroke-linejoin="round" stroke-linecap="butt" d="M203.856 211.937h0c0-2.148 1.24-3.89 2.771-3.89h0c.735 0 1.44.41 1.96 1.14.52.729.812 1.718.812 2.75h0c0 2.148-1.241 3.89-2.772 3.89h0c-1.53 0-2.771-1.742-2.771-3.89z"/><path fill="#0097a7" d="M188.869 261.11c0-2.148 1.24-3.89 2.771-3.89.736 0 1.44.41 1.96 1.14s.812 1.719.812 2.75c0 2.148-1.24 3.89-2.772 3.89-1.53 0-2.771-1.742-2.771-3.89z" fill-rule="evenodd"/><path stroke="#595959" stroke-linejoin="round" stroke-linecap="butt" d="M188.869 261.11h0c0-2.148 1.24-3.89 2.771-3.89h0c.736 0 1.44.41 1.96 1.14s.812 1.719.812 2.75h0c0 2.148-1.24 3.89-2.772 3.89h0c-1.53 0-2.771-1.742-2.771-3.89z"/><path fill="#0097a7" d="M184.521 74.493c0-2.148 1.24-3.89 2.772-3.89.735 0 1.44.41 1.96 1.14s.811 1.719.811 2.75c0 2.149-1.24 3.89-2.771 3.89s-2.772-1.741-2.772-3.89z" fill-rule="evenodd"/><path stroke="#595959" stroke-linejoin="round" stroke-linecap="butt" d="M184.521 74.493h0c0-2.148 1.24-3.89 2.772-3.89h0c.735 0 1.44.41 1.96 1.14s.811 1.719.811 2.75h0c0 2.149-1.24 3.89-2.771 3.89h0c-1.531 0-2.772-1.741-2.772-3.89z"/><path fill="#0097a7" d="M215.325 120.856c0-2.149 1.241-3.89 2.772-3.89.735 0 1.44.41 1.96 1.14.52.729.812 1.718.812 2.75 0 2.148-1.241 3.89-2.772 3.89-1.53 0-2.772-1.742-2.772-3.89z" fill-rule="evenodd"/><path stroke="#595959" stroke-linejoin="round" stroke-linecap="butt" d="M215.325 120.856h0c0-2.149 1.241-3.89 2.772-3.89h0c.735 0 1.44.41 1.96 1.14.52.729.812 1.718.812 2.75h0c0 2.148-1.241 3.89-2.772 3.89h0c-1.53 0-2.772-1.742-2.772-3.89z"/><path fill="#0097a7" d="M173.732 57.606c0-2.148 1.241-3.89 2.772-3.89.735 0 1.44.41 1.96 1.14s.812 1.719.812 2.75c0 2.149-1.241 3.89-2.772 3.89-1.53 0-2.772-1.741-2.772-3.89z" fill-rule="evenodd"/><path stroke="#595959" stroke-linejoin="round" stroke-linecap="butt" d="M173.732 57.606h0c0-2.148 1.241-3.89 2.772-3.89h0c.735 0 1.44.41 1.96 1.14s.812 1.719.812 2.75h0c0 2.149-1.241 3.89-2.772 3.89h0c-1.53 0-2.772-1.741-2.772-3.89z"/><path fill="#e06666" d="M203.202 57.606c0-2.148 1.241-3.89 2.772-3.89.735 0 1.44.41 1.96 1.14s.811 1.719.811 2.75c0 2.149-1.24 3.89-2.771 3.89s-2.772-1.741-2.772-3.89z" fill-rule="evenodd"/><path stroke="#595959" stroke-linejoin="round" stroke-linecap="butt" d="M203.202 57.606h0c0-2.148 1.241-3.89 2.772-3.89h0c.735 0 1.44.41 1.96 1.14s.811 1.719.811 2.75h0c0 2.149-1.24 3.89-2.771 3.89h0c-1.531 0-2.772-1.741-2.772-3.89z"/><path d="M43.738 40.386h335.559"/><path stroke="#595959" stroke-linejoin="round" stroke-linecap="butt" d="M43.738 40.386h335.559"/><path d="M233.74 10.567h156.441v39.496h-156.44z"/><path fill="#000" d="M249.959 34.724q0 .062-.031.11-.016.046-.094.077-.063.032-.172.047-.11.016-.266.016-.156 0-.265-.016-.11-.015-.188-.047-.062-.03-.093-.078-.032-.047-.032-.11v-.921q-.562.594-1.156.937-.594.344-1.312.344-.766 0-1.313-.297-.547-.312-.89-.828-.344-.515-.5-1.203-.157-.687-.157-1.453 0-.906.188-1.64.203-.735.578-1.25.39-.516.953-.782.578-.281 1.312-.281.625 0 1.125.265.516.266 1.016.797v-4.093q0-.047.031-.094.032-.063.11-.078.078-.032.187-.047.125-.031.313-.031.203 0 .328.03.125.016.187.048.078.015.11.078.03.047.03.094v10.406zm-1.297-4.938q-.516-.656-1.016-.984-.484-.344-1.015-.344-.485 0-.828.235-.344.234-.563.625-.219.375-.312.859-.094.484-.094.984 0 .532.078 1.047.078.5.281.89.203.391.532.641.343.235.859.235.25 0 .484-.063.25-.078.5-.234.25-.172.516-.438.281-.265.578-.64v-2.813zm9.688 1.125q0 .297-.157.438-.156.125-.343.125h-4.61q0 .578.11 1.047.125.468.39.812.281.328.719.516.437.172 1.062.172.5 0 .891-.078.39-.079.672-.172.297-.11.469-.188.187-.094.28-.094.063 0 .095.032.047.03.062.093.031.047.047.141.016.094.016.234 0 .11-.016.188 0 .062-.016.125-.015.062-.046.11-.016.046-.063.093-.047.031-.266.14-.203.094-.546.188-.329.094-.766.172-.438.078-.938.078-.875 0-1.53-.25-.641-.25-1.095-.719-.437-.484-.671-1.203-.22-.718-.22-1.672 0-.906.235-1.625.235-.718.672-1.218.438-.516 1.063-.782.625-.265 1.406-.265.828 0 1.406.265.578.266.953.72.375.437.547 1.046.188.61.188 1.297v.234zm-1.297-.39q.015-1.016-.453-1.594-.47-.578-1.407-.578-.468 0-.828.187-.36.172-.61.47-.234.296-.374.702-.125.39-.14.813h3.812zm7.664 2.297q0 .53-.203.953-.188.422-.563.718-.36.282-.875.438-.5.156-1.11.156-.374 0-.718-.062-.344-.063-.61-.157-.265-.093-.453-.187-.187-.094-.28-.172-.079-.078-.126-.219-.031-.14-.031-.39 0-.14.016-.235.015-.11.03-.172.032-.062.063-.093.047-.032.11-.032.078 0 .25.11t.406.234q.25.125.578.235.344.093.781.093.328 0 .594-.062.266-.078.453-.203.203-.14.313-.344.11-.219.11-.516 0-.297-.157-.5-.156-.203-.406-.36-.25-.155-.563-.265-.312-.125-.64-.25-.329-.14-.657-.312-.312-.172-.562-.406-.25-.25-.407-.579-.14-.343-.14-.812 0-.406.156-.781.156-.39.469-.672.328-.281.812-.453.485-.172 1.125-.172.282 0 .563.047.281.047.5.125.234.062.39.14.157.078.235.14.094.063.11.11.03.047.046.11.016.062.016.156.015.078.015.203t-.015.234q0 .094-.032.157-.03.062-.078.093-.03.016-.078.016-.062 0-.203-.078-.125-.094-.344-.188-.203-.093-.5-.171-.28-.094-.64-.094-.328 0-.578.078-.25.062-.422.203-.157.14-.235.328-.078.188-.078.406 0 .297.156.516.157.203.407.36.25.156.562.28.328.126.656.266.329.125.657.297.328.156.578.39.25.235.39.563.157.328.157.782zm8.32-1.72q0 .923-.203 1.657t-.594 1.25q-.375.516-.953.797-.562.281-1.297.281-.312 0-.578-.062-.266-.063-.531-.203-.25-.141-.5-.344-.25-.203-.531-.469v3.516q0 .062-.032.11-.031.046-.11.077-.062.031-.187.047t-.312.016q-.188 0-.313-.016t-.203-.047q-.078-.031-.11-.078-.015-.047-.015-.11v-9.827q0-.063.016-.11.031-.047.094-.078.078-.031.187-.031.11-.016.266-.016.156 0 .265.016.11 0 .172.031.078.031.094.078.031.047.031.11v.953q.328-.328.625-.563.297-.25.594-.406.297-.172.61-.25.328-.078.671-.078.766 0 1.297.297.547.297.89.812.345.516.5 1.203.157.672.157 1.438zm-1.36.157q0-.547-.093-1.047-.078-.5-.281-.89-.188-.391-.532-.625-.328-.235-.828-.235-.25 0-.5.078-.234.063-.484.235-.25.156-.531.422-.266.25-.578.64v2.797q.53.64 1 .984.484.344 1.015.344.485 0 .828-.234.344-.235.563-.625.219-.39.312-.875.11-.485.11-.969zm9.298-.344q0 .297-.157.438-.156.125-.343.125h-4.61q0 .578.11 1.047.125.468.39.812.281.328.719.516.437.172 1.062.172.5 0 .891-.078.39-.079.672-.172.297-.11.469-.188.187-.094.28-.094.063 0 .095.032.047.03.062.093.031.047.047.141.016.094.016.234 0 .11-.016.188 0 .062-.016.125-.015.062-.046.11-.016.046-.063.093-.047.031-.266.14-.203.094-.546.188-.329.094-.766.172-.438.078-.938.078-.875 0-1.53-.25-.641-.25-1.095-.719-.437-.484-.671-1.203-.22-.718-.22-1.672 0-.906.235-1.625.235-.718.672-1.218.438-.516 1.063-.782.625-.265 1.406-.265.828 0 1.406.265.578.266.953.72.375.437.547 1.046.188.61.188 1.297v.234zm-1.297-.39q.015-1.016-.453-1.594-.47-.578-1.407-.578-.468 0-.828.187-.36.172-.61.47-.234.296-.374.702-.125.39-.14.813h3.812zm7.367-2.36q0 .172-.016.297 0 .11-.031.172-.016.063-.063.11-.03.03-.093.03t-.157-.03q-.078-.047-.203-.079-.109-.03-.25-.062-.14-.031-.297-.031-.203 0-.39.078-.188.078-.39.265-.204.172-.438.47-.219.296-.5.718v4.625q0 .062-.032.11-.03.046-.109.077-.062.032-.187.047-.125.016-.313.016-.187 0-.312-.016-.125-.015-.204-.047-.078-.03-.109-.078-.016-.047-.016-.11v-7.03q0-.063.016-.094.031-.047.094-.078.078-.047.187-.047.11-.016.282-.016.171 0 .28.016.126 0 .188.047.063.03.078.078.032.031.032.094v1.03q.297-.421.547-.687.25-.265.468-.422.235-.156.453-.203.235-.062.454-.062.109 0 .234.015.125 0 .266.032.14.03.25.078.125.031.171.078.047.031.063.078.016.031.016.094.015.047.015.156.016.094.016.281zm6.765 6.578q0 .094-.062.141-.063.047-.172.063-.11.03-.328.03-.203 0-.328-.03-.11-.016-.172-.063-.047-.047-.047-.14v-.704q-.469.485-1.031.766-.563.281-1.203.281-.547 0-1-.156-.453-.14-.766-.406-.312-.282-.5-.672-.172-.406-.172-.922 0-.594.235-1.031.25-.438.703-.72.453-.296 1.11-.437.655-.14 1.483-.14h.97v-.547q0-.406-.095-.719-.078-.312-.28-.515-.188-.22-.5-.313-.298-.11-.735-.11-.485 0-.86.11t-.671.25q-.282.14-.47.25-.187.11-.28.11-.063 0-.11-.032-.047-.031-.094-.094-.03-.062-.046-.156t-.016-.219q0-.187.031-.296.031-.125.125-.22.11-.109.36-.234.265-.14.593-.25.344-.125.735-.187.406-.078.812-.078.766 0 1.297.172.531.172.86.5.328.328.468.828.156.484.156 1.14v4.75zm-1.28-3.218h-1.11q-.531 0-.922.093-.39.094-.656.266-.25.172-.375.422-.11.25-.11.562 0 .547.344.875.344.329.969.329.515 0 .937-.25.438-.266.922-.797v-1.5zm7.304 2.687q0 .235-.031.375-.032.125-.094.188-.063.062-.188.125-.125.047-.296.078-.157.047-.344.062-.172.032-.344.032-.547 0-.937-.141-.391-.156-.641-.453-.25-.297-.375-.735-.11-.453-.11-1.062v-4.11h-.984q-.11 0-.187-.124-.063-.125-.063-.407 0-.156.016-.25.015-.11.047-.172.03-.062.078-.093.062-.032.125-.032h.969v-1.671q0-.047.03-.094.032-.047.095-.078.078-.047.203-.063.125-.015.312-.015.203 0 .328.015.125.016.188.063.078.03.11.078.03.047.03.094v1.671h1.797q.063 0 .11.032.047.03.078.093.047.063.062.172.016.094.016.25 0 .282-.078.407-.063.125-.188.125h-1.797v3.921q0 .72.204 1.094.218.375.78.375.173 0 .313-.031.14-.047.25-.078.11-.047.188-.078.078-.032.14-.032.047 0 .079.016.03.016.046.078.032.047.047.14.016.095.016.235zm7.703-3.297q0 .297-.156.438-.156.125-.344.125h-4.61q0 .578.11 1.047.125.468.39.812.282.328.72.516.437.172 1.062.172.5 0 .89-.078.391-.079.672-.172.297-.11.47-.188.187-.094.28-.094.063 0 .094.032.047.03.063.093.03.047.047.141.015.094.015.234 0 .11-.015.188 0 .062-.016.125-.016.062-.047.11-.016.046-.062.093-.047.031-.266.14-.203.094-.547.188-.328.094-.766.172-.437.078-.937.078-.875 0-1.531-.25-.641-.25-1.094-.719-.438-.484-.672-1.203-.219-.718-.219-1.672 0-.906.235-1.625.234-.718.672-1.218.437-.516 1.062-.782.625-.265 1.406-.265.828 0 1.407.265.578.266.953.72.375.437.547 1.046.187.61.187 1.297v.234zm-1.297-.39q.016-1.016-.453-1.594-.469-.578-1.406-.578-.469 0-.828.187-.36.172-.61.47-.234.296-.375.702-.125.39-.14.813h3.812zm4.54 4.203q0 .062-.032.11-.031.046-.11.077-.062.032-.187.047-.125.016-.312.016-.188 0-.313-.016-.125-.015-.203-.047-.078-.03-.11-.078-.015-.047-.015-.11V24.287q0-.062.016-.11.03-.046.109-.077.078-.031.203-.047t.313-.016q.187 0 .312.016t.188.047q.078.031.109.078t.031.11v10.437zm5.593.203l-.938 2.594q-.046.125-.25.187-.187.063-.578.063-.203 0-.328-.016t-.187-.062q-.063-.047-.078-.125 0-.079.046-.188l.97-2.453q-.079-.031-.141-.094-.063-.078-.079-.156l-2.515-6.719q-.063-.172-.063-.265 0-.094.063-.141.062-.063.203-.078.14-.016.375-.016.234 0 .36.016.14 0 .218.031.078.031.11.094.046.062.078.156l2.015 5.64h.016l1.937-5.671q.047-.14.11-.188.078-.047.203-.062.14-.016.39-.016.22 0 .36.016.14.015.203.078.062.047.062.14 0 .094-.046.235l-2.516 7zm11.5-10.125q0 .156-.016.25-.015.078-.03.14-.017.047-.048.079-.031.015-.078.015-.062 0-.14-.03-.079-.048-.204-.08-.109-.046-.28-.077-.157-.047-.36-.047-.297 0-.5.094-.203.093-.328.297-.125.203-.188.515-.047.313-.047.766v.765h1.578q.063 0 .094.032.047.03.078.093.047.063.063.172.015.094.015.25 0 .282-.078.407-.062.125-.172.125h-1.578v6.156q0 .062-.031.11-.031.046-.11.077-.062.032-.187.047-.125.016-.312.016-.188 0-.313-.016-.125-.015-.203-.047-.078-.03-.11-.078-.03-.047-.03-.11v-6.155h-.985q-.125 0-.188-.125-.062-.125-.062-.407 0-.156.016-.25.015-.11.046-.172.032-.062.079-.093.046-.032.109-.032h.984v-.718q0-.735.141-1.266.14-.531.422-.86.281-.343.703-.5.422-.156 1-.156.281 0 .531.047.266.047.406.11.141.062.188.11.047.046.078.124.031.063.031.172.016.11.016.25zm7.055 9.922q0 .062-.032.11-.015.046-.093.077-.063.032-.188.047-.11.016-.265.016-.188 0-.297-.016-.11-.015-.188-.047-.062-.03-.094-.078-.015-.047-.015-.11v-.921q-.594.656-1.188.969-.578.312-1.187.312-.703 0-1.188-.234-.468-.25-.765-.64-.297-.407-.438-.938-.125-.547-.125-1.313v-4.265q0-.063.031-.094.032-.047.11-.078.078-.047.203-.047.125-.016.312-.016.188 0 .313.016.125 0 .187.047.079.03.11.078.031.031.031.094v4.093q0 .625.094 1 .094.36.265.625.188.266.47.407.28.14.655.14.485 0 .97-.344.484-.343 1.015-1v-4.921q0-.063.031-.094.031-.047.11-.078.078-.047.187-.047.125-.016.328-.016.188 0 .313.016.125 0 .187.047.078.03.11.078.03.031.03.094v7.03zm3.672 0q0 .062-.032.11-.031.046-.11.077-.062.032-.187.047-.125.016-.312.016-.188 0-.313-.016-.125-.015-.203-.047-.078-.03-.11-.078-.015-.047-.015-.11V24.287q0-.062.016-.11.031-.046.11-.077.077-.031.202-.047t.313-.016q.187 0 .312.016t.188.047q.078.031.11.078.03.047.03.11v10.437zm3.671 0q0 .062-.03.11-.032.046-.11.077-.063.032-.188.047-.125.016-.312.016-.188 0-.313-.016-.125-.015-.203-.047-.078-.03-.11-.078-.015-.047-.015-.11V24.287q0-.062.016-.11.031-.046.11-.077.077-.031.202-.047t.313-.016q.187 0 .312.016t.188.047q.078.031.11.078.03.047.03.11v10.437zm10.118-6.563q0 .172-.016.297 0 .11-.031.172-.016.063-.063.11-.031.03-.094.03-.062 0-.156-.03-.078-.047-.203-.079-.11-.03-.25-.062-.14-.031-.297-.031-.203 0-.39.078-.188.078-.391.265-.203.172-.438.47-.218.296-.5.718v4.625q0 .062-.03.11-.032.046-.11.077-.063.032-.188.047-.125.016-.312.016-.188 0-.313-.016-.125-.015-.203-.047-.078-.03-.11-.078-.015-.047-.015-.11v-7.03q0-.063.016-.094.031-.047.094-.078.078-.047.187-.047.11-.016.281-.016.172 0 .282.016.125 0 .187.047.063.03.078.078.031.031.031.094v1.03q.297-.421.547-.687.25-.265.47-.422.233-.156.452-.203.235-.062.453-.062.11 0 .235.015.125 0 .265.032.141.03.25.078.125.031.172.078.047.031.063.078.015.031.015.094.016.047.016.156.016.094.016.281zm5.875 4.657q0 .53-.204.953-.187.422-.562.718-.36.282-.875.438-.5.156-1.11.156-.374 0-.718-.062-.344-.063-.61-.157-.265-.093-.453-.187-.187-.094-.28-.172-.079-.078-.126-.219-.031-.14-.031-.39 0-.14.015-.235.016-.11.032-.172.031-.062.062-.093.047-.032.11-.032.078 0 .25.11.171.11.406.234.25.125.578.235.344.093.781.093.328 0 .594-.062.266-.078.453-.203.203-.14.313-.344.109-.219.109-.516 0-.297-.156-.5-.157-.203-.407-.36-.25-.155-.562-.265-.313-.125-.64-.25-.329-.14-.657-.312-.312-.172-.562-.406-.25-.25-.407-.579-.14-.343-.14-.812 0-.406.156-.781.156-.39.469-.672.328-.281.812-.453.485-.172 1.125-.172.281 0 .563.047.281.047.5.125.234.062.39.14.157.078.235.14.093.063.11.11.03.047.046.11.016.062.016.156.015.078.015.203t-.015.234q0 .094-.032.157-.03.062-.078.093-.031.016-.078.016-.062 0-.203-.078-.125-.094-.344-.188-.203-.093-.5-.171-.281-.094-.64-.094-.329 0-.579.078-.25.062-.421.203-.157.14-.235.328-.078.188-.078.406 0 .297.156.516.157.203.407.36.25.156.562.28.328.126.656.266.328.125.657.297.328.156.578.39.25.235.39.563.157.328.157.782zm7.851-1.907q0 .297-.156.438-.156.125-.344.125h-4.61q0 .578.11 1.047.125.468.39.812.282.328.72.516.437.172 1.062.172.5 0 .89-.078.391-.079.673-.172.296-.11.468-.188.188-.094.282-.094.062 0 .093.032.047.03.063.093.031.047.047.141.015.094.015.234 0 .11-.015.188 0 .062-.016.125-.016.062-.047.11-.015.046-.062.093-.047.031-.266.14-.203.094-.547.188-.328.094-.765.172-.438.078-.938.078-.875 0-1.531-.25-.64-.25-1.094-.719-.437-.484-.672-1.203-.219-.718-.219-1.672 0-.906.235-1.625.234-.718.672-1.218.437-.516 1.062-.782.625-.265 1.406-.265.829 0 1.407.265.578.266.953.72.375.437.547 1.046.187.61.187 1.297v.234zm-1.297-.39q.016-1.016-.453-1.594-.469-.578-1.406-.578-.469 0-.828.187-.36.172-.61.47-.234.296-.375.702-.125.39-.14.813h3.812zm7.664 2.297q0 .53-.203.953-.187.422-.562.718-.36.282-.875.438-.5.156-1.11.156-.375 0-.718-.062-.344-.063-.61-.157-.265-.093-.453-.187-.187-.094-.281-.172-.078-.078-.125-.219-.031-.14-.031-.39 0-.14.015-.235.016-.11.031-.172.032-.062.063-.093.047-.032.11-.032.077 0 .25.11.171.11.406.234.25.125.578.235.343.093.781.093.328 0 .594-.062.265-.078.453-.203.203-.14.312-.344.11-.219.11-.516 0-.297-.157-.5-.156-.203-.406-.36-.25-.155-.562-.265-.313-.125-.64-.25-.329-.14-.657-.312-.313-.172-.563-.406-.25-.25-.406-.579-.14-.343-.14-.812 0-.406.156-.781.156-.39.468-.672.329-.281.813-.453.484-.172 1.125-.172.281 0 .562.047.282.047.5.125.235.062.391.14.156.078.234.14.094.063.11.11.031.047.047.11.015.062.015.156.016.078.016.203t-.016.234q0 .094-.03.157-.032.062-.079.093-.031.016-.078.016-.063 0-.203-.078-.125-.094-.344-.188-.203-.093-.5-.171-.281-.094-.64-.094-.329 0-.579.078-.25.062-.422.203-.156.14-.234.328-.078.188-.078.406 0 .297.156.516.156.203.406.36.25.156.563.28.328.126.656.266.328.125.656.297.328.156.578.39.25.235.391.563.156.328.156.782z"/><path d="M158.945 67.543c0-10.906 7.861-19.748 17.559-19.748 4.657 0 9.123 2.08 12.416 5.784 3.293 3.704 5.143 8.727 5.143 13.964 0 10.907-7.861 19.748-17.56 19.748-9.697 0-17.558-8.841-17.558-19.748z"/><path stroke="#595959" stroke-linejoin="round" stroke-linecap="butt" d="M158.945 67.543h0c0-10.906 7.861-19.748 17.559-19.748h0c4.657 0 9.123 2.08 12.416 5.784 3.293 3.704 5.143 8.727 5.143 13.964h0c0 10.907-7.861 19.748-17.56 19.748h0c-9.697 0-17.558-8.841-17.558-19.748z"/><path d="M173.732 251.008c0-10.907 7.862-19.748 17.56-19.748 4.656 0 9.123 2.08 12.415 5.784 3.293 3.703 5.143 8.726 5.143 13.964 0 10.906-7.861 19.748-17.559 19.748-9.697 0-17.559-8.842-17.559-19.748z"/><path stroke="#595959" stroke-linejoin="round" stroke-linecap="butt" d="M173.732 251.008h0c0-10.907 7.862-19.748 17.56-19.748h0c4.656 0 9.123 2.08 12.415 5.784 3.293 3.703 5.143 8.726 5.143 13.964h0c0 10.906-7.861 19.748-17.559 19.748h0c-9.697 0-17.559-8.842-17.559-19.748z"/><path d="M158.945 67.543c-12.5 0-26.85 45.866-25 91.733 1.85 45.866 19.901 91.732 39.803 91.732"/><path stroke="#0097a7" stroke-width="2" stroke-linejoin="round" stroke-linecap="butt" d="M158.945 67.543c-12.5 0-26.85 45.866-25 91.733 1.85 45.866 19.901 91.732 39.803 91.732"/><path d="M130.178 252.841l-21.449-53.48 39.213-15.717 21.449 53.48z"/><path fill="#0097a7" d="M142.893 229.43q.856-.343 1.628-.433.757-.085 1.396.08.618.156 1.103.568.465.403.732 1.07.128.319.172.638.052.299.027.612-.04.32-.145.647-.119.334-.319.717l.711-.285q.073-.029.148-.009.076.02.154.09.064.076.142.23.073.138.16.356.093.232.137.383.044.15.055.264-.008.104-.049.171-.046.052-.119.081l-9.543 3.825q-.073.03-.148.01-.075-.021-.145-.111-.09-.099-.174-.267-.1-.162-.204-.423-.11-.276-.151-.461-.056-.18-.053-.3-.011-.112.03-.18.04-.066.112-.095l3.583-1.436q-.346-.148-.619-.324-.273-.177-.488-.377-.215-.2-.363-.444-.162-.238-.279-.528-.29-.725-.198-1.334.086-.624.457-1.126.35-.51.945-.918.58-.4 1.305-.691zm.887 1.833q-.42.169-.768.392-.369.215-.595.491-.246.267-.321.583-.081.302.07.68.07.173.197.324.114.157.32.293.191.142.476.263.264.113.641.215l2.147-.86q.336-.59.457-1.042.107-.447-.05-.839-.14-.348-.412-.525-.288-.17-.642-.214-.36-.058-.751.015-.406.079-.769.224zm-4.083-9.802q.856-.343 1.628-.433.757-.085 1.396.08.618.156 1.103.568.465.403.732 1.07.128.319.172.638.052.299.026.612-.04.32-.144.647-.119.334-.319.717l.711-.285q.073-.029.148-.009.076.02.154.09.064.076.142.23.073.138.16.356.093.232.137.383.044.15.055.264-.008.104-.049.171-.046.052-.119.081l-9.543 3.825q-.073.03-.148.01-.075-.021-.145-.111-.09-.099-.175-.267-.098-.162-.203-.423-.11-.276-.151-.461-.056-.18-.053-.3-.012-.112.03-.18.04-.066.112-.095l3.582-1.436q-.345-.147-.618-.324-.273-.177-.488-.377-.215-.2-.363-.444-.162-.237-.279-.527-.29-.726-.198-1.335.086-.624.457-1.126.35-.51.945-.917.58-.401 1.305-.692zm.887 1.833q-.42.169-.768.392-.369.215-.595.491-.246.267-.321.583-.081.302.07.68.07.173.197.324.114.157.32.293.191.142.476.264.264.113.641.214l2.147-.86q.336-.59.457-1.042.107-.447-.05-.839-.14-.348-.412-.525-.288-.17-.642-.214-.36-.058-.751.015-.406.079-.769.224zm-2.899-9.872q.638-.256 1.233-.242.58.02 1.103.315.523.296.967.859.43.568.762 1.394.32.798.39 1.477.079.658-.063 1.187-.142.528-.51.911-.383.389-.963.622-.406.162-.8.186-.395.023-.793-.087-.403-.124-.804-.368-.4-.243-.833-.608-.052.458-.162.856-.115.383-.304.71-.208.32-.495.57-.293.235-.685.392-.566.227-1.097.204-.545-.017-1.036-.275-.505-.252-.917-.777-.427-.519-.741-1.302-.315-.783-.362-1.404-.061-.615.104-1.085.16-.485.524-.833.351-.343.859-.546.348-.14.714-.152.365-.011.737.075.371.087.754.287.378.185.732.481.052-.543.173-.995.122-.453.333-.807.206-.369.507-.624.282-.264.673-.421zm-3.71 3.928q-.247.099-.421.253-.174.153-.255.371-.087.203-.066.464.02.261.142.566.245.61.657.797.392.18.885-.018.232-.093.406-.247.16-.148.27-.377.11-.23.185-.546.054-.325.103-.748-.534-.409-.992-.545-.48-.145-.914.03zm4.597-2.095q-.261.104-.444.279-.197.18-.304.458-.127.27-.185.63-.072.365-.11.818.323.258.616.444.273.176.546.269.252.084.519.078.252 0 .499-.1.566-.226.725-.71.139-.494-.152-1.219-.285-.71-.73-.936-.443-.226-.98-.011z"/><path d="M45.96 288.165l243.34 1.575"/><path stroke="#595959" stroke-width="3" stroke-linejoin="round" stroke-linecap="butt" d="M45.96 288.165l243.34 1.575"/><path d="M220.869 257.769h57.606v39.496H220.87z"/><path fill="#000" d="M236.244 277.017q0 .328-.031.531-.016.204-.047.329-.032.109-.094.156-.063.047-.156.047-.078 0-.172-.032-.078-.03-.203-.062-.11-.031-.25-.063-.125-.046-.297-.046-.188 0-.375.078-.188.078-.406.25-.204.156-.422.437-.22.266-.485.672v5.063q0 .093-.062.171-.047.063-.188.11-.125.047-.343.062-.22.016-.547.016-.344 0-.563-.016-.219-.015-.36-.062-.124-.047-.187-.11-.047-.078-.047-.171v-8.125q0-.094.047-.157.047-.062.157-.11.125-.046.312-.062.188-.03.469-.03.297 0 .484.03.203.016.297.063.11.047.156.11.047.062.047.156v1.015q.313-.453.594-.75.281-.297.531-.469.266-.171.516-.234.265-.078.515-.078.125 0 .25.016.141.015.282.046.156.032.265.079.11.03.157.078.046.047.062.109.031.047.047.14.016.094.031.298.016.187.016.515zm7.131 5.063q0 .703-.265 1.234-.266.516-.735.875-.468.36-1.125.531-.64.172-1.39.172-.469 0-.89-.062-.407-.063-.735-.172-.328-.11-.547-.219-.219-.11-.313-.203-.093-.094-.156-.297-.047-.203-.047-.61 0-.265.016-.421.016-.156.047-.25.047-.094.094-.125.062-.047.14-.047.094 0 .281.125.204.11.5.25.297.14.672.266.391.109.891.109.297 0 .531-.063.25-.062.422-.187.188-.125.281-.297.094-.187.094-.422 0-.281-.172-.469-.172-.203-.453-.343-.266-.141-.625-.266-.344-.14-.719-.281-.359-.156-.718-.36-.344-.203-.625-.484-.282-.297-.454-.703-.171-.422-.171-1 0-.578.234-1.063.234-.484.656-.828.422-.36 1.031-.547.625-.187 1.391-.187.39 0 .75.062.36.047.64.125.298.079.5.188.204.094.282.156.094.063.125.14.031.063.047.157.031.094.031.234.016.141.016.36 0 .25-.016.406 0 .14-.031.234t-.094.125q-.047.032-.125.032t-.25-.094q-.172-.094-.437-.203-.266-.11-.61-.203-.328-.094-.765-.094-.313 0-.547.062-.219.063-.375.188-.14.11-.219.266-.063.156-.063.343 0 .282.172.485.172.187.453.328.282.14.641.281.36.125.719.281.375.14.734.344.36.188.64.484.282.297.454.704.187.406.187.953zm9.224-2q0 .422-.187.625-.188.187-.516.187h-4.953q0 .531.125.953.125.422.39.719.282.297.704.453.422.156 1.015.156.594 0 1.047-.078.453-.093.781-.203.344-.11.563-.187.219-.094.36-.094.077 0 .124.031.063.031.094.125.047.078.047.235.016.14.016.359 0 .203-.016.344 0 .14-.016.25-.015.093-.062.172-.031.062-.094.125-.047.062-.312.171-.266.11-.688.22-.406.093-.937.171-.516.078-1.125.078-1.079 0-1.891-.265-.813-.282-1.36-.829-.546-.562-.828-1.406-.265-.844-.265-1.984 0-1.078.281-1.953t.813-1.47q.546-.608 1.312-.921.781-.328 1.734-.328 1.032 0 1.75.297.72.297 1.188.844.469.53.687 1.265.22.719.22 1.578v.36zm-2.219-.657q.016-.968-.406-1.515-.406-.547-1.265-.547-.438 0-.766.172-.313.156-.531.437-.22.266-.328.657-.11.375-.141.796h3.437zm9.83 2.657q0 .703-.266 1.234-.265.516-.734.875-.469.36-1.125.531-.64.172-1.39.172-.47 0-.891-.062-.407-.063-.735-.172-.328-.11-.547-.219-.218-.11-.312-.203-.094-.094-.156-.297-.047-.203-.047-.61 0-.265.015-.421.016-.156.047-.25.047-.094.094-.125.062-.047.14-.047.094 0 .282.125.203.11.5.25t.672.266q.39.109.89.109.297 0 .532-.063.25-.062.421-.187.188-.125.282-.297.093-.187.093-.422 0-.281-.171-.469-.172-.203-.454-.343-.265-.141-.625-.266-.343-.14-.718-.281-.36-.156-.72-.36-.343-.203-.624-.484-.281-.297-.453-.703-.172-.422-.172-1 0-.578.234-1.063.235-.484.657-.828.421-.36 1.03-.547.626-.187 1.391-.187.391 0 .75.062.36.047.641.125.297.079.5.188.203.094.281.156.094.063.125.14.032.063.047.157.031.094.031.234.016.141.016.36 0 .25-.016.406 0 .14-.03.234-.032.094-.095.125-.046.032-.125.032-.078 0-.25-.094-.171-.094-.437-.203-.266-.11-.61-.203-.328-.094-.765-.094-.313 0-.547.062-.219.063-.375.188-.14.11-.219.266-.062.156-.062.343 0 .282.172.485.172.187.453.328.281.14.64.281.36.125.72.281.374.14.734.344.359.188.64.484.281.297.453.704.188.406.188.953z"/><path d="M228.971 59.86h150.33v39.497h-150.33z"/><path fill="#000" d="M243.58 82.112q0 .53-.203.953-.187.422-.562.718-.36.282-.875.438-.5.156-1.11.156-.375 0-.718-.062-.344-.063-.61-.157-.265-.093-.453-.187-.187-.094-.281-.172-.078-.078-.125-.219-.031-.14-.031-.39 0-.141.015-.235.016-.11.032-.172.03-.062.062-.093.047-.032.11-.032.078 0 .25.11.171.11.406.234.25.125.578.235.344.093.781.093.328 0 .594-.062.266-.078.453-.203.203-.141.313-.344.109-.219.109-.516 0-.297-.156-.5-.157-.203-.407-.36-.25-.155-.562-.265-.313-.125-.64-.25-.329-.14-.657-.312-.313-.172-.563-.406-.25-.25-.406-.579-.14-.343-.14-.812 0-.406.156-.781.156-.391.469-.672.328-.281.812-.453.484-.172 1.125-.172.281 0 .563.047.28.047.5.125.234.062.39.14.156.078.235.14.093.063.109.11.031.047.047.11.016.062.016.156.015.078.015.203t-.016.234q0 .094-.03.157-.032.062-.079.093-.031.016-.078.016-.063 0-.203-.078-.125-.094-.344-.188-.203-.093-.5-.171-.281-.094-.64-.094-.329 0-.579.078-.25.062-.422.203-.156.14-.234.328-.078.188-.078.406 0 .297.156.516.156.203.406.36.25.156.563.28.328.126.656.266.328.125.656.297.329.156.579.39.25.235.39.563.156.328.156.782zm5.961-4.657q0 .172-.015.297 0 .11-.031.172-.016.063-.063.11-.031.03-.094.03-.062 0-.156-.03-.078-.047-.203-.079-.11-.031-.25-.062t-.297-.031q-.203 0-.39.078-.188.078-.391.265-.203.172-.438.469-.218.297-.5.719v4.625q0 .062-.03.11-.032.046-.11.077-.063.032-.188.047-.125.016-.312.016-.188 0-.313-.016-.125-.015-.203-.047-.078-.031-.11-.078-.015-.047-.015-.11v-7.03q0-.063.016-.094.03-.047.093-.078.079-.047.188-.047.11-.016.281-.016.172 0 .281.016.125 0 .188.047.062.03.078.078.031.031.031.094v1.03q.297-.421.547-.687.25-.265.469-.422.234-.156.453-.203.234-.062.453-.062.11 0 .235.015.125 0 .265.032.14.03.25.078.125.031.172.078.047.031.063.078.015.031.015.094.016.047.016.156.015.094.015.281zm6.516 5.5q0 .125-.016.235 0 .093-.015.156-.016.062-.047.125-.031.047-.125.14-.094.094-.328.25-.235.141-.531.266-.297.11-.641.172-.344.078-.703.078-.766 0-1.36-.25-.578-.265-.968-.734-.39-.485-.61-1.188-.203-.703-.203-1.61 0-1.046.25-1.78.266-.75.703-1.22.438-.483 1.032-.718.609-.234 1.296-.234.344 0 .657.062.312.063.578.172.265.094.469.235.218.125.312.218.094.094.125.157.031.046.047.125.031.078.031.171.016.094.016.235 0 .297-.078.422-.063.125-.157.125-.125 0-.28-.125-.141-.141-.376-.297-.234-.156-.578-.281-.328-.125-.781-.125-.922 0-1.422.718-.5.703-.5 2.063 0 .687.125 1.203.14.5.39.844.25.343.61.515t.828.172q.453 0 .781-.14.344-.141.578-.313.25-.172.422-.297.172-.14.266-.14.047 0 .078.03.047.032.078.11.031.063.031.188.016.109.016.265zm10.383 0q0 .125-.016.235 0 .093-.015.156-.016.062-.047.125-.031.047-.125.14-.094.094-.328.25-.235.141-.532.266-.296.11-.64.172-.344.078-.703.078-.766 0-1.36-.25-.578-.265-.968-.734-.391-.485-.61-1.188-.203-.703-.203-1.61 0-1.046.25-1.78.266-.75.703-1.22.438-.483 1.031-.718.61-.234 1.297-.234.344 0 .657.062.312.063.578.172.265.094.468.235.22.125.313.218.094.094.125.157.031.046.047.125.031.078.031.171.016.094.016.235 0 .297-.078.422-.063.125-.157.125-.125 0-.281-.125-.14-.141-.375-.297-.234-.156-.578-.281-.328-.125-.781-.125-.922 0-1.422.718-.5.703-.5 2.063 0 .687.125 1.203.14.5.39.844.25.343.61.515t.828.172q.453 0 .781-.14.344-.141.578-.313.25-.172.422-.297.172-.14.266-.14.047 0 .078.03.047.032.078.11.031.063.031.188.016.109.016.265zm7.016 1.078q0 .094-.063.141-.062.047-.172.063-.11.03-.328.03-.203 0-.328-.03-.11-.016-.172-.063-.047-.047-.047-.14v-.704q-.469.485-1.031.766-.563.281-1.203.281-.547 0-1-.156-.453-.14-.766-.406-.312-.282-.5-.672-.172-.406-.172-.922 0-.594.235-1.031.25-.438.703-.72.453-.296 1.11-.437.655-.14 1.484-.14h.968v-.547q0-.406-.093-.719-.079-.312-.282-.515-.187-.22-.5-.313-.297-.11-.734-.11-.484 0-.86.11-.374.11-.671.25-.282.14-.47.25-.187.11-.28.11-.063 0-.11-.032-.047-.031-.093-.094-.032-.062-.047-.156-.016-.094-.016-.219 0-.187.031-.296.032-.125.125-.22.11-.109.36-.234.265-.14.593-.25.344-.125.735-.187.406-.078.812-.078.766 0 1.297.172.531.172.86.5.328.328.468.828.157.484.157 1.14v4.75zm-1.282-3.218h-1.11q-.53 0-.921.093-.39.094-.656.266-.25.172-.375.422-.11.25-.11.562 0 .547.344.875.344.329.969.329.516 0 .937-.25.438-.266.922-.797v-1.5zm9.696 3.203q0 .062-.032.11-.03.046-.11.077-.062.032-.187.047-.125.016-.312.016-.188 0-.313-.016-.125-.015-.203-.047-.062-.031-.093-.078-.032-.047-.032-.11v-4.109q0-.609-.093-.968-.094-.375-.282-.641-.172-.266-.468-.406-.282-.14-.657-.14-.484 0-.968.343-.485.344-1.016 1.016v4.906q0 .062-.031.11-.032.046-.11.077-.062.032-.187.047-.125.016-.313.016-.187 0-.312-.016-.125-.015-.203-.047-.078-.031-.11-.078-.015-.047-.015-.11v-7.03q0-.063.015-.094.032-.047.094-.078.078-.047.188-.047.109-.016.28-.016.173 0 .282.016.125 0 .188.047.062.03.078.078.03.031.03.094v.937q.595-.672 1.188-.969.594-.312 1.188-.312.703 0 1.187.234.485.235.782.64.297.391.422.938.125.532.125 1.282v4.28zm8.375 0q0 .062-.032.11-.015.046-.093.077-.063.032-.172.047-.11.016-.266.016-.156 0-.266-.016-.109-.015-.187-.047-.063-.031-.094-.078t-.031-.11v-.921q-.563.594-1.156.937-.594.344-1.313.344-.765 0-1.312-.297-.547-.312-.89-.828-.345-.515-.5-1.203-.157-.687-.157-1.453 0-.906.187-1.64.203-.735.578-1.25.391-.516.954-.782.578-.281 1.312-.281.625 0 1.125.265.516.266 1.016.797v-4.093q0-.047.03-.094.032-.063.11-.078.078-.032.188-.047.125-.031.312-.031.203 0 .328.03.125.016.188.048.078.015.11.078.03.047.03.094v10.406zm-1.297-4.938q-.516-.656-1.016-.984-.484-.344-1.016-.344-.484 0-.828.235-.343.234-.562.625-.219.375-.313.859-.093.484-.093.984 0 .532.078 1.047.078.5.28.89.204.391.532.641.344.235.86.235.25 0 .484-.063.25-.078.5-.234.25-.172.516-.438.28-.265.578-.64V79.08zm4.968 4.938q0 .062-.03.11-.032.046-.11.077-.063.032-.188.047-.125.016-.312.016-.188 0-.313-.016-.125-.015-.203-.047-.078-.031-.11-.078-.015-.047-.015-.11v-7.03q0-.047.016-.094.031-.047.11-.078.077-.032.202-.047.125-.016.313-.016.187 0 .312.016.125.015.188.047.078.03.11.078.03.047.03.094v7.03zm.157-9.406q0 .453-.172.625-.172.156-.64.156-.454 0-.626-.156-.156-.157-.156-.61 0-.453.172-.61.172-.171.625-.171t.625.172q.172.156.172.594zm8.25 9.406q0 .062-.032.11-.015.046-.093.077-.063.032-.172.047-.11.016-.266.016-.156 0-.265-.016-.11-.015-.188-.047-.062-.031-.094-.078-.03-.047-.03-.11v-.921q-.563.594-1.157.937-.594.344-1.313.344-.765 0-1.312-.297-.547-.312-.89-.828-.345-.515-.5-1.203-.157-.687-.157-1.453 0-.906.187-1.64.204-.735.579-1.25.39-.516.953-.782.578-.281 1.312-.281.625 0 1.125.265.516.266 1.016.797v-4.093q0-.047.031-.094.031-.063.11-.078.078-.032.187-.047.125-.031.312-.031.204 0 .329.03.125.016.187.048.078.015.11.078.03.047.03.094v10.406zm-1.297-4.938q-.516-.656-1.016-.984-.484-.344-1.015-.344-.485 0-.829.235-.343.234-.562.625-.219.375-.313.859-.093.484-.093.984 0 .532.078 1.047.078.5.281.89.203.391.531.641.344.235.86.235.25 0 .484-.063.25-.078.5-.234.25-.172.516-.438.28-.265.578-.64V79.08zm8.984 4.953q0 .094-.062.141-.063.047-.172.063-.11.03-.328.03-.203 0-.328-.03-.11-.016-.172-.063-.047-.047-.047-.14v-.704q-.469.485-1.031.766-.563.281-1.204.281-.546 0-1-.156-.453-.14-.765-.406-.313-.282-.5-.672-.172-.406-.172-.922 0-.594.234-1.031.25-.438.703-.72.454-.296 1.11-.437.656-.14 1.484-.14h.969v-.547q0-.406-.094-.719-.078-.312-.281-.515-.188-.22-.5-.313-.297-.11-.734-.11-.485 0-.86.11t-.672.25q-.28.14-.468.25-.188.11-.282.11-.062 0-.11-.032-.046-.031-.093-.094-.031-.062-.047-.156-.015-.094-.015-.219 0-.187.03-.296.032-.125.126-.22.11-.109.36-.234.265-.14.593-.25.344-.125.734-.187.407-.078.813-.078.766 0 1.297.172.531.172.86.5.327.328.468.828.156.484.156 1.14v4.75zm-1.281-3.218h-1.11q-.53 0-.921.093-.39.094-.657.266-.25.172-.375.422-.109.25-.109.562 0 .547.344.875.344.329.969.329.515 0 .937-.25.438-.266.922-.797v-1.5zm7.305 2.687q0 .235-.032.375-.03.125-.093.188-.063.062-.188.125-.125.047-.297.078-.156.047-.343.062-.172.032-.344.032-.547 0-.938-.141-.39-.156-.64-.453-.25-.297-.375-.735-.11-.453-.11-1.062v-4.11h-.984q-.11 0-.188-.124-.062-.125-.062-.407 0-.156.016-.25.015-.11.046-.172.032-.062.079-.093.062-.032.125-.032h.968v-1.671q0-.047.032-.094.03-.047.093-.078.078-.047.203-.063.125-.015.313-.015.203 0 .328.015.125.016.188.063.078.03.109.078.031.047.031.094v1.671h1.797q.063 0 .11.032.046.03.078.093.046.063.062.172.016.094.016.25 0 .282-.078.407-.063.125-.188.125h-1.797v3.921q0 .72.203 1.094.219.375.782.375.171 0 .312-.031.14-.047.25-.078.11-.047.188-.078.078-.032.14-.032.047 0 .078.016.032.016.047.078.031.047.047.14.016.095.016.235zm7.703-3.297q0 .297-.156.438-.157.125-.344.125h-4.61q0 .578.11 1.047.125.468.39.812.282.328.72.516.437.172 1.062.172.5 0 .89-.078.39-.079.672-.172.297-.11.469-.188.187-.094.281-.094.063 0 .094.032.047.03.062.093.032.047.047.141.016.094.016.234 0 .11-.016.188 0 .062-.015.125-.016.062-.047.11-.016.046-.063.093-.047.031-.265.14-.203.094-.547.188-.328.094-.766.172-.437.078-.937.078-.875 0-1.532-.25-.64-.25-1.093-.719-.438-.484-.672-1.203-.219-.718-.219-1.672 0-.906.234-1.625.235-.718.672-1.218.438-.516 1.063-.782.625-.265 1.406-.265.828 0 1.406.265.578.266.953.72.375.437.547 1.046.188.61.188 1.297v.234zm-1.297-.39q.016-1.016-.453-1.594-.469-.578-1.406-.578-.47 0-.829.187-.359.172-.609.469-.234.297-.375.703-.125.39-.14.813h3.812zm7.664 2.297q0 .53-.203.953-.188.422-.563.718-.36.282-.875.438-.5.156-1.11.156-.374 0-.718-.062-.344-.063-.61-.157-.265-.093-.452-.187-.188-.094-.282-.172-.078-.078-.125-.219-.03-.14-.03-.39 0-.141.015-.235.015-.11.031-.172.031-.062.063-.093.046-.032.109-.032.078 0 .25.11t.406.234q.25.125.578.235.344.093.782.093.328 0 .593-.062.266-.078.453-.203.204-.141.313-.344.11-.219.11-.516 0-.297-.157-.5-.156-.203-.406-.36-.25-.155-.563-.265-.312-.125-.64-.25-.328-.14-.657-.312-.312-.172-.562-.406-.25-.25-.406-.579-.14-.343-.14-.812 0-.406.155-.781.157-.391.47-.672.327-.281.812-.453.484-.172 1.125-.172.28 0 .562.047.281.047.5.125.234.062.39.14.157.078.235.14.094.063.11.11.03.047.046.11.016.062.016.156.016.078.016.203t-.016.234q0 .094-.031.157-.032.062-.078.093-.032.016-.079.016-.062 0-.203-.078-.125-.094-.343-.188-.204-.093-.5-.171-.282-.094-.641-.094-.328 0-.578.078-.25.062-.422.203-.156.14-.234.328-.079.188-.079.406 0 .297.157.516.156.203.406.36.25.156.562.28.329.126.657.266.328.125.656.297.328.156.578.39.25.235.39.563.157.328.157.782z"/><path d="M233.979 213.16h150.33v39.496H233.98z"/><path fill="#000" d="M250.198 237.317q0 .062-.031.11-.016.046-.094.077-.063.032-.172.047-.11.016-.266.016-.156 0-.265-.016-.11-.015-.188-.047-.062-.03-.094-.078-.03-.047-.03-.109v-.922q-.563.594-1.157.938-.594.343-1.313.343-.765 0-1.312-.297-.547-.312-.89-.828-.344-.515-.5-1.203-.157-.687-.157-1.453 0-.906.188-1.64.203-.735.578-1.25.39-.516.953-.782.578-.281 1.312-.281.625 0 1.125.266.516.265 1.016.796v-4.093q0-.047.031-.094.031-.063.11-.078.078-.031.187-.047.125-.031.313-.031.203 0 .328.031.125.016.187.047.078.015.11.078.03.047.03.094v10.406zm-1.297-4.938q-.516-.656-1.016-.984-.484-.344-1.015-.344-.485 0-.828.235-.344.234-.563.625-.219.375-.313.86-.093.483-.093.983 0 .532.078 1.047.078.5.281.891.203.39.531.64.344.235.86.235.25 0 .484-.063.25-.078.5-.234.25-.172.516-.437.281-.266.578-.641v-2.813zm8.094 3.032q0 .531-.203.953-.188.422-.563.719-.36.28-.875.437-.5.156-1.11.156-.374 0-.718-.062-.344-.063-.61-.156-.265-.094-.453-.188-.187-.094-.28-.172-.079-.078-.126-.219-.031-.14-.031-.39 0-.14.016-.235.015-.109.03-.171.032-.063.063-.094.047-.031.11-.031.078 0 .25.109.172.11.406.234.25.125.578.235.344.093.781.093.328 0 .594-.062.266-.078.453-.203.203-.14.313-.344.109-.219.109-.516 0-.296-.156-.5-.156-.203-.406-.359-.25-.156-.563-.266-.312-.125-.64-.25-.329-.14-.657-.312-.312-.172-.562-.406-.25-.25-.407-.578-.14-.344-.14-.813 0-.406.156-.781.156-.39.469-.672.328-.281.812-.453.485-.172 1.125-.172.282 0 .563.047.281.047.5.125.234.062.39.14.157.079.235.141.094.063.11.11.03.046.046.109.016.062.016.156.015.078.015.203t-.015.235q0 .093-.032.156-.03.062-.078.094-.031.015-.078.015-.062 0-.203-.078-.125-.094-.344-.187-.203-.094-.5-.172-.281-.094-.64-.094-.328 0-.578.078-.25.063-.422.203-.157.14-.235.328-.078.188-.078.407 0 .296.156.515.157.203.407.36.25.156.562.28.328.126.656.266.329.125.657.297.328.157.578.391.25.234.39.562.157.329.157.782zm5.507 1.39q0 .235-.03.375-.032.125-.095.188-.062.062-.187.125-.125.047-.297.078-.156.047-.344.062-.172.032-.343.032-.547 0-.938-.14-.39-.157-.64-.454-.25-.297-.376-.734-.109-.454-.109-1.063v-4.11h-.984q-.11 0-.188-.124-.062-.125-.062-.407 0-.156.015-.25.016-.109.047-.171.031-.063.078-.094.063-.031.125-.031h.97v-1.672q0-.047.03-.094.032-.047.094-.078.078-.047.203-.063.125-.015.313-.015.203 0 .328.015.125.016.187.063.078.031.11.078.03.047.03.094v1.672h1.798q.062 0 .11.03.046.032.077.095.047.062.063.171.015.094.015.25 0 .282-.078.407-.062.125-.187.125h-1.797v3.922q0 .718.203 1.093.219.375.781.375.172 0 .313-.03.14-.048.25-.079.11-.047.187-.078.078-.031.14-.031.048 0 .08.015.03.016.046.078.031.047.047.141.015.094.015.234zm10.368-.547q0 .125-.016.235 0 .094-.016.156-.015.063-.046.125-.032.047-.125.14-.094.094-.329.25-.234.141-.53.266-.298.11-.641.172-.344.078-.704.078-.765 0-1.359-.25-.578-.265-.969-.734-.39-.484-.61-1.188-.202-.703-.202-1.609 0-1.047.25-1.781.265-.75.703-1.219.437-.484 1.031-.719.61-.234 1.297-.234.344 0 .656.062.313.063.578.172.266.094.47.235.218.125.312.218.093.094.125.157.03.047.047.125.03.078.03.172.016.093.016.234 0 .297-.078.422-.062.125-.156.125-.125 0-.281-.125-.14-.14-.375-.297-.235-.156-.578-.281-.328-.125-.782-.125-.921 0-1.421.718-.5.704-.5 2.063 0 .687.125 1.203.14.5.39.844t.61.515q.359.172.828.172.453 0 .78-.14.345-.14.579-.313.25-.172.422-.297.172-.14.266-.14.046 0 .078.031.047.031.078.11.031.062.031.187.016.11.016.265zm7.015 1.079q0 .093-.062.14-.063.047-.172.063-.11.031-.328.031-.203 0-.328-.031-.11-.016-.172-.063-.047-.047-.047-.14v-.704q-.469.485-1.031.766-.563.281-1.203.281-.547 0-1-.156-.454-.14-.766-.406-.313-.281-.5-.672-.172-.406-.172-.922 0-.594.234-1.031.25-.438.704-.719.453-.297 1.109-.437.656-.141 1.484-.141h.969v-.547q0-.406-.094-.719-.078-.312-.281-.515-.187-.219-.5-.313-.297-.11-.734-.11-.485 0-.86.11t-.672.25q-.28.14-.468.25-.188.11-.282.11-.062 0-.109-.032-.047-.03-.094-.093-.031-.063-.047-.157-.015-.093-.015-.218 0-.188.031-.297.031-.125.125-.219.11-.11.36-.234.265-.141.593-.25.344-.125.735-.188.406-.078.812-.078.766 0 1.297.172.531.172.86.5.327.328.468.828.156.484.156 1.14v4.75zm-1.281-3.22h-1.11q-.53 0-.921.095-.39.093-.656.265-.25.172-.375.422-.11.25-.11.563 0 .546.344.875.344.328.969.328.515 0 .937-.25.438-.266.922-.797v-1.5zm9.695 3.204q0 .062-.03.11-.032.046-.11.077-.063.032-.188.047-.125.016-.312.016-.188 0-.313-.016-.125-.015-.203-.047-.062-.03-.094-.078-.03-.047-.03-.109v-4.11q0-.609-.095-.968-.093-.375-.28-.64-.173-.266-.47-.407-.28-.14-.656-.14-.484 0-.969.343-.484.344-1.015 1.016v4.906q0 .062-.032.11-.03.046-.109.077-.062.032-.187.047-.125.016-.313.016-.187 0-.312-.016-.125-.015-.204-.047-.078-.03-.109-.078-.016-.047-.016-.109v-7.031q0-.063.016-.094.031-.047.094-.078.078-.047.187-.047.11-.016.282-.016.171 0 .28.016.126 0 .188.047.063.031.078.078.032.031.032.094v.937q.593-.672 1.187-.969.594-.312 1.188-.312.703 0 1.187.234.485.235.781.641.297.39.422.937.125.532.125 1.282v4.281zm8.375 0q0 .062-.03.11-.017.046-.095.077-.062.032-.172.047-.109.016-.265.016-.156 0-.266-.016-.11-.015-.187-.047-.063-.03-.094-.078-.031-.047-.031-.109v-.922q-.563.594-1.157.938-.593.343-1.312.343-.766 0-1.313-.297-.546-.312-.89-.828-.344-.515-.5-1.203-.156-.687-.156-1.453 0-.906.187-1.64.203-.735.578-1.25.39-.516.953-.782.578-.281 1.313-.281.625 0 1.125.266.515.265 1.015.796v-4.093q0-.047.032-.094.03-.063.11-.078.077-.031.187-.047.125-.031.312-.031.203 0 .328.031.125.016.188.047.078.015.11.078.03.047.03.094v10.406zm-1.297-4.938q-.515-.656-1.015-.984-.485-.344-1.016-.344-.484 0-.828.235-.344.234-.562.625-.22.375-.313.86-.094.483-.094.983 0 .532.078 1.047.079.5.282.891.203.39.53.64.345.235.86.235.25 0 .485-.063.25-.078.5-.234.25-.172.515-.437.282-.266.578-.641v-2.813zm4.97 4.938q0 .062-.032.11-.031.046-.11.077-.062.032-.187.047-.125.016-.312.016-.188 0-.313-.016-.125-.015-.203-.047-.078-.03-.11-.078-.015-.047-.015-.109v-7.031q0-.047.016-.094.03-.047.109-.078.078-.031.203-.047t.313-.016q.187 0 .312.016t.188.047q.078.031.109.078t.031.094v7.031zm.155-9.406q0 .453-.171.625-.172.156-.641.156-.453 0-.625-.156-.156-.157-.156-.61 0-.453.172-.609.171-.172.625-.172.453 0 .625.172.171.156.171.594zm8.25 9.406q0 .062-.03.11-.016.046-.095.077-.062.032-.171.047-.11.016-.266.016-.156 0-.266-.016-.11-.015-.187-.047-.063-.03-.094-.078-.031-.047-.031-.109v-.922q-.563.594-1.156.938-.594.343-1.313.343-.766 0-1.312-.297-.547-.312-.891-.828-.344-.515-.5-1.203-.156-.687-.156-1.453 0-.906.187-1.64.203-.735.578-1.25.39-.516.953-.782.579-.281 1.313-.281.625 0 1.125.266.516.265 1.016.796v-4.093q0-.047.03-.094.032-.063.11-.078.078-.031.188-.047.125-.031.312-.031.203 0 .328.031.125.016.188.047.078.015.11.078.03.047.03.094v10.406zm-1.296-4.938q-.516-.656-1.016-.984-.484-.344-1.016-.344-.484 0-.828.235-.344.234-.562.625-.22.375-.313.86-.094.483-.094.983 0 .532.079 1.047.078.5.28.891.204.39.532.64.344.235.86.235.25 0 .484-.063.25-.078.5-.234.25-.172.515-.437.282-.266.579-.641v-2.813zm8.984 4.954q0 .093-.063.14-.062.047-.171.063-.11.031-.329.031-.203 0-.328-.031-.11-.016-.172-.063-.046-.047-.046-.14v-.704q-.47.485-1.032.766t-1.203.281q-.547 0-1-.156-.453-.14-.765-.406-.313-.281-.5-.672-.172-.406-.172-.922 0-.594.234-1.031.25-.438.703-.719.453-.297 1.11-.437.656-.141 1.484-.141h.969v-.547q0-.406-.094-.719-.078-.312-.281-.515-.188-.219-.5-.313-.297-.11-.735-.11-.484 0-.86.11-.374.11-.67.25-.282.14-.47.25-.187.11-.28.11-.063 0-.11-.032-.047-.03-.094-.093-.031-.063-.047-.157-.016-.093-.016-.218 0-.188.032-.297.03-.125.125-.219.11-.11.36-.234.265-.141.593-.25.344-.125.734-.188.406-.078.813-.078.765 0 1.297.172.53.172.859.5.328.328.469.828.156.484.156 1.14v4.75zm-1.281-3.22h-1.11q-.53 0-.922.095-.39.093-.656.265-.25.172-.375.422-.11.25-.11.563 0 .546.345.875.343.328.968.328.516 0 .938-.25.437-.266.922-.797v-1.5zm7.304 2.688q0 .235-.03.375-.032.125-.095.188-.062.062-.187.125-.125.047-.297.078-.156.047-.344.062-.172.032-.343.032-.547 0-.938-.14-.39-.157-.64-.454-.25-.297-.376-.734-.109-.454-.109-1.063v-4.11h-.984q-.11 0-.188-.124-.062-.125-.062-.407 0-.156.015-.25.016-.109.047-.171.031-.063.078-.094.063-.031.125-.031h.969v-1.672q0-.047.031-.094.032-.047.094-.078.078-.047.203-.063.125-.015.313-.015.203 0 .328.015.125.016.187.063.078.031.11.078.03.047.03.094v1.672h1.798q.062 0 .11.03.046.032.077.095.047.062.063.171.015.094.015.25 0 .282-.078.407-.062.125-.187.125H320.4v3.922q0 .718.203 1.093.219.375.781.375.172 0 .313-.03.14-.048.25-.079.11-.047.187-.078.078-.031.14-.031.048 0 .079.015.031.016.047.078.031.047.047.141.015.094.015.234zm7.704-3.297q0 .297-.157.438-.156.125-.343.125h-4.61q0 .578.11 1.047.125.469.39.812.281.328.719.516.437.172 1.062.172.5 0 .891-.078.39-.078.672-.172.297-.11.469-.188.187-.093.28-.093.063 0 .095.03.047.032.062.095.031.046.047.14.016.094.016.235 0 .109-.016.187 0 .063-.016.125-.015.063-.046.11-.016.046-.063.093-.047.031-.266.14-.203.095-.546.188-.329.094-.766.172-.438.078-.938.078-.875 0-1.53-.25-.641-.25-1.095-.718-.437-.485-.671-1.204-.22-.718-.22-1.671 0-.907.235-1.625.235-.72.672-1.22.438-.515 1.063-.78.625-.266 1.406-.266.828 0 1.406.266.578.265.953.718.375.438.547 1.047.188.61.188 1.297v.234zm-1.297-.39q.015-1.016-.453-1.594-.47-.578-1.407-.578-.468 0-.828.187-.36.172-.61.47-.234.296-.374.702-.125.391-.14.813h3.812zm7.664 2.297q0 .531-.203.953-.188.422-.563.719-.36.28-.875.437-.5.156-1.11.156-.374 0-.718-.062-.344-.063-.61-.156-.265-.094-.453-.188-.187-.094-.28-.172-.079-.078-.126-.219-.031-.14-.031-.39 0-.14.016-.235.015-.109.03-.171.032-.063.063-.094.047-.031.11-.031.078 0 .25.109.172.11.406.234.25.125.578.235.344.093.781.093.328 0 .594-.062.266-.078.453-.203.203-.14.313-.344.11-.219.11-.516 0-.296-.157-.5-.156-.203-.406-.359-.25-.156-.563-.266-.312-.125-.64-.25-.329-.14-.657-.312-.312-.172-.562-.406-.25-.25-.407-.578-.14-.344-.14-.813 0-.406.156-.781.156-.39.469-.672.328-.281.812-.453.485-.172 1.125-.172.282 0 .563.047.281.047.5.125.234.062.39.14.157.079.235.141.094.063.11.11.03.046.046.109.016.062.016.156.015.078.015.203t-.015.235q0 .093-.032.156-.03.062-.078.094-.03.015-.078.015-.062 0-.203-.078-.125-.094-.344-.187-.203-.094-.5-.172-.28-.094-.64-.094-.328 0-.578.078-.25.063-.422.203-.157.14-.235.328-.078.188-.078.407 0 .296.156.515.157.203.407.36.25.156.562.28.328.126.656.266.329.125.657.297.328.157.578.391.25.234.39.562.157.329.157.782z"/></g></svg>