<svg viewBox="0 0 365.664 266.966" fill="none" stroke-linecap="square" stroke-miterlimit="10" xmlns="http://www.w3.org/2000/svg"><clipPath id="a"><path d="M0 0h365.664v266.966H0V0z"/></clipPath><g clip-path="url(#a)"><path d="M0 0h365.664v266.966H0z"/><path d="M11.04 152.871c0-55.228 46.012-100 102.771-100 27.257 0 53.397 10.536 72.67 29.29 19.274 18.753 30.102 44.189 30.102 70.71 0 55.229-46.013 100-102.772 100-56.76 0-102.772-44.771-102.772-100z"/><path stroke="#595959" stroke-width="2" stroke-linejoin="round" stroke-linecap="butt" d="M11.04 152.871h0c0-55.228 46.012-100 102.771-100h0c27.257 0 53.397 10.536 72.67 29.29 19.274 18.753 30.102 44.189 30.102 70.71h0c0 55.229-46.013 100-102.772 100h0c-56.76 0-102.772-44.771-102.772-100z"/><path d="M144.816 152.871c0-55.228 46.013-100 102.772-100 27.257 0 53.397 10.536 72.67 29.29 19.274 18.753 30.102 44.189 30.102 70.71 0 55.229-46.013 100-102.772 100-56.76 0-102.772-44.771-102.772-100z"/><path stroke="#595959" stroke-width="2" stroke-linejoin="round" stroke-linecap="butt" d="M144.816 152.871h0c0-55.228 46.013-100 102.772-100h0c27.257 0 53.397 10.536 72.67 29.29 19.274 18.753 30.102 44.189 30.102 70.71h0c0 55.229-46.013 100-102.772 100h0c-56.76 0-102.772-44.771-102.772-100z"/><path d="M248.593 119.764c0-15.22 12.896-27.56 28.803-27.56 7.64 0 14.966 2.904 20.367 8.073 5.402 5.168 8.436 12.178 8.436 19.487 0 15.22-12.895 27.559-28.803 27.559-15.907 0-28.803-12.339-28.803-27.56z"/><path stroke="#595959" stroke-width="2" stroke-linejoin="round" stroke-linecap="butt" d="M248.593 119.764h0c0-15.22 12.896-27.56 28.803-27.56h0c7.64 0 14.966 2.904 20.367 8.073 5.402 5.168 8.436 12.178 8.436 19.487h0c0 15.22-12.895 27.559-28.803 27.559h0c-15.907 0-28.803-12.339-28.803-27.56z"/><path fill="#0097a7" d="M274.625 130.094c0-2.148 1.24-3.89 2.771-3.89.735 0 1.44.41 1.96 1.14s.812 1.719.812 2.75c0 2.149-1.24 3.89-2.772 3.89-1.53 0-2.771-1.741-2.771-3.89z" fill-rule="evenodd"/><path stroke="#595959" stroke-linejoin="round" stroke-linecap="butt" d="M274.625 130.094h0c0-2.148 1.24-3.89 2.771-3.89h0c.735 0 1.44.41 1.96 1.14s.812 1.719.812 2.75h0c0 2.149-1.24 3.89-2.772 3.89h0c-1.53 0-2.771-1.741-2.771-3.89z"/><path fill="#0097a7" d="M274.625 119.764c0-2.148 1.24-3.89 2.771-3.89.735 0 1.44.41 1.96 1.14.52.729.812 1.718.812 2.75 0 2.148-1.24 3.89-2.772 3.89-1.53 0-2.771-1.742-2.771-3.89z" fill-rule="evenodd"/><path stroke="#595959" stroke-linejoin="round" stroke-linecap="butt" d="M274.625 119.764h0c0-2.148 1.24-3.89 2.771-3.89h0c.735 0 1.44.41 1.96 1.14.52.729.812 1.718.812 2.75h0c0 2.148-1.24 3.89-2.772 3.89h0c-1.53 0-2.771-1.742-2.771-3.89z"/><path fill="#0097a7" d="M253.04 193.205c0-2.149 1.24-3.89 2.771-3.89.735 0 1.44.41 1.96 1.14.52.729.812 1.718.812 2.75 0 2.148-1.241 3.89-2.772 3.89-1.53 0-2.772-1.742-2.772-3.89z" fill-rule="evenodd"/><path stroke="#595959" stroke-linejoin="round" stroke-linecap="butt" d="M253.04 193.205h0c0-2.149 1.24-3.89 2.771-3.89h0c.735 0 1.44.41 1.96 1.14.52.729.812 1.718.812 2.75h0c0 2.148-1.241 3.89-2.772 3.89h0c-1.53 0-2.772-1.742-2.772-3.89z"/><path fill="#0097a7" d="M286.01 122.315c0-2.148 1.241-3.89 2.772-3.89.735 0 1.44.41 1.96 1.14.52.729.812 1.718.812 2.75 0 2.148-1.241 3.89-2.772 3.89-1.53 0-2.772-1.742-2.772-3.89z" fill-rule="evenodd"/><path stroke="#595959" stroke-linejoin="round" stroke-linecap="butt" d="M286.01 122.315h0c0-2.148 1.241-3.89 2.772-3.89h0c.735 0 1.44.41 1.96 1.14.52.729.812 1.718.812 2.75h0c0 2.148-1.241 3.89-2.772 3.89h0c-1.53 0-2.772-1.742-2.772-3.89z"/><path fill="#0097a7" d="M263.239 208.764c0-2.148 1.24-3.89 2.771-3.89.736 0 1.44.41 1.96 1.14.52.729.812 1.718.812 2.75 0 2.148-1.24 3.89-2.772 3.89-1.53 0-2.771-1.742-2.771-3.89z" fill-rule="evenodd"/><path stroke="#595959" stroke-linejoin="round" stroke-linecap="butt" d="M263.239 208.764h0c0-2.148 1.24-3.89 2.771-3.89h0c.736 0 1.44.41 1.96 1.14.52.729.812 1.718.812 2.75h0c0 2.148-1.24 3.89-2.772 3.89h0c-1.53 0-2.771-1.742-2.771-3.89z"/><path fill="#0097a7" d="M274.625 200.984c0-2.148 1.24-3.89 2.771-3.89.735 0 1.44.41 1.96 1.14s.812 1.719.812 2.75c0 2.149-1.24 3.89-2.772 3.89-1.53 0-2.771-1.741-2.771-3.89z" fill-rule="evenodd"/><path stroke="#595959" stroke-linejoin="round" stroke-linecap="butt" d="M274.625 200.984h0c0-2.148 1.24-3.89 2.771-3.89h0c.735 0 1.44.41 1.96 1.14s.812 1.719.812 2.75h0c0 2.149-1.24 3.89-2.772 3.89h0c-1.53 0-2.771-1.741-2.771-3.89z"/><path fill="#0097a7" d="M280.168 208.764c0-2.148 1.24-3.89 2.772-3.89.735 0 1.44.41 1.96 1.14.52.729.811 1.718.811 2.75 0 2.148-1.24 3.89-2.771 3.89s-2.772-1.742-2.772-3.89z" fill-rule="evenodd"/><path stroke="#595959" stroke-linejoin="round" stroke-linecap="butt" d="M280.168 208.764h0c0-2.148 1.24-3.89 2.772-3.89h0c.735 0 1.44.41 1.96 1.14.52.729.811 1.718.811 2.75h0c0 2.148-1.24 3.89-2.771 3.89h0c-1.531 0-2.772-1.742-2.772-3.89z"/><path fill="#0097a7" d="M190.178 116.764c0-2.148 1.241-3.89 2.772-3.89.735 0 1.44.41 1.96 1.14.52.729.812 1.718.812 2.75 0 2.148-1.241 3.89-2.772 3.89-1.53 0-2.772-1.742-2.772-3.89z" fill-rule="evenodd"/><path stroke="#595959" stroke-linejoin="round" stroke-linecap="butt" d="M190.178 116.764h0c0-2.148 1.241-3.89 2.772-3.89h0c.735 0 1.44.41 1.96 1.14.52.729.812 1.718.812 2.75h0c0 2.148-1.241 3.89-2.772 3.89h0c-1.53 0-2.772-1.742-2.772-3.89z"/><path fill="#0097a7" d="M178.625 108.984c0-2.148 1.24-3.89 2.771-3.89.735 0 1.44.41 1.96 1.14s.812 1.719.812 2.75c0 2.149-1.24 3.89-2.772 3.89-1.53 0-2.771-1.741-2.771-3.89z" fill-rule="evenodd"/><path stroke="#595959" stroke-linejoin="round" stroke-linecap="butt" d="M178.625 108.984h0c0-2.148 1.24-3.89 2.771-3.89h0c.735 0 1.44.41 1.96 1.14s.812 1.719.812 2.75h0c0 2.149-1.24 3.89-2.772 3.89h0c-1.53 0-2.771-1.741-2.771-3.89z"/><path fill="#0097a7" d="M178.625 188.54c0-2.148 1.24-3.89 2.771-3.89.735 0 1.44.41 1.96 1.14s.812 1.719.812 2.75c0 2.149-1.24 3.89-2.772 3.89-1.53 0-2.771-1.741-2.771-3.89z" fill-rule="evenodd"/><path stroke="#595959" stroke-linejoin="round" stroke-linecap="butt" d="M178.625 188.54h0c0-2.148 1.24-3.89 2.771-3.89h0c.735 0 1.44.41 1.96 1.14s.812 1.719.812 2.75h0c0 2.149-1.24 3.89-2.772 3.89h0c-1.53 0-2.771-1.741-2.771-3.89z"/><path fill="#0097a7" d="M190.178 174.131c0-2.148 1.241-3.89 2.772-3.89.735 0 1.44.41 1.96 1.14s.812 1.719.812 2.75c0 2.148-1.241 3.89-2.772 3.89-1.53 0-2.772-1.742-2.772-3.89z" fill-rule="evenodd"/><path stroke="#595959" stroke-linejoin="round" stroke-linecap="butt" d="M190.178 174.131h0c0-2.148 1.241-3.89 2.772-3.89h0c.735 0 1.44.41 1.96 1.14s.812 1.719.812 2.75h0c0 2.148-1.241 3.89-2.772 3.89h0c-1.53 0-2.772-1.742-2.772-3.89z"/><path d="M264.593 123.874c0-8.654 7.164-15.67 16-15.67 4.244 0 8.313 1.652 11.314 4.59 3 2.939 4.686 6.924 4.686 11.08 0 8.654-7.163 15.67-16 15.67-8.836 0-16-7.016-16-15.67z"/><path stroke="#595959" stroke-linejoin="round" stroke-linecap="butt" d="M264.593 123.874h0c0-8.654 7.164-15.67 16-15.67h0c4.244 0 8.313 1.652 11.314 4.59 3 2.939 4.686 6.924 4.686 11.08h0c0 8.654-7.163 15.67-16 15.67h0c-8.836 0-16-7.016-16-15.67z"/><path d="M55.504 181.425c0-8.654 7.163-15.67 16-15.67 4.243 0 8.313 1.652 11.314 4.59 3 2.939 4.686 6.924 4.686 11.08 0 8.654-7.164 15.67-16 15.67-8.837 0-16-7.016-16-15.67z"/><path stroke="#595959" stroke-linejoin="round" stroke-linecap="butt" stroke-dasharray="4.0,3.0" d="M55.504 181.425h0c0-8.654 7.163-15.67 16-15.67h0c4.243 0 8.313 1.652 11.314 4.59 3 2.939 4.686 6.924 4.686 11.08h0c0 8.654-7.164 15.67-16 15.67h0c-8.837 0-16-7.016-16-15.67z"/><path fill="#b7b7b7" d="M75.34 181.425c0-2.148 1.24-3.89 2.772-3.89.735 0 1.44.41 1.96 1.14s.811 1.719.811 2.75c0 2.148-1.24 3.89-2.771 3.89s-2.772-1.742-2.772-3.89z" fill-rule="evenodd"/><path stroke="#595959" stroke-linejoin="round" stroke-linecap="butt" d="M75.34 181.425h0c0-2.148 1.24-3.89 2.772-3.89h0c.735 0 1.44.41 1.96 1.14s.811 1.719.811 2.75h0c0 2.148-1.24 3.89-2.771 3.89h0c-1.531 0-2.772-1.742-2.772-3.89z"/><path fill="#b7b7b7" d="M68.732 188.54c0-2.148 1.241-3.89 2.772-3.89.735 0 1.44.41 1.96 1.14s.812 1.719.812 2.75c0 2.149-1.241 3.89-2.772 3.89-1.53 0-2.772-1.741-2.772-3.89z" fill-rule="evenodd"/><path stroke="#595959" stroke-linejoin="round" stroke-linecap="butt" d="M68.732 188.54h0c0-2.148 1.241-3.89 2.772-3.89h0c.735 0 1.44.41 1.96 1.14s.812 1.719.812 2.75h0c0 2.149-1.241 3.89-2.772 3.89h0c-1.53 0-2.772-1.741-2.772-3.89z"/><path fill="#b7b7b7" d="M63.189 181.425c0-2.148 1.24-3.89 2.772-3.89.735 0 1.44.41 1.96 1.14s.811 1.719.811 2.75c0 2.148-1.24 3.89-2.771 3.89s-2.772-1.742-2.772-3.89z" fill-rule="evenodd"/><path stroke="#595959" stroke-linejoin="round" stroke-linecap="butt" d="M63.189 181.425h0c0-2.148 1.24-3.89 2.772-3.89h0c.735 0 1.44.41 1.96 1.14s.811 1.719.811 2.75h0c0 2.148-1.24 3.89-2.771 3.89h0c-1.531 0-2.772-1.742-2.772-3.89z"/><path d="M264.593 123.874c-44.272 0-66.406 14.386-88.544 28.772-22.138 14.385-44.28 28.771-88.558 28.771"/><path stroke="#0097a7" stroke-width="2" stroke-linejoin="round" stroke-linecap="butt" d="M264.593 123.874c-44.272 0-66.406 14.386-88.544 28.772-22.138 14.385-44.28 28.771-88.558 28.771"/><path d="M55.504 11.094h142.709v31.338H55.503z"/><path fill="#999" d="M71.598 29.92H69.19v8.094h-2.78V29.92h-1.532v-1.344l1.531-.75v-.75q0-1.734.844-2.531.86-.812 2.75-.812 1.437 0 2.562.437l-.718 2.031q-.828-.25-1.547-.25-.594 0-.86.344-.25.344-.25.89v.641h2.407v2.094zm3.802 2.984q0 1.516.5 2.297.5.766 1.609.766 1.11 0 1.594-.766.5-.781.5-2.297 0-1.515-.5-2.265-.485-.766-1.61-.766-1.109 0-1.609.766-.484.75-.484 2.265zm7.047 0q0 2.485-1.313 3.891-1.312 1.406-3.656 1.406-1.469 0-2.594-.64-1.11-.657-1.719-1.844-.593-1.203-.593-2.813 0-2.5 1.296-3.875 1.297-1.39 3.657-1.39 1.468 0 2.593.64 1.125.641 1.72 1.829.609 1.187.609 2.796zm7.972-5.265q.563 0 .938.078l-.203 2.61q-.344-.094-.829-.094-1.328 0-2.078.687-.734.688-.734 1.906v5.188h-2.781V27.826h2.11l.405 1.719h.141q.469-.86 1.266-1.375.812-.531 1.765-.531zM97.344 38.2q-4.75 0-4.75-5.218 0-2.61 1.281-3.97 1.297-1.374 3.72-1.374 1.765 0 3.171.687l-.828 2.157q-.656-.266-1.219-.438-.562-.172-1.125-.172-2.172 0-2.172 3.078 0 3 2.172 3 .797 0 1.469-.218.687-.22 1.375-.672v2.375q-.672.437-1.36.593-.687.172-1.734.172zm9.67-8.593q-.874 0-1.374.562-.5.563-.579 1.594h3.891q-.016-1.031-.531-1.594-.516-.562-1.406-.562zm.391 8.593q-2.453 0-3.844-1.36-1.375-1.358-1.375-3.843 0-2.562 1.266-3.953 1.281-1.406 3.547-1.406 2.156 0 3.36 1.234 1.202 1.219 1.202 3.39v1.345H105q.047 1.187.703 1.859.656.656 1.828.656.922 0 1.735-.187.828-.188 1.718-.61v2.157q-.718.359-1.547.53-.828.188-2.03.188zm15.478-8.593q-.875 0-1.375.562-.5.563-.578 1.594h3.89q-.015-1.031-.53-1.594-.516-.562-1.407-.562zm.391 8.593q-2.453 0-3.844-1.36-1.375-1.358-1.375-3.843 0-2.562 1.266-3.953 1.281-1.406 3.547-1.406 2.156 0 3.36 1.234 1.202 1.219 1.202 3.39v1.345h-6.562q.047 1.187.703 1.859.656.656 1.828.656.922 0 1.734-.187.828-.188 1.72-.61v2.157q-.72.359-1.548.53-.828.188-2.031.188zm8.507-5.39l-3.281-4.985h3.156l1.969 3.25 2-3.25h3.156l-3.328 4.985 3.468 5.203h-3.156l-2.14-3.485-2.141 3.485h-3.156l3.453-5.203zm14.286 5.39q-1.797 0-2.813-1.312h-.14q.14 1.281.14 1.484v4.125h-2.781V27.826h2.265l.391 1.328h.125q.969-1.515 2.89-1.515 1.798 0 2.813 1.39 1.031 1.391 1.031 3.875 0 1.625-.484 2.829-.469 1.203-1.36 1.843-.874.625-2.077.625zm-.813-8.343q-1.031 0-1.516.64-.468.625-.484 2.094v.297q0 1.64.484 2.36.485.702 1.547.702 1.875 0 1.875-3.078 0-1.515-.468-2.265-.454-.75-1.438-.75zm6.634 6.859q0-.766.406-1.156.422-.391 1.203-.391.75 0 1.157.406.422.39.422 1.14 0 .72-.422 1.142-.407.406-1.157.406-.765 0-1.187-.406-.422-.407-.422-1.141z"/><path d="M194.656 11.094h142.709v31.338H194.656z"/><path fill="#999" d="M212.219 34.983q0 1.578-1.094 2.406-1.078.812-3.25.812-1.11 0-1.89-.156-.782-.156-1.47-.437V35.31q.766.359 1.735.609.984.25 1.719.25 1.515 0 1.515-.875 0-.328-.203-.531-.203-.219-.703-.469-.484-.266-1.312-.61-1.172-.484-1.72-.906-.546-.421-.796-.953-.25-.547-.25-1.343 0-1.36 1.047-2.094 1.047-.75 2.984-.75 1.844 0 3.578.797l-.843 2.015q-.766-.328-1.438-.531-.656-.219-1.344-.219-1.234 0-1.234.657 0 .375.39.656.407.265 1.75.812 1.188.469 1.735.89.562.423.828.97.266.547.266 1.297zm4.383-2.079q0 1.516.5 2.297.5.766 1.609.766 1.11 0 1.594-.766.5-.781.5-2.297 0-1.515-.5-2.265-.485-.766-1.61-.766-1.11 0-1.61.766-.483.75-.483 2.265zm7.046 0q0 2.485-1.312 3.891-1.313 1.406-3.656 1.406-1.47 0-2.594-.64-1.11-.657-1.719-1.844-.594-1.203-.594-2.813 0-2.5 1.297-3.875 1.297-1.39 3.657-1.39 1.468 0 2.593.64 1.125.641 1.719 1.829.61 1.187.61 2.796zm9.504 5.11l-.375-1.297h-.14q-.453.703-1.282 1.094-.812.39-1.859.39-1.797 0-2.703-.953-.906-.969-.906-2.781v-6.64h2.781v5.952q0 1.094.39 1.657.391.547 1.25.547 1.157 0 1.672-.782.532-.781.532-2.578v-4.797h2.765v10.188h-2.125zm10.73-10.375q.563 0 .938.078l-.203 2.61q-.344-.094-.828-.094-1.328 0-2.078.687-.735.688-.735 1.906v5.188h-2.781V27.826h2.11l.406 1.719h.14q.469-.86 1.266-1.375.812-.531 1.765-.531zm6.925 10.562q-4.75 0-4.75-5.218 0-2.61 1.282-3.97 1.297-1.374 3.718-1.374 1.766 0 3.172.687l-.828 2.157q-.656-.266-1.219-.438-.562-.172-1.125-.172-2.171 0-2.171 3.078 0 3 2.171 3 .797 0 1.47-.218.687-.22 1.374-.672v2.375q-.672.437-1.36.593-.687.172-1.734.172zm9.67-8.593q-.874 0-1.374.562-.5.563-.578 1.594h3.89q-.015-1.031-.53-1.594-.517-.562-1.407-.562zm.391 8.593q-2.453 0-3.843-1.36-1.375-1.358-1.375-3.843 0-2.562 1.265-3.953 1.282-1.406 3.547-1.406 2.156 0 3.36 1.234 1.203 1.219 1.203 3.39v1.345h-6.563q.047 1.187.703 1.859.657.656 1.828.656.922 0 1.735-.187.828-.188 1.719-.61v2.157q-.72.359-1.547.53-.828.188-2.032.188zm15.479-8.593q-.875 0-1.375.562-.5.563-.579 1.594h3.891q-.016-1.031-.531-1.594-.516-.562-1.406-.562zm.39 8.593q-2.453 0-3.844-1.36-1.375-1.358-1.375-3.843 0-2.562 1.266-3.953 1.281-1.406 3.547-1.406 2.156 0 3.36 1.234 1.202 1.219 1.202 3.39v1.345h-6.562q.047 1.187.703 1.859.656.656 1.828.656.922 0 1.735-.187.828-.188 1.718-.61v2.157q-.718.359-1.547.53-.828.188-2.03.188zm8.507-5.39l-3.281-4.985h3.156l1.969 3.25 2-3.25h3.156l-3.328 4.985 3.469 5.203h-3.157l-2.14-3.485-2.14 3.485h-3.157l3.453-5.203zm14.286 5.39q-1.797 0-2.813-1.312h-.14q.14 1.281.14 1.484v4.125h-2.781V27.826h2.266l.39 1.328h.125q.969-1.515 2.89-1.515 1.798 0 2.813 1.39 1.032 1.391 1.032 3.875 0 1.625-.485 2.829-.468 1.203-1.36 1.843-.874.625-2.077.625zm-.813-8.343q-1.031 0-1.515.64-.47.625-.485 2.094v.297q0 1.64.485 2.36.484.702 1.547.702 1.875 0 1.875-3.078 0-1.515-.47-2.265-.452-.75-1.437-.75zm6.634 6.859q0-.766.407-1.156.421-.391 1.203-.391.75 0 1.156.406.422.39.422 1.14 0 .72-.422 1.142-.406.406-1.156.406-.766 0-1.188-.406-.422-.407-.422-1.141z"/><path d="M215.428 66.65h101.165v44.44H215.428z"/><path fill="#999" d="M228.834 81.184q.469 0 .844.078l-.14 1q-.454-.094-.782-.094-.875 0-1.5.703-.61.704-.61 1.75v3.829h-1.078v-7.125h.891l.125 1.312h.063q.39-.703.953-1.078.562-.375 1.234-.375zm5.19 7.39q-1.577 0-2.5-.953-.906-.968-.906-2.671 0-1.735.844-2.75.86-1.016 2.281-1.016 1.344 0 2.125.89.782.876.782 2.329v.672h-4.907q.032 1.265.625 1.921.61.641 1.704.641 1.14 0 2.265-.484v.968q-.562.25-1.078.344-.516.11-1.234.11zm-.296-6.484q-.86 0-1.375.563-.5.562-.594 1.547h3.734q0-1.016-.453-1.563-.453-.547-1.312-.547zm8.087-.89q1.406 0 2.172.968.78.953.78 2.703 0 1.766-.78 2.735-.782.969-2.172.969-.703 0-1.282-.25-.578-.266-.968-.797h-.078l-.22.922h-.78V78.325h1.078v2.453q0 .828-.047 1.484h.047q.765-1.062 2.25-1.062zm-.157.906q-1.109 0-1.609.64-.484.625-.484 2.125 0 1.516.5 2.157.515.64 1.61.64 1 0 1.483-.718.5-.72.5-2.079 0-1.406-.5-2.078-.484-.687-1.5-.687zm9.387 6.344l-.22-1.016h-.046q-.531.672-1.063.906-.53.235-1.328.235-1.062 0-1.672-.547-.593-.547-.593-1.547 0-2.156 3.453-2.266l1.219-.047v-.437q0-.844-.36-1.235-.36-.406-1.156-.406-.89 0-2.016.547l-.343-.828q.53-.281 1.156-.438.64-.171 1.265-.171 1.282 0 1.891.562.61.563.61 1.813v4.875h-.797zm-2.438-.766q1 0 1.578-.547.578-.562.578-1.547v-.64l-1.078.03q-1.281.048-1.86.407-.562.36-.562 1.11 0 .578.344.89.36.297 1 .297zm6.538.766h-1.079V78.325h1.079V88.45zm6.683 0l-.219-1.016h-.046q-.532.672-1.063.906-.531.235-1.328.235-1.063 0-1.672-.547-.594-.547-.594-1.547 0-2.156 3.453-2.266l1.22-.047v-.437q0-.844-.36-1.235-.36-.406-1.156-.406-.891 0-2.016.547l-.344-.828q.531-.281 1.156-.438.641-.171 1.266-.171 1.281 0 1.89.562.61.563.61 1.813v4.875h-.797zm-2.437-.766q1 0 1.578-.547.578-.562.578-1.547v-.64l-1.078.03q-1.281.048-1.86.407-.562.36-.562 1.11 0 .578.344.89.359.297 1 .297zm10.35.766v-4.61q0-.875-.407-1.297-.39-.437-1.234-.437-1.125 0-1.656.61-.516.593-.516 2v3.734h-1.078v-7.125h.89l.173.968h.046q.329-.53.922-.812.61-.297 1.344-.297 1.297 0 1.938.625.656.625.656 1.984v4.657h-1.078zm6.149.125q-1.547 0-2.406-.954-.844-.953-.844-2.687 0-1.797.86-2.766.859-.984 2.452-.984.516 0 1.032.11.515.109.812.265l-.328.922q-.36-.156-.797-.25-.422-.094-.734-.094-2.172 0-2.172 2.781 0 1.313.515 2.016.532.703 1.579.703.89 0 1.828-.39v.968q-.72.36-1.797.36zm6.501 0q-1.578 0-2.5-.954-.906-.968-.906-2.671 0-1.735.844-2.75.86-1.016 2.281-1.016 1.344 0 2.125.89.781.876.781 2.329v.672h-4.906q.031 1.265.625 1.921.61.641 1.703.641 1.14 0 2.266-.484v.968q-.563.25-1.078.344-.516.11-1.235.11zm-.297-6.485q-.859 0-1.375.563-.5.562-.593 1.547h3.734q0-1.016-.453-1.563-.453-.547-1.313-.547zm9.619 5.406h-.063q-.75 1.079-2.234 1.079-1.407 0-2.188-.954-.765-.953-.765-2.718 0-1.766.78-2.735.782-.984 2.173-.984 1.453 0 2.218 1.062h.094l-.047-.515-.031-.5v-2.906h1.078V88.45h-.875l-.14-.954zm-2.157.172q1.11 0 1.594-.593.5-.61.5-1.938v-.234q0-1.516-.5-2.157-.5-.656-1.61-.656-.952 0-1.452.75-.5.735-.5 2.078 0 1.36.5 2.063.5.687 1.468.687zm-60.722 9.516q.469 0 .844.078l-.14 1q-.454-.094-.782-.094-.875 0-1.5.703-.61.704-.61 1.75v3.829h-1.078v-7.125h.891l.125 1.312h.063q.39-.703.953-1.078.562-.375 1.234-.375zm6.784 5.312q0 1-.75 1.547-.734.532-2.078.532-1.422 0-2.218-.438v-1.016q.515.266 1.109.422.594.141 1.14.141.844 0 1.297-.266.454-.265.454-.828 0-.406-.36-.703-.36-.297-1.406-.703-1-.375-1.422-.64-.422-.282-.625-.626-.203-.359-.203-.843 0-.875.703-1.375.719-.516 1.953-.516 1.156 0 2.25.469l-.375.875q-1.078-.438-1.953-.438-.766 0-1.156.25-.39.235-.39.656 0 .282.14.485.156.203.469.39.328.172 1.25.532 1.28.453 1.718.922.453.468.453 1.171zm4.765 2.079q-1.578 0-2.5-.954-.906-.968-.906-2.671 0-1.735.843-2.75.86-1.016 2.282-1.016 1.343 0 2.125.89.78.876.78 2.329v.672h-4.905q.03 1.265.625 1.921.609.641 1.703.641 1.14 0 2.265-.484v.968q-.562.25-1.078.344-.515.11-1.234.11zm-.297-6.485q-.86 0-1.375.563-.5.562-.594 1.547h3.735q0-1.016-.454-1.563-.453-.547-1.312-.547z"/><path d="M50.05 191.278h117.323v49.764H50.05z"/><path fill="#999" d="M69.284 213.078v-4.64q0-.86-.36-1.282-.359-.422-1.14-.422-1 0-1.484.579-.485.578-.485 1.78v3.985h-1.078v-4.64q0-.86-.375-1.282-.359-.422-1.125-.422-1.015 0-1.5.61-.468.61-.468 2v3.734H60.19v-7.125h.891l.172.969h.047q.312-.516.86-.813.562-.296 1.25-.296 1.671 0 2.187 1.218h.047q.328-.562.921-.89.61-.328 1.391-.328 1.203 0 1.797.625.61.625.61 1.984v4.656h-1.079zm9.46-3.578q0 1.75-.875 2.734-.875.97-2.422.97-.953 0-1.703-.438-.734-.453-1.14-1.297-.407-.844-.407-1.969 0-1.734.875-2.703.875-.984 2.422-.984 1.485 0 2.36 1 .89 1 .89 2.687zm-5.422 0q0 1.375.547 2.094.547.703 1.594.703 1.062 0 1.61-.703.562-.719.562-2.094 0-1.36-.563-2.062-.547-.704-1.609-.704-1.063 0-1.61.704-.53.687-.53 2.062zm8.879 3.578l-2.703-7.125h1.156l1.531 4.219q.531 1.484.625 1.937h.047q.062-.359.437-1.437.391-1.078 1.72-4.719h1.155l-2.703 7.125h-1.265zm8.13.125q-1.578 0-2.5-.953-.906-.969-.906-2.672 0-1.734.843-2.75.86-1.015 2.282-1.015 1.343 0 2.125.89.78.875.78 2.328v.672H88.05q.03 1.266.625 1.922.61.64 1.703.64 1.14 0 2.265-.484v.97q-.562.25-1.078.343-.515.11-1.234.11zm-.297-6.484q-.86 0-1.375.562-.5.563-.594 1.547H91.8q0-1.015-.453-1.562-.454-.547-1.313-.547zm9.618 5.406h-.062q-.75 1.078-2.235 1.078-1.406 0-2.187-.953-.766-.953-.766-2.719 0-1.765.782-2.734.78-.984 2.171-.984 1.454 0 2.22 1.062h.093l-.047-.516-.031-.5v-2.906h1.078v10.125h-.875l-.14-.953zm-2.156.172q1.11 0 1.594-.594.5-.61.5-1.937v-.235q0-1.515-.5-2.156-.5-.656-1.61-.656-.953 0-1.453.75-.5.734-.5 2.078 0 1.36.5 2.062.5.688 1.469.688zm12.255.906q-.704 0-1.282-.25-.578-.265-.968-.797h-.079q.079.625.079 1.188v2.937h-1.079v-10.328h.891l.14.969h.048q.421-.578.968-.844.563-.265 1.282-.265 1.421 0 2.187.968.766.97.766 2.72 0 1.765-.782 2.733-.78.97-2.171.97zm-.157-6.469q-1.093 0-1.593.61-.485.594-.5 1.922v.234q0 1.516.5 2.156.515.641 1.609.641.937 0 1.453-.734.531-.75.531-2.063 0-1.344-.53-2.047-.517-.719-1.47-.719zm9.386 6.344l-.218-1.015h-.047q-.531.671-1.063.906-.53.234-1.328.234-1.062 0-1.672-.547-.593-.547-.593-1.547 0-2.156 3.453-2.265l1.218-.047v-.438q0-.843-.359-1.234-.36-.406-1.156-.406-.89 0-2.016.547l-.344-.828q.532-.282 1.157-.438.64-.172 1.265-.172 1.282 0 1.891.563.61.562.61 1.812v4.875h-.798zm-2.437-.765q1 0 1.578-.547.578-.563.578-1.547v-.64l-1.078.03q-1.281.047-1.86.407-.562.36-.562 1.11 0 .577.344.89.36.297 1 .297zm8.725-6.5q.469 0 .844.078l-.14 1q-.454-.094-.782-.094-.875 0-1.5.703-.61.703-.61 1.75v3.828h-1.078v-7.125h.89l.126 1.313h.062q.391-.703.954-1.078.562-.375 1.234-.375zm4.487 6.5q.282 0 .547-.032.266-.047.422-.093v.828q-.172.078-.515.125-.344.062-.61.062-2.078 0-2.078-2.172v-4.25h-1.016v-.515l1.016-.453.453-1.516h.625v1.656h2.078v.828H128.6v4.203q0 .641.313.985.312.344.843.344zm12.012-2.813q0 1.75-.875 2.734-.875.97-2.422.97-.953 0-1.703-.438-.735-.453-1.141-1.297-.406-.844-.406-1.969 0-1.734.875-2.703.875-.984 2.422-.984 1.484 0 2.359 1 .89 1 .89 2.687zm-5.422 0q0 1.375.547 2.094.546.703 1.593.703 1.063 0 1.61-.703.562-.719.562-2.094 0-1.36-.562-2.062-.547-.704-1.61-.704-1.062 0-1.61.704-.53.687-.53 2.062zm10.534-2.719h-1.812v6.297h-1.078v-6.297h-1.282v-.484l1.282-.39v-.391q0-2.64 2.297-2.64.562 0 1.328.233l-.282.86q-.625-.203-1.078-.203-.61 0-.906.406-.281.406-.281 1.312v.47h1.812v.827zm9.15 6.297l-.218-1.015h-.047q-.531.671-1.062.906-.532.234-1.328.234-1.063 0-1.672-.547-.594-.547-.594-1.547 0-2.156 3.453-2.265l1.219-.047v-.438q0-.843-.36-1.234-.359-.406-1.156-.406-.89 0-2.015.547l-.344-.828q.531-.282 1.156-.438.64-.172 1.266-.172 1.28 0 1.89.563.61.562.61 1.812v4.875h-.797zm-2.437-.765q1 0 1.578-.547.579-.563.579-1.547v-.64l-1.079.03q-1.28.047-1.859.407-.562.36-.562 1.11 0 .577.343.89.36.297 1 .297zM65.05 228.125h-.063q-.75 1.078-2.234 1.078-1.406 0-2.188-.953-.765-.953-.765-2.719 0-1.765.781-2.734.781-.984 2.172-.984 1.453 0 2.219 1.062h.093l-.046-.516-.032-.5v-2.906h1.078v10.125h-.875l-.14-.953zm-2.156.172q1.109 0 1.593-.594.5-.61.5-1.937v-.235q0-1.515-.5-2.156-.5-.656-1.609-.656-.953 0-1.453.75-.5.734-.5 2.078 0 1.36.5 2.062.5.688 1.469.688zm9.855.781l-.22-1.015h-.046q-.531.671-1.063.906-.53.234-1.328.234-1.062 0-1.672-.547-.593-.547-.593-1.547 0-2.156 3.453-2.265l1.219-.047v-.438q0-.843-.36-1.234-.36-.406-1.156-.406-.89 0-2.016.547l-.343-.828q.53-.282 1.156-.438.64-.172 1.265-.172 1.282 0 1.891.563.61.562.61 1.812v4.875h-.797zm-2.438-.765q1 0 1.578-.547.578-.563.578-1.547v-.64l-1.078.03q-1.281.047-1.86.407-.562.36-.562 1.11 0 .577.344.89.36.297 1 .297zm7.772 0q.281 0 .547-.032.265-.047.422-.093v.828q-.172.078-.516.125-.344.062-.61.062-2.078 0-2.078-2.172v-4.25h-1.015v-.515l1.015-.453.454-1.516h.625v1.656h2.078v.828h-2.078v4.203q0 .641.312.985.313.344.844.344zm6.783.765l-.219-1.015h-.046q-.532.671-1.063.906-.531.234-1.328.234-1.063 0-1.672-.547-.594-.547-.594-1.547 0-2.156 3.453-2.265l1.22-.047v-.438q0-.843-.36-1.234-.36-.406-1.156-.406-.891 0-2.016.547l-.344-.828q.531-.282 1.156-.438.641-.172 1.266-.172 1.281 0 1.89.563.61.562.61 1.812v4.875h-.797zm-2.437-.765q1 0 1.578-.547.578-.563.578-1.547v-.64l-1.078.03q-1.281.047-1.86.407-.562.36-.562 1.11 0 .577.344.89.36.297 1 .297zm10.068-1.188q0 1-.75 1.547-.734.531-2.078.531-1.422 0-2.218-.437v-1.016q.515.266 1.109.422.594.14 1.14.14.844 0 1.297-.265.454-.266.454-.828 0-.406-.36-.703-.36-.297-1.406-.703-1-.375-1.422-.641-.422-.281-.625-.625-.203-.36-.203-.844 0-.875.703-1.375.719-.515 1.953-.515 1.156 0 2.25.468l-.375.875q-1.078-.437-1.953-.437-.766 0-1.156.25-.39.234-.39.656 0 .281.14.484.156.204.469.391.328.172 1.25.531 1.28.453 1.718.922.453.469.453 1.172zm4.765 2.078q-1.578 0-2.5-.953-.906-.969-.906-2.672 0-1.734.843-2.75.86-1.015 2.282-1.015 1.343 0 2.125.89.78.875.78 2.328v.672h-4.905q.03 1.266.625 1.922.609.64 1.703.64 1.14 0 2.265-.484v.97q-.562.25-1.078.343-.515.11-1.234.11zm-.297-6.484q-.86 0-1.375.562-.5.563-.594 1.547h3.735q0-1.015-.454-1.562-.453-.547-1.312-.547zm7.071 5.594q.282 0 .547-.032.266-.047.422-.093v.828q-.172.078-.516.125-.343.062-.609.062-2.078 0-2.078-2.172v-4.25h-1.016v-.515l1.016-.453.453-1.516h.625v1.656h2.078v.828h-2.078v4.203q0 .641.313.985.312.344.843.344z"/><path d="M92.822 168.7h46.677v25.448H92.822z"/><path fill="#0097a7" d="M106.915 183.093q1.282 0 2 1 .735 1 .735 2.75 0 1.813-.75 2.797-.75.984-2.047.984-1.281 0-2-.921h-.14l-.329.796h-1.516v-10.125h1.985v2.36q0 .437-.078 1.437h.078q.687-1.078 2.062-1.078zm-.64 1.578q-.735 0-1.078.453-.329.454-.344 1.5v.22q0 1.155.344 1.671.343.5 1.109.5.61 0 .969-.562.359-.563.359-1.625 0-1.079-.375-1.61-.36-.547-.984-.547zm9.074-1.578q1.282 0 2 1 .735 1 .735 2.75 0 1.813-.75 2.797-.75.984-2.047.984-1.281 0-2-.921h-.14l-.329.796h-1.515v-10.125h1.984v2.36q0 .437-.078 1.437h.078q.687-1.078 2.062-1.078zm-.64 1.578q-.735 0-1.078.453-.328.454-.344 1.5v.22q0 1.155.344 1.671.343.5 1.11.5.608 0 .968-.562.36-.563.36-1.625 0-1.079-.376-1.61-.36-.547-.984-.547zm7.793-3.812q1.375 0 2.204.625.843.625.843 1.672 0 .734-.406 1.312-.406.563-1.312 1 1.078.578 1.53 1.203.47.625.47 1.36 0 1.172-.922 1.89-.907.703-2.407.703-1.562 0-2.453-.656-.89-.672-.89-1.89 0-.813.422-1.438.437-.625 1.406-1.11-.813-.515-1.172-1.093-.36-.594-.36-1.297 0-1.016.844-1.64.844-.641 2.203-.641zm-1.484 7.11q0 .562.39.874.391.313 1.063.313.75 0 1.125-.313.375-.328.375-.86 0-.437-.375-.812-.36-.39-1.187-.812-1.39.64-1.39 1.61zm1.469-5.641q-.516 0-.828.265-.313.266-.313.703 0 .391.25.703.25.313.906.641.641-.297.891-.61.25-.312.25-.734 0-.437-.328-.703-.313-.265-.828-.265z"/><path d="M280.593 139.543l-47.338 46.677"/><path stroke="#0097a7" stroke-width="2" stroke-linejoin="round" stroke-linecap="butt" stroke-dasharray="8.0,6.0" d="M280.593 139.543L241.8 177.795"/><path fill="#0097a7" stroke="#0097a7" stroke-width="2" stroke-linecap="butt" d="M239.48 175.443l-4.143 8.725 8.782-4.02z" fill-rule="evenodd"/><path d="M246.402 156.575h46.677v25.449h-46.677z"/><path fill="#0097a7" d="M260.495 170.969q1.282 0 2 1 .735 1 .735 2.75 0 1.812-.75 2.796-.75.985-2.047.985-1.281 0-2-.922h-.14l-.329.797h-1.516V168.25h1.985v2.36q0 .437-.078 1.437h.078q.687-1.078 2.062-1.078zm-.64 1.578q-.735 0-1.078.453-.329.453-.344 1.5v.219q0 1.156.344 1.671.343.5 1.109.5.61 0 .969-.562.36-.563.36-1.625 0-1.078-.376-1.61-.36-.546-.984-.546zm9.075-1.578q1.28 0 2 1 .734 1 .734 2.75 0 1.812-.75 2.796-.75.985-2.047.985-1.281 0-2-.922h-.14l-.329.797h-1.515V168.25h1.984v2.36q0 .437-.078 1.437h.078q.688-1.078 2.063-1.078zm-.641 1.578q-.734 0-1.078.453-.328.453-.344 1.5v.219q0 1.156.344 1.671.344.5 1.11.5.609 0 .968-.562.36-.563.36-1.625 0-1.078-.376-1.61-.36-.546-.984-.546zm7.793-3.813q1.375 0 2.204.625.843.625.843 1.672 0 .734-.406 1.313-.406.562-1.312 1 1.078.578 1.53 1.203.47.625.47 1.359 0 1.172-.922 1.89-.907.704-2.407.704-1.562 0-2.453-.656-.89-.672-.89-1.891 0-.813.422-1.438.437-.625 1.406-1.109-.813-.516-1.172-1.094-.36-.593-.36-1.297 0-1.015.844-1.64.844-.64 2.203-.64zm-1.484 7.11q0 .562.39.875.391.312 1.063.312.75 0 1.125-.312.375-.329.375-.86 0-.437-.375-.812-.36-.391-1.187-.813-1.39.64-1.39 1.61zm1.469-5.641q-.516 0-.828.266-.313.265-.313.703 0 .39.25.703.25.312.906.64.641-.296.891-.609.25-.312.25-.734 0-.438-.328-.703-.313-.266-.828-.266z"/><path d="M279.945 120.559c-106.992 0-213.984 28.488-213.984 56.976"/><path stroke="#0097a7" stroke-linejoin="round" stroke-linecap="butt" d="M279.945 120.559c-106.992 0-213.984 28.488-213.984 56.976"/><path d="M41.27 111.15h117.323v25.448H41.27z"/><path fill="#0097a7" d="M55.364 125.543q1.281 0 2 1 .734 1 .734 2.75 0 1.813-.75 2.797-.75.985-2.046.985-1.282 0-2-.922h-.141l-.328.797h-1.516v-10.125h1.985v2.359q0 .437-.079 1.437h.079q.687-1.078 2.062-1.078zm-.64 1.578q-.735 0-1.079.454-.328.453-.343 1.5v.218q0 1.157.343 1.672.344.5 1.11.5.61 0 .968-.562.36-.563.36-1.625 0-1.078-.375-1.61-.36-.547-.985-.547zm9.074-1.578q1.282 0 2 1 .735 1 .735 2.75 0 1.813-.75 2.797-.75.985-2.047.985-1.281 0-2-.922h-.14l-.329.797h-1.516v-10.125h1.985v2.359q0 .437-.078 1.437h.078q.687-1.078 2.062-1.078zm-.64 1.578q-.735 0-1.078.454-.329.453-.344 1.5v.218q0 1.157.344 1.672.343.5 1.109.5.61 0 .969-.562.359-.563.359-1.625 0-1.078-.375-1.61-.36-.547-.984-.547zm7.793-3.812q1.375 0 2.203.625.844.625.844 1.672 0 .734-.406 1.312-.406.563-1.313 1 1.078.578 1.532 1.203.468.625.468 1.36 0 1.172-.922 1.89-.906.704-2.406.704-1.562 0-2.453-.657-.89-.672-.89-1.89 0-.813.421-1.438.438-.625 1.407-1.11-.813-.515-1.172-1.093-.36-.594-.36-1.297 0-1.015.844-1.64.844-.641 2.203-.641zm-1.484 7.11q0 .562.39.874.391.313 1.063.313.75 0 1.125-.313.375-.328.375-.859 0-.438-.375-.813-.36-.39-1.188-.812-1.39.64-1.39 1.61zm1.469-5.641q-.516 0-.829.265-.312.266-.312.703 0 .391.25.704.25.312.906.64.64-.297.89-.61.25-.312.25-.734 0-.437-.327-.703-.313-.265-.828-.265zm7.663 5.406v-1.625h3.5v1.625h-3.5zm8.96-3.016h-1.718v5.782h-1.984v-5.782h-1.094v-.953l1.094-.547v-.53q0-1.235.61-1.813.608-.579 1.968-.579 1.015 0 1.828.313l-.516 1.453q-.593-.187-1.109-.187-.422 0-.61.25-.187.25-.187.64v.453h1.719v1.5zm1.052-3.375q0-.968 1.078-.968 1.094 0 1.094.968 0 .47-.281.72-.266.25-.813.25-1.078 0-1.078-.97zm2.078 9.157h-1.984v-7.282h1.984v7.282zm4.068 0h-1.985v-10.125h1.985v10.125zm5.083-6q-.625 0-.985.406-.359.39-.406 1.125h2.781q-.015-.735-.39-1.125-.36-.406-1-.406zm.281 6.125q-1.75 0-2.75-.97-.984-.968-.984-2.734 0-1.843.906-2.828.922-1 2.547-1 1.531 0 2.39.875.86.875.86 2.422v.969h-4.688q.032.844.5 1.328.47.469 1.313.469.656 0 1.234-.14.594-.141 1.235-.438v1.531q-.516.266-1.11.39-.594.126-1.453.126zm12.118-7.532q.39 0 .656.047l-.14 1.86q-.25-.063-.594-.063-.938 0-1.469.5-.531.484-.531 1.36v3.703h-1.984v-7.282h1.5l.296 1.235h.094q.344-.625.906-.985.579-.375 1.266-.375zm7.146 7.407l-.281-.938h-.094q-.328.516-.922.797-.578.266-1.328.266-1.281 0-1.937-.688-.641-.687-.641-1.969v-4.75h1.984v4.25q0 .797.282 1.188.28.39.89.39.828 0 1.203-.546.375-.563.375-1.86v-3.422h1.985v7.282h-1.516zm5.588 0h-1.985v-10.125h1.985v10.125zm5.083-6q-.625 0-.984.406-.36.39-.407 1.125h2.782q-.016-.735-.391-1.125-.36-.406-1-.406zm.281 6.125q-1.75 0-2.75-.97-.984-.968-.984-2.734 0-1.843.906-2.828.922-1 2.547-1 1.531 0 2.39.875.86.875.86 2.422v.969h-4.688q.032.844.5 1.328.47.469 1.313.469.656 0 1.234-.14.594-.141 1.235-.438v1.531q-.516.266-1.11.39-.593.126-1.453.126zm9.672-2.282q0 1.11-.782 1.703-.781.579-2.328.579-.797 0-1.36-.11-.562-.094-1.046-.312v-1.64q.562.265 1.25.437.687.171 1.219.171 1.078 0 1.078-.625 0-.234-.14-.375-.141-.14-.5-.328-.345-.187-.938-.437-.828-.344-1.235-.64-.39-.313-.578-.688-.172-.39-.172-.953 0-.985.75-1.5.766-.532 2.14-.532 1.313 0 2.563.563l-.609 1.437q-.547-.234-1.031-.375-.469-.156-.953-.156-.875 0-.875.469 0 .265.28.469.282.187 1.235.578.86.343 1.25.64t.578.688q.204.39.204.937z"/><path d="M266.01 212.654l-98.645 3.496"/><path stroke="#0097a7" stroke-width="2" stroke-linejoin="round" stroke-linecap="butt" stroke-dasharray="2.0,6.0" d="M266.01 212.654l-86.653 3.07"/><path fill="#0097a7" stroke="#0097a7" stroke-width="2" stroke-linecap="butt" d="M179.24 212.423l-8.953 3.623 9.187 2.98z" fill-rule="evenodd"/></g></svg>