<svg viewBox="0 0 345.454 336.365" fill="none" stroke-linecap="square" stroke-miterlimit="10" xmlns="http://www.w3.org/2000/svg"><clipPath id="a"><path d="M0 0h345.454v336.365H0V0z"/></clipPath><g clip-path="url(#a)"><path d="M0 0h345.454v336.365H0z"/><path d="M13.769 94.9c0-28.84 23.831-52.22 53.228-52.22 14.117 0 27.656 5.502 37.639 15.295 9.982 9.793 15.59 23.076 15.59 36.925 0 28.84-23.831 52.22-53.229 52.22-29.397 0-53.228-23.38-53.228-52.22z"/><path stroke="#595959" stroke-width="2" stroke-linejoin="round" stroke-linecap="butt" d="M13.769 94.9h0c0-28.84 23.831-52.22 53.228-52.22h0c14.117 0 27.656 5.502 37.639 15.295 9.982 9.793 15.59 23.076 15.59 36.925h0c0 28.84-23.831 52.22-53.229 52.22h0c-29.397 0-53.228-23.38-53.228-52.22z"/><path d="M38.367 11.341h64.756V42.68H38.367z"/><path fill="#999" d="M53.117 36.23q.735 0 1.75-.313v2.063q-1.046.469-2.546.469-1.672 0-2.438-.844-.75-.844-.75-2.531v-4.907H47.79V28.98l1.532-.922.812-2.156H51.9v2.172h2.86v2.093H51.9v4.907q0 .593.328.875.344.281.89.281zm11.88-8.313q0 1.25-.75 2.125t-2.125 1.204v.062q1.61.188 2.438.969.828.781.828 2.11 0 1.921-1.391 3-1.39 1.062-3.969 1.062-2.172 0-3.86-.719v-2.406q.782.39 1.704.64.938.25 1.844.25 1.39 0 2.062-.468.672-.485.672-1.532 0-.937-.765-1.328-.766-.39-2.454-.39h-1v-2.157h1.032q1.547 0 2.25-.406.718-.406.718-1.39 0-1.516-1.89-1.516-.656 0-1.344.219-.672.218-1.5.765L56.2 26.058q1.813-1.312 4.344-1.312 2.062 0 3.25.843 1.203.844 1.203 2.328zm9.68 7.313q0 1.578-1.093 2.406-1.079.813-3.25.813-1.11 0-1.891-.157-.781-.156-1.469-.437v-2.297q.766.36 1.735.61.984.25 1.718.25 1.516 0 1.516-.876 0-.328-.203-.53-.203-.22-.703-.47-.485-.265-1.313-.609-1.172-.484-1.719-.906-.546-.422-.796-.953-.25-.547-.25-1.344 0-1.36 1.046-2.094 1.047-.75 2.985-.75 1.844 0 3.578.797l-.844 2.016q-.765-.328-1.437-.532-.657-.218-1.344-.218-1.234 0-1.234.656 0 .375.39.656.406.266 1.75.813 1.188.468 1.735.89.562.422.828.97.265.546.265 1.296z"/><path d="M13.769 258.808c0-28.84 23.831-52.22 53.228-52.22 14.117 0 27.656 5.502 37.639 15.295 9.982 9.793 15.59 23.076 15.59 36.925 0 28.84-23.831 52.22-53.229 52.22-29.397 0-53.228-23.38-53.228-52.22z"/><path stroke="#595959" stroke-width="2" stroke-linejoin="round" stroke-linecap="butt" d="M13.769 258.808h0c0-28.84 23.831-52.22 53.228-52.22h0c14.117 0 27.656 5.502 37.639 15.295 9.982 9.793 15.59 23.076 15.59 36.925h0c0 28.84-23.831 52.22-53.229 52.22h0c-29.397 0-53.228-23.38-53.228-52.22z"/><path d="M214.52 94.9c0-28.84 23.83-52.22 53.228-52.22 14.117 0 27.656 5.502 37.638 15.295s15.59 23.076 15.59 36.925c0 28.84-23.83 52.22-53.228 52.22-29.397 0-53.228-23.38-53.228-52.22z"/><path stroke="#595959" stroke-width="2" stroke-linejoin="round" stroke-linecap="butt" d="M214.52 94.9h0c0-28.84 23.83-52.22 53.228-52.22h0c14.117 0 27.656 5.502 37.638 15.295s15.59 23.076 15.59 36.925h0c0 28.84-23.83 52.22-53.228 52.22h0c-29.397 0-53.228-23.38-53.228-52.22z"/><path d="M219.769 252.142c0-28.84 23.831-52.22 53.228-52.22 14.117 0 27.656 5.501 37.639 15.294 9.982 9.794 15.59 23.076 15.59 36.926 0 28.84-23.831 52.22-53.229 52.22-29.397 0-53.228-23.38-53.228-52.22z"/><path stroke="#595959" stroke-width="2" stroke-linejoin="round" stroke-linecap="butt" d="M219.769 252.142h0c0-28.84 23.831-52.22 53.228-52.22h0c14.117 0 27.656 5.501 37.639 15.294 9.982 9.794 15.59 23.076 15.59 36.926h0c0 28.84-23.831 52.22-53.229 52.22h0c-29.397 0-53.228-23.38-53.228-52.22z"/><path d="M34.62 304.362h64.755v31.339H34.62z"/><path fill="#999" d="M49.37 329.25q.734 0 1.75-.312v2.063q-1.047.469-2.547.469-1.672 0-2.438-.844-.75-.844-.75-2.531v-4.907h-1.344v-1.187l1.532-.922.812-2.156h1.766v2.172h2.859v2.093h-2.86v4.907q0 .593.329.875.344.28.89.28zm10.05 2.032h-2.812v-7.703l.032-1.266.047-1.39q-.704.703-.985.922l-1.531 1.234-1.344-1.703 4.281-3.406h2.313v13.312zm11.51-3.031q0 1.578-1.094 2.406-1.079.813-3.25.813-1.11 0-1.891-.157-.781-.156-1.469-.437v-2.297q.766.36 1.735.61.984.25 1.718.25 1.516 0 1.516-.876 0-.328-.203-.53-.203-.22-.703-.47-.485-.265-1.313-.609-1.172-.484-1.719-.906-.546-.422-.796-.953-.25-.547-.25-1.344 0-1.36 1.046-2.094 1.047-.75 2.985-.75 1.844 0 3.578.797l-.844 2.016q-.765-.328-1.437-.532-.657-.218-1.344-.218-1.234 0-1.234.656 0 .375.39.656.406.266 1.75.813 1.188.468 1.735.89.562.422.828.97.265.546.265 1.296z"/><path d="M214.52 294.362h137.354v31.339H214.52z"/><path fill="#999" d="M229.27 319.25q.734 0 1.75-.312v2.063q-1.047.469-2.547.469-1.672 0-2.438-.844-.75-.844-.75-2.531v-4.907h-1.343v-1.187l1.53-.922.813-2.156h1.766v2.172h2.86v2.093h-2.86v4.907q0 .593.328.875.344.28.89.28zm12.41 2.032h-9.312v-1.953l3.344-3.39q1.484-1.516 1.937-2.094.453-.594.657-1.094.203-.5.203-1.047 0-.797-.453-1.187-.438-.391-1.172-.391-.782 0-1.516.36-.719.343-1.516 1l-1.53-1.813q.984-.828 1.624-1.172.656-.36 1.422-.547.766-.187 1.719-.187 1.25 0 2.203.468.953.453 1.484 1.282.532.812.532 1.859 0 .922-.329 1.734-.328.797-1.015 1.657-.672.843-2.375 2.406l-1.719 1.61v.124h5.813v2.375zm9.15-3.031q0 1.578-1.094 2.406-1.078.813-3.25.813-1.11 0-1.89-.157-.782-.156-1.47-.437v-2.297q.766.36 1.735.61.984.25 1.719.25 1.515 0 1.515-.876 0-.328-.203-.53-.203-.22-.703-.47-.484-.265-1.313-.609-1.171-.484-1.718-.906-.547-.422-.797-.953-.25-.547-.25-1.344 0-1.36 1.047-2.094 1.047-.75 2.984-.75 1.844 0 3.578.797l-.844 2.016q-.765-.328-1.437-.532-.656-.218-1.344-.218-1.234 0-1.234.656 0 .375.39.656.407.266 1.75.813 1.188.468 1.735.89.562.422.828.97.266.546.266 1.296zm6.12-.828v-2.281h4.89v2.28h-4.89zm21.146 3.86h-2.782v-5.954q0-1.094-.39-1.64-.391-.563-1.25-.563-1.157 0-1.688.781-.515.781-.515 2.578v4.797h-2.782v-10.187h2.125l.375 1.312h.157q.468-.75 1.28-1.125.813-.375 1.845-.375 1.78 0 2.703.969.922.953.922 2.766v6.64zm10.073 0l-.375-1.298h-.14q-.453.703-1.281 1.094-.813.39-1.86.39-1.797 0-2.703-.952-.906-.97-.906-2.782v-6.64h2.781v5.953q0 1.094.39 1.656.391.547 1.25.547 1.157 0 1.673-.781.53-.782.53-2.578v-4.797h2.766v10.187h-2.125zm9.184.187q-4.75 0-4.75-5.22 0-2.608 1.28-3.968 1.298-1.375 3.72-1.375 1.765 0 3.172.688l-.829 2.156q-.656-.266-1.218-.438-.563-.171-1.125-.171-2.172 0-2.172 3.078 0 3 2.172 3 .797 0 1.468-.22.688-.218 1.375-.67v2.374q-.671.438-1.359.594-.687.172-1.734.172zm8.233-.188h-2.782V307.11h2.782v14.172zm7.13-8.406q-.874 0-1.374.562-.5.563-.579 1.594h3.891q-.016-1.031-.531-1.594-.516-.562-1.406-.562zm.391 8.594q-2.453 0-3.844-1.36-1.375-1.36-1.375-3.843 0-2.563 1.266-3.954 1.281-1.406 3.547-1.406 2.156 0 3.36 1.235 1.202 1.218 1.202 3.39v1.344h-6.562q.047 1.187.703 1.86.656.656 1.828.656.922 0 1.735-.188.828-.187 1.718-.61v2.157q-.718.36-1.547.531-.828.188-2.03.188zm6.304-13q0-1.36 1.5-1.36 1.516 0 1.516 1.36 0 .64-.375 1t-1.141.36q-1.5 0-1.5-1.36zm2.89 12.812h-2.78v-10.187h2.78v10.187z"/><path d="M176.646 11.341H358.85V42.68H176.646z"/><path fill="#999" d="M191.396 36.23q.734 0 1.75-.313v2.063q-1.047.469-2.547.469-1.672 0-2.438-.844-.75-.844-.75-2.531v-4.907h-1.343V28.98l1.53-.922.813-2.156h1.766v2.172h2.86v2.093h-2.86v4.907q0 .593.328.875.344.281.89.281zm12.41 2.031h-9.312v-1.953l3.344-3.39q1.484-1.516 1.937-2.094.453-.594.657-1.094.203-.5.203-1.047 0-.797-.453-1.187-.438-.391-1.172-.391-.782 0-1.516.36-.719.343-1.516 1l-1.53-1.813q.984-.828 1.624-1.172.656-.36 1.422-.547.766-.187 1.719-.187 1.25 0 2.203.468.953.453 1.484 1.282.532.812.532 1.859 0 .922-.329 1.734-.328.797-1.015 1.657-.672.843-2.375 2.406l-1.719 1.61v.124h5.813v2.375zm9.15-3.031q0 1.578-1.094 2.406-1.078.813-3.25.813-1.11 0-1.89-.157-.782-.156-1.47-.437v-2.297q.766.36 1.735.61.984.25 1.719.25 1.515 0 1.515-.876 0-.328-.203-.53-.203-.22-.703-.47-.484-.265-1.313-.609-1.171-.484-1.718-.906-.547-.422-.797-.953-.25-.547-.25-1.344 0-1.36 1.047-2.094 1.047-.75 2.984-.75 1.844 0 3.578.797l-.844 2.016q-.765-.328-1.437-.532-.656-.218-1.344-.218-1.234 0-1.234.656 0 .375.39.656.407.266 1.75.813 1.188.468 1.735.89.562.422.828.97.266.546.266 1.296zm6.12-.828V32.12h4.89v2.28h-4.89zm21.146 3.86h-2.782v-5.954q0-1.094-.39-1.64-.391-.563-1.25-.563-1.157 0-1.688.781-.515.781-.515 2.578v4.797h-2.782V28.074h2.125l.375 1.312h.157q.468-.75 1.28-1.125.813-.375 1.845-.375 1.78 0 2.703.969.922.953.922 2.766v6.64zm5.073-5.11q0 1.515.5 2.297.5.765 1.61.765t1.594-.765q.5-.782.5-2.297 0-1.516-.5-2.266-.485-.765-1.61-.765-1.11 0-1.61.765-.484.75-.484 2.266zm7.047 0q0 2.484-1.312 3.89-1.313 1.407-3.656 1.407-1.47 0-2.594-.64-1.11-.657-1.719-1.845-.594-1.203-.594-2.812 0-2.5 1.297-3.875 1.297-1.39 3.656-1.39 1.47 0 2.594.64 1.125.64 1.719 1.828.61 1.187.61 2.797zm11.692 5.11h-2.781v-5.954q0-1.094-.391-1.64-.39-.563-1.25-.563-1.156 0-1.688.781-.515.781-.515 2.578v4.797h-2.781V28.074h2.125l.375 1.312h.156q.469-.75 1.281-1.125.813-.375 1.844-.375 1.781 0 2.703.969.922.953.922 2.766v6.64zm1.964-3.86V32.12h4.89v2.28h-4.89zm16.3 3.86h-2.781v-5.954q0-1.094-.39-1.64-.391-.563-1.25-.563-1.157 0-1.688.781-.516.781-.516 2.578v4.797h-2.781V28.074h2.125l.375 1.312h.156q.469-.75 1.282-1.125.812-.375 1.843-.375 1.782 0 2.703.969.922.953.922 2.766v6.64zm10.074 0l-.375-1.298h-.14q-.454.703-1.282 1.094-.812.39-1.86.39-1.796 0-2.702-.952-.906-.97-.906-2.782v-6.64h2.78v5.953q0 1.094.391 1.656.391.547 1.25.547 1.157 0 1.672-.781.532-.782.532-2.578v-4.797h2.765V38.26h-2.125zm9.183.187q-4.75 0-4.75-5.219 0-2.61 1.282-3.969 1.297-1.375 3.718-1.375 1.766 0 3.172.688l-.828 2.156q-.656-.266-1.219-.438-.562-.171-1.125-.171-2.171 0-2.171 3.078 0 3 2.171 3 .797 0 1.47-.219.687-.219 1.374-.672v2.375q-.672.438-1.36.594-.687.172-1.734.172zm8.233-.188h-2.78V24.09h2.78v14.172zm7.131-8.406q-.875 0-1.375.562-.5.563-.578 1.594h3.89q-.015-1.031-.53-1.594-.516-.562-1.407-.562zm.39 8.594q-2.452 0-3.843-1.36-1.375-1.359-1.375-3.843 0-2.563 1.266-3.954 1.281-1.406 3.547-1.406 2.156 0 3.359 1.235 1.203 1.218 1.203 3.39v1.344h-6.562q.047 1.187.703 1.86.656.656 1.828.656.922 0 1.734-.188.828-.187 1.719-.61v2.157q-.719.36-1.547.531-.828.188-2.031.188zm6.305-13q0-1.36 1.5-1.36 1.515 0 1.515 1.36 0 .64-.375 1t-1.14.36q-1.5 0-1.5-1.36zm2.89 12.812h-2.781V28.074h2.781V38.26z"/><path fill="#4a7dba" d="M76.037 243.194l5.834-6.1v2.918c7.383-.682 13.369-2.61 16.033-5.166 2.31 2.216 1.885 4.679-1.172 6.776-3.057 2.098-8.458 3.633-14.86 4.224v2.918z" fill-rule="evenodd"/><path fill="#3b6394" d="M99.375 237.763c0-4.61-10.449-8.348-23.338-8.348v-5.835c12.89 0 23.338 3.738 23.338 8.348z" fill-rule="evenodd"/><path d="M99.375 237.763c0-4.61-10.449-8.348-23.338-8.348v-5.835c12.89 0 23.338 3.738 23.338 8.348v5.835c0 3.807-7.2 7.132-17.504 8.083v2.918l-5.834-5.57 5.834-6.1v2.918c7.383-.682 13.369-2.61 16.033-5.166"/><path stroke="#00f" stroke-linejoin="round" stroke-linecap="butt" d="M99.375 237.763c0-4.61-10.449-8.348-23.338-8.348v-5.835h0c12.89 0 23.338 3.738 23.338 8.348v5.835c0 3.807-7.2 7.132-17.504 8.083v2.918l-5.834-5.57 5.834-6.1v2.918h0c7.383-.682 13.369-2.61 16.033-5.166"/><path fill="#4a7dba" d="M261.328 72.165l5.835-6.1v2.918c7.382-.682 13.368-2.61 16.032-5.166 2.311 2.216 1.885 4.68-1.172 6.777-3.057 2.097-8.458 3.632-14.86 4.224v2.917z" fill-rule="evenodd"/><path fill="#3b6394" d="M284.667 66.734c0-4.61-10.45-8.348-23.339-8.348V52.55c12.89 0 23.339 3.738 23.339 8.349z" fill-rule="evenodd"/><path d="M284.667 66.734c0-4.61-10.45-8.348-23.339-8.348V52.55c12.89 0 23.339 3.738 23.339 8.349v5.834c0 3.807-7.2 7.132-17.504 8.084v2.917l-5.835-5.57 5.835-6.1v2.918c7.382-.682 13.368-2.61 16.032-5.166"/><path stroke="#00f" stroke-linejoin="round" stroke-linecap="butt" d="M284.667 66.734c0-4.61-10.45-8.348-23.339-8.348V52.55h0c12.89 0 23.339 3.738 23.339 8.349v5.834c0 3.807-7.2 7.132-17.504 8.084v2.917l-5.835-5.57 5.835-6.1v2.918h0c7.382-.682 13.368-2.61 16.032-5.166"/><path d="M82.415 259.228c0-3.374 9.072-6.61 25.22-8.997 16.15-2.386 38.052-3.727 60.89-3.727 47.557 0 86.11 5.697 86.11 12.724 0 7.028-38.553 12.725-86.11 12.725s-86.11-5.697-86.11-12.725z"/><path stroke="#4a7dba" stroke-width="3" stroke-linejoin="round" stroke-linecap="butt" d="M82.415 259.228h0c0-3.374 9.072-6.61 25.22-8.997 16.15-2.386 38.052-3.727 60.89-3.727h0c47.557 0 86.11 5.697 86.11 12.724h0c0 7.028-38.553 12.725-86.11 12.725h0c-47.557 0-86.11-5.697-86.11-12.725z"/><path fill="#4a7dba" d="M149.076 237.304h35.008v-1.944l3.89 3.89-3.89 3.89v-1.946h-35.008z" fill-rule="evenodd"/><path stroke="#00f" stroke-linejoin="round" stroke-linecap="butt" d="M149.076 237.304h35.008v-1.944l3.89 3.89-3.89 3.89v-1.946h-35.008z"/><path fill="#4a7dba" d="M143.882 279.207l3.89-3.89v1.945h35.008v3.89h-35.008v1.945z" fill-rule="evenodd"/><path stroke="#00f" stroke-linejoin="round" stroke-linecap="butt" d="M143.882 279.207l3.89-3.89v1.945h35.008v3.89h-35.008v1.945z"/><path fill="#4a7dba" d="M246.483 246.202l5.835-6.1v2.918c7.382-.682 13.368-2.61 16.032-5.166 2.31 2.216 1.885 4.679-1.172 6.776-3.057 2.098-8.458 3.633-14.86 4.224v2.918z" fill-rule="evenodd"/><path fill="#3b6394" d="M269.822 240.771c0-4.61-10.45-8.348-23.34-8.348v-5.835c12.89 0 23.34 3.738 23.34 8.348z" fill-rule="evenodd"/><path d="M269.822 240.771c0-4.61-10.45-8.348-23.34-8.348v-5.835c12.89 0 23.34 3.738 23.34 8.348v5.835c0 3.807-7.2 7.132-17.504 8.083v2.918l-5.835-5.57 5.835-6.1v2.918c7.382-.682 13.368-2.61 16.032-5.166"/><path stroke="#00f" stroke-linejoin="round" stroke-linecap="butt" d="M269.822 240.771c0-4.61-10.45-8.348-23.34-8.348v-5.835h0c12.89 0 23.34 3.738 23.34 8.348v5.835c0 3.807-7.2 7.132-17.504 8.083v2.918l-5.835-5.57 5.835-6.1v2.918h0c7.382-.682 13.368-2.61 16.032-5.166"/><path d="M71.315 96.551h185.543"/><path stroke="#6aa84f" stroke-width="3" stroke-linejoin="round" stroke-linecap="butt" d="M71.315 96.551h167.543"/><path fill="#6aa84f" stroke="#6aa84f" stroke-width="3" stroke-linecap="butt" d="M238.858 101.506l13.615-4.955-13.615-4.955z" fill-rule="evenodd"/><path fill="#6aa84f" d="M289.551 101.79l5.835-6.1v2.918c7.382-.682 13.368-2.611 16.032-5.166 2.311 2.216 1.885 4.679-1.172 6.776-3.057 2.098-8.458 3.633-14.86 4.224v2.918z" fill-rule="evenodd"/><path fill="#54863f" d="M312.89 96.359c0-4.61-10.45-8.349-23.339-8.349v-5.834c12.89 0 23.339 3.738 23.339 8.348z" fill-rule="evenodd"/><path d="M312.89 96.359c0-4.61-10.45-8.349-23.339-8.349v-5.834c12.89 0 23.339 3.738 23.339 8.348v5.835c0 3.807-7.2 7.132-17.504 8.083v2.918l-5.835-5.57 5.835-6.1v2.918c7.382-.682 13.368-2.611 16.032-5.166"/><path stroke="#6aa84f" stroke-linejoin="round" stroke-linecap="butt" d="M312.89 96.359c0-4.61-10.45-8.349-23.339-8.349v-5.834h0c12.89 0 23.339 3.738 23.339 8.348v5.835c0 3.807-7.2 7.132-17.504 8.083v2.918l-5.835-5.57 5.835-6.1v2.918h0c7.382-.682 13.368-2.611 16.032-5.166"/><path d="M276.436 186.181c0-40.321 5.979-73.008 13.354-73.008 3.542 0 6.939 7.692 9.443 21.384 2.504 13.691 3.911 32.261 3.911 51.624 0 40.321-5.979 73.008-13.354 73.008-3.542 0-6.938-7.692-9.443-21.384-2.504-13.691-3.911-32.261-3.911-51.624z"/><path stroke="#6aa84f" stroke-width="3" stroke-linejoin="round" stroke-linecap="butt" d="M276.436 186.181h0c0-40.321 5.979-73.008 13.354-73.008h0c3.542 0 6.939 7.692 9.443 21.384 2.504 13.691 3.911 32.261 3.911 51.624h0c0 40.321-5.979 73.008-13.354 73.008h0c-3.542 0-6.938-7.692-9.443-21.384-2.504-13.691-3.911-32.261-3.911-51.624z"/><path fill="#6aa84f" d="M278.12 286.097l5.835-6.1v2.918c7.383-.682 13.369-2.61 16.033-5.166 2.31 2.216 1.885 4.679-1.172 6.776-3.057 2.098-8.458 3.633-14.86 4.224v2.918z" fill-rule="evenodd"/><path fill="#54863f" d="M301.46 280.666c0-4.61-10.45-8.348-23.34-8.348v-5.835c12.89 0 23.34 3.738 23.34 8.348z" fill-rule="evenodd"/><path d="M301.46 280.666c0-4.61-10.45-8.348-23.34-8.348v-5.835c12.89 0 23.34 3.738 23.34 8.348v5.835c0 3.807-7.2 7.132-17.505 8.083v2.918l-5.834-5.57 5.834-6.1v2.918c7.383-.682 13.369-2.61 16.033-5.166"/><path stroke="#6aa84f" stroke-linejoin="round" stroke-linecap="butt" d="M301.46 280.666c0-4.61-10.45-8.348-23.34-8.348v-5.835h0c12.89 0 23.34 3.738 23.34 8.348v5.835c0 3.807-7.2 7.132-17.505 8.083v2.918l-5.834-5.57 5.834-6.1v2.918h0c7.383-.682 13.369-2.61 16.033-5.166"/><path fill="#6aa84f" d="M59.076 295.047l5.835-6.1v2.918c7.382-.682 13.368-2.61 16.032-5.166 2.311 2.216 1.885 4.679-1.172 6.776-3.057 2.098-8.458 3.633-14.86 4.224v2.918z" fill-rule="evenodd"/><path fill="#54863f" d="M82.415 289.616c0-4.61-10.45-8.348-23.339-8.348v-5.835c12.89 0 23.339 3.738 23.339 8.348z" fill-rule="evenodd"/><path d="M82.415 289.616c0-4.61-10.45-8.348-23.339-8.348v-5.835c12.89 0 23.339 3.738 23.339 8.348v5.835c0 3.807-7.2 7.132-17.504 8.083v2.918l-5.835-5.57 5.835-6.1v2.918c7.382-.682 13.368-2.61 16.032-5.166"/><path stroke="#6aa84f" stroke-linejoin="round" stroke-linecap="butt" d="M82.415 289.616c0-4.61-10.45-8.348-23.339-8.348v-5.835h0c12.89 0 23.339 3.738 23.339 8.348v5.835c0 3.807-7.2 7.132-17.504 8.083v2.918l-5.835-5.57 5.835-6.1v2.918h0c7.382-.682 13.368-2.61 16.032-5.166"/><path d="M122.425 136.551h132.22v60.126h-132.22z"/><path fill="#6aa84f" d="M141.472 158.132q0 .063-.031.11t-.125.078q-.094.031-.25.047-.156.015-.406.015-.235 0-.391-.015-.156-.016-.25-.047t-.14-.078q-.032-.047-.032-.11v-3.437q0-.297-.062-.531-.047-.25-.172-.422-.11-.172-.282-.266-.171-.094-.406-.094-.297 0-.594.235-.296.219-.656.656v3.86q0 .062-.047.109-.03.047-.125.078-.093.031-.25.047-.156.015-.39.015-.235 0-.39-.015-.157-.016-.25-.047-.095-.031-.142-.078-.03-.047-.03-.11v-3.437q0-.297-.063-.531-.047-.25-.172-.422-.11-.172-.281-.266-.172-.094-.407-.094-.297 0-.593.235-.297.219-.657.656v3.86q0 .062-.047.109-.03.047-.125.078-.093.031-.25.047-.156.015-.39.015-.235 0-.39-.015-.157-.016-.266-.047-.094-.031-.141-.078-.031-.047-.031-.11v-5.812q0-.063.031-.11.047-.046.125-.078.078-.03.219-.046.14-.016.328-.016.219 0 .344.016.14.015.218.046.078.032.11.079.031.046.031.109v.672q.484-.516.953-.766.484-.265 1-.265.36 0 .64.078.298.062.516.203.235.14.391.344.172.187.281.421.25-.265.5-.468t.5-.328q.25-.141.485-.188.25-.062.5-.062.578 0 .968.203.407.187.641.515.25.328.344.782.11.453.11.953v3.718zm6.56.016q0 .094-.062.156-.062.047-.203.063-.14.015-.422.015-.28 0-.421-.015-.141-.016-.204-.063-.046-.062-.046-.156v-.453q-.36.375-.813.594-.453.218-1.016.218-.468 0-.859-.125-.375-.125-.656-.359-.281-.234-.438-.578-.156-.36-.156-.828 0-.516.188-.89.203-.376.593-.61.39-.25.97-.36.593-.125 1.374-.125h.563v-.343q0-.282-.063-.485-.047-.203-.172-.343-.125-.141-.344-.204-.203-.062-.515-.062-.406 0-.735.094-.328.093-.578.203-.234.11-.406.203-.172.094-.266.094-.078 0-.14-.047-.047-.047-.094-.125-.031-.094-.047-.219-.015-.125-.015-.266 0-.203.03-.312.032-.125.126-.219t.312-.203q.235-.125.532-.219.312-.11.671-.156.36-.062.75-.062.688 0 1.172.14.485.125.797.406.313.266.453.704.14.437.14 1.03v3.907zm-1.608-2.484h-.625q-.391 0-.672.062-.282.047-.47.172-.17.11-.25.281-.077.172-.077.375 0 .375.234.578.235.204.64.204.345 0 .626-.172.297-.172.594-.516v-.984zm8.782 2.468q0 .063-.047.11-.031.047-.125.078-.078.031-.25.047-.156.015-.39.015-.235 0-.407-.015-.156-.016-.25-.047-.078-.031-.125-.078-.03-.047-.03-.11v-3.312q0-.422-.063-.656-.063-.25-.188-.422-.11-.172-.297-.266-.187-.094-.437-.094-.313 0-.625.235-.313.219-.672.656v3.86q0 .062-.047.109-.031.047-.125.078t-.25.047q-.156.015-.39.015-.235 0-.391-.015-.156-.016-.266-.047-.094-.031-.14-.078-.032-.047-.032-.11v-5.812q0-.063.032-.11.046-.046.125-.078.078-.03.218-.046t.328-.016q.22 0 .344.016.14.015.219.046.078.032.11.079.03.046.03.109v.672q.485-.516.985-.766.5-.265 1.031-.265.594 0 1 .203.406.187.656.515t.36.782q.11.453.11 1.078v3.593zm7.121 0q0 .063-.031.11t-.125.078q-.078.031-.219.047-.125.015-.328.015t-.344-.015q-.14-.016-.219-.047-.078-.031-.109-.078t-.031-.11v-.671q-.485.515-.985.78-.484.266-1.015.266-.61 0-1.016-.187-.406-.203-.656-.547-.25-.344-.36-.781-.109-.453-.109-1.11v-3.562q0-.063.031-.11.047-.046.141-.078.094-.03.25-.046t.39-.016q.25 0 .407.016.156.015.25.046.094.032.125.079.047.046.047.109v3.281q0 .453.047.703.062.235.187.407.125.171.313.265.187.094.422.094.312 0 .625-.219.328-.234.687-.672v-3.86q0-.062.031-.108.032-.047.125-.079.094-.03.25-.046.157-.016.407-.016.234 0 .39.016.156.015.25.046.094.032.125.079.047.046.047.109v5.812zm6.59.016q0 .094-.063.156-.062.047-.203.063-.14.015-.422.015-.281 0-.422-.015-.14-.016-.203-.063-.047-.062-.047-.156v-.453q-.359.375-.812.594-.453.218-1.016.218-.469 0-.86-.125-.374-.125-.655-.359-.282-.234-.438-.578-.156-.36-.156-.828 0-.516.187-.89.203-.376.594-.61.39-.25.969-.36.594-.125 1.375-.125h.562v-.343q0-.282-.062-.485-.047-.203-.172-.343-.125-.141-.344-.204-.203-.062-.515-.062-.407 0-.735.094-.328.093-.578.203-.234.11-.406.203-.172.094-.266.094-.078 0-.14-.047-.047-.047-.094-.125-.031-.094-.047-.219t-.016-.266q0-.203.032-.312.03-.125.125-.219.093-.094.312-.203.234-.125.531-.219.313-.11.672-.156.36-.062.75-.062.688 0 1.172.14.484.125.797.406.312.266.453.704.14.437.14 1.03v3.907zm-1.61-2.484h-.625q-.39 0-.672.062-.28.047-.468.172-.172.11-.25.281-.078.172-.078.375 0 .375.234.578.234.204.64.204.344 0 .626-.172.296-.172.593-.516v-.984zm4.877 2.468q0 .063-.047.11-.031.047-.125.078t-.25.047q-.156.015-.39.015-.235 0-.391-.015-.157-.016-.266-.047-.094-.031-.14-.078-.032-.047-.032-.11v-8.562q0-.063.031-.11.047-.062.141-.093.11-.031.266-.047.156-.031.39-.031.235 0 .39.03.157.017.25.048.095.031.126.094.047.046.047.109v8.562z"/><path fill="#4a7dba" d="M138.097 171.148q0 .781-.172 1.406-.172.61-.5 1.047-.312.438-.781.672-.469.234-1.047.234-.297 0-.562-.062-.25-.063-.485-.172-.219-.125-.453-.312-.219-.188-.453-.47v.641q0 .063-.047.125-.031.047-.11.079-.077.03-.218.03-.125.016-.328.016t-.344-.015q-.125 0-.203-.031-.078-.032-.125-.079-.031-.062-.031-.125v-8.562q0-.063.031-.11.047-.062.14-.093.11-.031.266-.047.156-.031.39-.031.235 0 .391.03.157.017.25.048.094.031.125.094.047.046.047.109v3.203q.235-.219.453-.375.22-.156.438-.25.219-.11.453-.14.234-.047.5-.047.64 0 1.094.25.453.25.734.687.281.438.406 1.031.141.578.141 1.22zm-1.703.125q0-.375-.063-.719-.046-.343-.187-.61-.14-.265-.36-.42-.218-.173-.546-.173-.157 0-.313.047t-.328.156q-.172.11-.344.297-.172.172-.375.422v1.938q.36.437.672.671.313.22.656.22.313 0 .532-.157.234-.156.375-.422.14-.266.203-.594.078-.328.078-.656zm7.949 2.875q0 .094-.063.156-.062.047-.203.063-.14.015-.422.015-.28 0-.421-.015-.141-.016-.204-.063-.046-.062-.046-.156v-.453q-.36.375-.813.594-.453.218-1.016.218-.468 0-.859-.125-.375-.125-.656-.359-.281-.234-.438-.578-.156-.36-.156-.828 0-.516.188-.89.203-.376.593-.61.391-.25.97-.36.593-.125 1.374-.125h.563v-.343q0-.282-.063-.485-.047-.203-.172-.343-.125-.141-.344-.204-.203-.062-.515-.062-.406 0-.735.094-.328.093-.578.203-.234.11-.406.203-.172.094-.266.094-.078 0-.14-.047-.047-.047-.094-.125-.031-.094-.047-.219-.015-.125-.015-.266 0-.203.03-.312.032-.125.126-.219t.312-.203q.235-.125.532-.219.312-.11.671-.156.36-.062.75-.062.688 0 1.172.14.485.125.797.406.313.266.453.704.141.437.141 1.03v3.907zm-1.61-2.484h-.624q-.391 0-.672.062-.282.047-.469.172-.172.11-.25.281-.078.172-.078.375 0 .375.234.578.235.204.64.204.345 0 .626-.172.297-.172.594-.516v-.984zm7.643 1.547q0 .171-.016.28-.016.11-.031.188-.016.078-.047.125-.016.047-.094.125t-.266.188q-.187.11-.437.187-.234.078-.516.125-.28.063-.578.063-.672 0-1.187-.203-.516-.203-.875-.61-.344-.422-.532-1-.171-.593-.171-1.343 0-.875.218-1.5.22-.641.61-1.047.39-.422.922-.625.53-.203 1.171-.203.266 0 .516.046.25.047.469.125.219.079.39.172.172.094.235.172.078.063.11.125.03.047.046.125t.016.188q.015.11.015.28 0 .376-.062.532-.063.14-.172.14-.11 0-.234-.077-.125-.094-.297-.203-.172-.11-.407-.204-.234-.093-.546-.093-.641 0-.985.5-.344.484-.344 1.437 0 .469.079.828.093.344.265.594.172.234.422.36.25.124.578.124.328 0 .578-.093.25-.11.422-.235.188-.125.313-.218.125-.11.203-.11.062 0 .094.031.046.032.062.125.031.079.047.22.016.14.016.359zm6.577.921q0 .063-.047.125-.031.047-.125.079-.094.015-.266.03-.156.016-.406.016-.266 0-.437-.015-.172 0-.282-.031-.093-.032-.156-.079-.062-.062-.11-.14l-1.937-3.063v3.078q0 .063-.047.11-.03.047-.125.078-.093.031-.25.047-.156.015-.39.015-.235 0-.39-.015-.157-.016-.267-.047-.093-.031-.14-.078-.031-.047-.031-.11v-8.562q0-.063.03-.11.048-.062.141-.093.11-.031.266-.047.156-.031.39-.031.235 0 .391.03.157.017.25.048.094.031.125.094.047.046.047.109v5.094l1.719-2.313q.062-.078.125-.125.062-.062.172-.094.11-.03.265-.046.157-.016.407-.016.234 0 .406.016.172.015.266.046.109.032.14.079.047.046.047.125 0 .093-.062.203-.047.11-.141.234l-1.703 1.922 1.969 3.047q.078.125.109.219.047.093.047.171zm6.225-5.406q0 .313-.078.469-.062.14-.156.14h-.688q.141.157.203.36.063.203.063.406 0 .516-.172.906-.172.391-.484.672-.313.266-.766.407-.437.14-.984.14-.282 0-.547-.062-.25-.078-.375-.172-.078.094-.14.219-.063.109-.063.25 0 .187.156.312.172.11.469.125l1.406.047q.5.031.89.156.391.11.641.328.266.22.406.532.141.296.141.687 0 .438-.187.813-.188.375-.563.656-.375.281-.953.437-.563.172-1.328.172-.735 0-1.266-.125-.515-.11-.86-.328-.327-.203-.484-.5-.156-.281-.156-.625 0-.219.047-.422.063-.187.172-.36.11-.171.266-.327.156-.172.359-.328-.281-.141-.438-.391-.156-.266-.156-.578 0-.375.172-.688.188-.328.469-.578-.235-.234-.375-.547-.125-.312-.125-.797 0-.5.172-.906.187-.406.5-.672.328-.28.765-.422.438-.156.97-.156.28 0 .53.031.25.032.47.094h1.843q.11 0 .172.14.062.141.062.485zm-2.094 1.375q0-.469-.265-.719-.266-.265-.735-.265-.234 0-.421.078-.188.078-.313.219-.11.14-.172.328-.062.187-.062.39 0 .438.265.704.266.25.72.25.25 0 .421-.079.187-.078.312-.218t.188-.313q.062-.172.062-.375zm.375 4.64q0-.296-.234-.452-.234-.157-.64-.172l-1.157-.031q-.172.125-.281.234-.094.11-.156.219-.063.11-.094.203-.016.094-.016.203 0 .328.328.484.344.172.938.172.375 0 .625-.078.25-.062.406-.187.156-.125.219-.282.062-.156.062-.312zm6.538-5.874q0 .234-.015.39-.016.141-.047.235-.016.078-.063.11-.03.03-.093.03t-.125-.015q-.063-.031-.157-.047-.078-.031-.172-.047-.093-.031-.218-.031t-.266.062q-.14.047-.281.172-.14.11-.313.313-.156.187-.343.468v3.625q0 .063-.047.11-.032.047-.125.078-.094.031-.25.047-.157.015-.39.015-.235 0-.392-.015-.156-.016-.265-.047-.094-.031-.14-.078-.032-.047-.032-.11v-5.812q0-.063.031-.11.047-.046.125-.078.078-.03.219-.046.14-.016.328-.016.219 0 .344.016.14.015.219.046.078.032.109.079.031.046.031.109v.734q.235-.328.422-.53.203-.22.39-.345.188-.125.36-.172.188-.046.375-.046.078 0 .172.015.11 0 .203.031.11.016.188.047.078.016.109.063.047.031.062.078.016.031.016.094.016.062.016.203.015.14.015.375zm6.879 2.297q0 .75-.203 1.36-.188.608-.594 1.062-.39.437-.985.687-.593.234-1.406.234-.765 0-1.344-.218-.562-.22-.953-.625-.375-.407-.562-1-.172-.61-.172-1.375 0-.75.187-1.36.204-.61.594-1.047.406-.453 1-.687.594-.234 1.406-.234.782 0 1.344.218.578.203.953.61.375.406.547 1.015.188.594.188 1.36zm-1.688.062q0-.422-.062-.781-.063-.36-.235-.625-.156-.266-.437-.422-.266-.156-.672-.156-.36 0-.64.14-.266.141-.454.391-.172.25-.265.625-.079.36-.079.813 0 .437.063.796.078.36.234.625.157.266.422.422.281.14.688.14.375 0 .64-.124.282-.14.453-.39.172-.266.25-.626.094-.36.094-.828zm8.494 2.906q0 .063-.032.11-.031.047-.125.078-.078.031-.218.047-.125.015-.329.015-.203 0-.343-.015-.141-.016-.22-.047-.077-.031-.108-.078-.032-.047-.032-.11v-.671q-.484.515-.984.78-.484.266-1.016.266-.61 0-1.015-.187-.407-.203-.657-.547-.25-.344-.359-.781-.11-.453-.11-1.11v-3.562q0-.063.032-.11.047-.046.14-.078.094-.03.25-.046.157-.016.391-.016.25 0 .406.016.157.015.25.046.094.032.125.079.047.046.047.109v3.281q0 .453.047.703.063.235.188.407.125.171.312.265.188.094.422.094.313 0 .625-.219.328-.234.688-.672v-3.86q0-.062.03-.108.032-.047.126-.079.094-.03.25-.046t.406-.016q.234 0 .39.016.157.015.25.046.094.032.126.079.047.046.047.109v5.812zm7.183 0q0 .063-.047.11-.031.047-.125.078-.078.031-.25.047-.156.015-.39.015-.235 0-.407-.015-.156-.016-.25-.047-.078-.031-.125-.078-.031-.047-.031-.11v-3.312q0-.422-.063-.656-.062-.25-.187-.422-.11-.172-.297-.266-.187-.094-.437-.094-.313 0-.625.235-.313.219-.672.656v3.86q0 .062-.047.109-.031.047-.125.078t-.25.047q-.156.015-.39.015-.235 0-.391-.015-.157-.016-.266-.047-.094-.031-.14-.078-.032-.047-.032-.11v-5.812q0-.063.031-.11.047-.046.125-.078.078-.03.22-.046.14-.016.327-.016.219 0 .344.016.14.015.219.046.078.032.11.079.03.046.03.109v.672q.485-.516.985-.766.5-.265 1.03-.265.595 0 1 .203.407.187.657.515.25.328.36.782.109.453.109 1.078v3.593zm7.12 0q0 .063-.03.125-.032.047-.11.079-.078.03-.219.03-.125.016-.328.016t-.343-.015q-.125 0-.204-.031-.078-.032-.125-.079-.03-.062-.03-.125v-.64q-.454.469-.954.75-.484.265-1.078.265-.656 0-1.125-.25-.453-.265-.75-.703-.281-.437-.422-1.015-.125-.594-.125-1.235 0-.765.156-1.39.172-.625.485-1.047.328-.438.797-.672.484-.234 1.109-.234.484 0 .875.203.406.187.797.578v-3.156q0-.063.031-.11t.125-.078q.094-.047.25-.062.156-.032.406-.032.235 0 .391.032.156.015.25.062.094.031.125.078.047.047.047.11v8.546zm-1.624-3.875q-.36-.453-.688-.687-.312-.234-.672-.234-.312 0-.546.171-.22.157-.36.422-.14.266-.219.594-.062.328-.062.672 0 .36.047.703.062.344.187.625.141.266.36.438.234.156.562.156.172 0 .328-.047.172-.047.328-.156.172-.125.344-.297t.39-.438v-1.922z"/><path fill="#78909c" d="M137.753 190.132q0 .063-.03.125-.032.047-.11.079-.078.03-.219.03-.125.016-.328.016t-.344-.015q-.125 0-.203-.031-.078-.032-.125-.079-.031-.062-.031-.125v-.64q-.453.469-.953.75-.485.265-1.079.265-.656 0-1.125-.25-.453-.265-.75-.703-.28-.437-.421-1.015-.125-.594-.125-1.235 0-.765.156-1.39.172-.625.484-1.047.328-.438.797-.672.484-.234 1.11-.234.484 0 .874.203.407.187.797.578v-3.156q0-.063.032-.11.03-.047.125-.078.093-.047.25-.062.156-.032.406-.032.234 0 .39.032.157.015.25.062.094.031.125.078.047.047.047.11v8.546zm-1.625-3.875q-.359-.453-.687-.687-.313-.234-.672-.234-.313 0-.547.171-.219.157-.36.422-.14.266-.218.594-.063.328-.063.672 0 .36.047.703.063.344.188.625.14.266.36.438.234.156.562.156.172 0 .328-.047.172-.047.328-.156.172-.125.344-.297t.39-.438v-1.922zm8.637.797q0 .297-.14.453-.126.141-.36.141h-3.547q0 .36.094.672.093.297.281.516.187.203.484.312.313.11.735.11.437 0 .75-.047.328-.063.562-.141.25-.078.406-.14.157-.063.25-.063.063 0 .094.031.047.016.063.078.031.047.031.156.016.11.016.282 0 .14-.016.25 0 .093-.016.172 0 .062-.03.109-.032.047-.079.094-.031.047-.219.125-.187.078-.484.156-.297.062-.672.125-.375.062-.813.062-.765 0-1.359-.187-.578-.203-.969-.594-.39-.406-.578-1.015-.187-.61-.187-1.422 0-.766.203-1.39.203-.626.578-1.048.39-.437.937-.656.547-.234 1.235-.234.734 0 1.25.218.515.203.844.594.343.375.5.89.156.516.156 1.141v.25zm-1.594-.468q.016-.688-.281-1.079-.297-.39-.906-.39-.313 0-.547.125-.235.11-.39.312-.142.188-.235.47-.078.265-.094.562h2.453zm7.335 2.625q0 .171-.016.28-.016.11-.031.188-.016.078-.047.125-.016.047-.094.125t-.265.188q-.188.11-.438.187-.234.078-.516.125-.28.063-.578.063-.672 0-1.187-.203-.516-.203-.875-.61-.344-.422-.531-1-.172-.593-.172-1.343 0-.875.218-1.5.22-.641.61-1.047.39-.422.922-.625.531-.203 1.172-.203.265 0 .515.046.25.047.469.125.219.079.39.172.172.094.235.172.078.063.11.125.03.047.046.125t.016.188q.015.11.015.28 0 .376-.062.532-.063.14-.172.14-.11 0-.234-.077-.125-.094-.297-.203-.172-.11-.406-.204-.235-.093-.547-.093-.64 0-.985.5-.343.484-.343 1.437 0 .469.078.828.093.344.265.594.172.234.422.36.25.124.578.124.328 0 .578-.093.25-.11.422-.235.188-.125.313-.218.125-.11.203-.11.062 0 .094.031.047.032.062.125.031.079.047.22.016.14.016.359zm7.046-2.047q0 .75-.203 1.36-.188.608-.594 1.062-.39.437-.985.687-.593.234-1.406.234-.765 0-1.344-.218-.562-.22-.953-.625-.375-.407-.562-1-.172-.61-.172-1.375 0-.75.187-1.36.204-.61.594-1.047.406-.453 1-.687.594-.234 1.406-.234.782 0 1.344.218.578.203.953.61.375.406.547 1.015.188.594.188 1.36zm-1.688.062q0-.422-.062-.781-.063-.36-.235-.625-.156-.266-.437-.422-.266-.156-.672-.156-.36 0-.64.14-.266.141-.454.391-.172.25-.265.625-.079.36-.079.813 0 .437.063.796.078.36.234.625.157.266.422.422.281.14.688.14.375 0 .64-.124.282-.14.453-.39.172-.266.25-.626.094-.36.094-.828zm12.212 2.906q0 .063-.031.11t-.125.078q-.094.031-.25.047-.156.015-.406.015-.235 0-.39-.015-.157-.016-.25-.047-.095-.031-.141-.078-.032-.047-.032-.11v-3.437q0-.297-.062-.531-.047-.25-.172-.422-.11-.172-.281-.266-.172-.094-.407-.094-.296 0-.593.235-.297.219-.657.656v3.86q0 .062-.046.109-.032.047-.125.078-.094.031-.25.047-.157.015-.391.015t-.39-.015q-.157-.016-.25-.047-.094-.031-.141-.078-.032-.047-.032-.11v-3.437q0-.297-.062-.531-.047-.25-.172-.422-.11-.172-.281-.266-.172-.094-.406-.094-.297 0-.594.235-.297.219-.656.656v3.86q0 .062-.047.109-.032.047-.125.078-.094.031-.25.047-.157.015-.391.015t-.39-.015q-.157-.016-.266-.047-.094-.031-.14-.078-.032-.047-.032-.11v-5.812q0-.063.031-.11.047-.046.125-.078.078-.03.219-.046.14-.016.328-.016.219 0 .344.016.14.015.219.046.078.032.109.079.031.046.031.109v.672q.485-.516.953-.766.485-.265 1-.265.36 0 .64.078.298.062.517.203.234.14.39.344.172.187.281.421.25-.265.5-.468t.5-.328q.25-.141.485-.188.25-.062.5-.062.578 0 .969.203.406.187.64.515.25.328.344.782.11.453.11.953v3.718zm10.842 0q0 .063-.03.11-.032.047-.126.078t-.25.047q-.156.015-.406.015-.234 0-.39-.015-.157-.016-.25-.047-.094-.031-.141-.078-.032-.047-.032-.11v-3.437q0-.297-.062-.531-.047-.25-.172-.422-.11-.172-.281-.266-.172-.094-.406-.094-.297 0-.594.235-.297.219-.656.656v3.86q0 .062-.047.109-.032.047-.125.078-.094.031-.25.047-.157.015-.391.015t-.39-.015q-.157-.016-.25-.047-.094-.031-.141-.078-.031-.047-.031-.11v-3.437q0-.297-.063-.531-.047-.25-.172-.422-.11-.172-.281-.266-.172-.094-.406-.094-.297 0-.594.235-.297.219-.656.656v3.86q0 .062-.047.109-.031.047-.125.078t-.25.047q-.156.015-.39.015-.235 0-.391-.015-.157-.016-.266-.047-.094-.031-.14-.078-.032-.047-.032-.11v-5.812q0-.063.031-.11.047-.046.125-.078.078-.03.219-.046.14-.016.328-.016.219 0 .344.016.14.015.219.046.078.032.109.079.031.046.031.109v.672q.485-.516.953-.766.485-.265 1-.265.36 0 .641.078.297.062.516.203.234.14.39.344.172.187.282.421.25-.265.5-.468t.5-.328q.25-.141.484-.188.25-.062.5-.062.578 0 .969.203.406.187.64.515.25.328.344.782.11.453.11.953v3.718zm3.249 0q0 .063-.047.11-.031.047-.125.078t-.25.047q-.156.015-.39.015-.235 0-.391-.015-.157-.016-.266-.047-.094-.031-.14-.078-.032-.047-.032-.11v-5.796q0-.063.031-.11.047-.047.141-.078.11-.047.266-.062.156-.016.39-.016.235 0 .39.016.157.015.25.062.095.031.126.078.047.047.047.11v5.796zm.125-7.765q0 .484-.203.672-.188.187-.735.187-.562 0-.75-.172-.187-.187-.187-.656 0-.5.187-.687.203-.204.75-.204.547 0 .735.188.203.187.203.672zm5.601 6.125q0 .5-.187.875-.188.375-.531.625-.329.25-.797.375-.453.14-1 .14-.328 0-.625-.062-.282-.047-.516-.11-.234-.078-.39-.156-.157-.078-.235-.14-.078-.078-.125-.22-.031-.155-.031-.437 0-.187.015-.296.016-.125.032-.188.031-.062.062-.078.047-.031.11-.031.078 0 .218.078.141.078.344.187.203.094.484.172.282.078.625.078.22 0 .391-.03.172-.048.297-.126.14-.094.203-.219.063-.14.063-.312 0-.188-.125-.328-.11-.14-.313-.25-.203-.11-.453-.188-.25-.094-.516-.203-.265-.11-.515-.25-.25-.156-.453-.36-.188-.202-.313-.5-.125-.296-.125-.702 0-.422.156-.766.172-.344.47-.594.312-.25.75-.375.452-.14 1-.14.265 0 .515.046.265.032.468.094.22.047.36.125.14.063.203.11.062.046.078.093.031.047.047.125.016.063.016.172.015.094.015.25 0 .172-.015.281 0 .11-.032.172-.015.063-.062.094-.031.016-.078.016-.063 0-.188-.063-.125-.078-.312-.156-.188-.078-.438-.14-.234-.063-.547-.063-.218 0-.39.047-.157.047-.266.125-.094.078-.156.203-.047.11-.047.234 0 .203.125.344.125.14.328.25.203.094.453.187.266.094.516.204.265.093.515.25.266.14.47.343.202.203.327.5.125.282.125.688zm5.317 0q0 .5-.187.875-.188.375-.531.625-.329.25-.797.375-.453.14-1 .14-.328 0-.625-.062-.282-.047-.516-.11-.234-.078-.39-.156-.157-.078-.235-.14-.078-.078-.125-.22-.031-.155-.031-.437 0-.187.015-.296.016-.125.032-.188.03-.062.062-.078.047-.031.11-.031.078 0 .218.078t.344.187q.203.094.484.172.282.078.625.078.22 0 .391-.03.172-.048.297-.126.14-.094.203-.219.063-.14.063-.312 0-.188-.125-.328-.11-.14-.313-.25-.203-.11-.453-.188-.25-.094-.516-.203-.265-.11-.515-.25-.25-.156-.453-.36-.188-.202-.313-.5-.125-.296-.125-.702 0-.422.156-.766.172-.344.47-.594.312-.25.75-.375.452-.14 1-.14.265 0 .515.046.265.032.468.094.22.047.36.125.14.063.203.11.062.046.078.093.031.047.047.125.016.063.016.172.015.094.015.25 0 .172-.015.281 0 .11-.032.172-.015.063-.062.094-.031.016-.078.016-.063 0-.188-.063-.125-.078-.312-.156-.188-.078-.438-.14-.234-.063-.547-.063-.218 0-.39.047-.157.047-.266.125-.094.078-.156.203-.047.11-.047.234 0 .203.125.344.125.14.328.25.203.094.453.187.266.094.516.204.265.093.515.25.266.14.47.343.202.203.327.5.125.282.125.688zm2.864 1.64q0 .063-.047.11-.031.047-.125.078-.093.031-.25.047-.156.015-.39.015-.235 0-.391-.015-.156-.016-.266-.047-.093-.031-.14-.078-.031-.047-.031-.11v-5.796q0-.063.03-.11.048-.047.141-.078.11-.047.266-.062.156-.016.39-.016.235 0 .391.016.157.015.25.062.094.031.125.078.047.047.047.11v5.796zm.125-7.765q0 .484-.203.672-.187.187-.734.187-.563 0-.75-.172-.188-.187-.188-.656 0-.5.188-.687.203-.204.75-.204.547 0 .734.188.203.187.203.672zm7.383 4.797q0 .75-.203 1.36-.188.608-.594 1.062-.39.437-.984.687-.594.234-1.407.234-.765 0-1.343-.218-.563-.22-.953-.625-.375-.407-.563-1-.172-.61-.172-1.375 0-.75.188-1.36.203-.61.593-1.047.407-.453 1-.687.594-.234 1.407-.234.781 0 1.343.218.579.203.954.61.375.406.546 1.015.188.594.188 1.36zm-1.688.062q0-.422-.062-.781-.063-.36-.234-.625-.157-.266-.438-.422-.266-.156-.672-.156-.36 0-.64.14-.266.141-.454.391-.171.25-.265.625-.078.36-.078.813 0 .437.062.796.078.36.235.625.156.266.421.422.282.14.688.14.375 0 .64-.124.282-.14.454-.39.172-.266.25-.626.093-.36.093-.828zm8.525 2.906q0 .063-.047.11-.031.047-.125.078-.078.031-.25.047-.156.015-.39.015-.235 0-.407-.015-.156-.016-.25-.047-.078-.031-.125-.078-.031-.047-.031-.11v-3.312q0-.422-.062-.656-.063-.25-.188-.422-.11-.172-.297-.266-.187-.094-.437-.094-.313 0-.625.235-.313.219-.672.656v3.86q0 .062-.047.109-.031.047-.125.078t-.25.047q-.156.015-.39.015-.235 0-.391-.015-.157-.016-.266-.047-.094-.031-.14-.078-.032-.047-.032-.11v-5.812q0-.063.031-.11.047-.046.125-.078.079-.03.22-.046.14-.016.327-.016.219 0 .344.016.14.015.219.046.078.032.11.079.03.046.03.109v.672q.485-.516.985-.766.5-.265 1.031-.265.594 0 1 .203.406.187.656.515t.36.782q.109.453.109 1.078v3.593zm3.246 0q0 .063-.047.11-.031.047-.125.078t-.25.047q-.156.015-.39.015-.235 0-.391-.015-.156-.016-.266-.047-.094-.031-.14-.078-.032-.047-.032-.11v-5.796q0-.063.032-.11.046-.047.14-.078.11-.047.266-.062.156-.016.39-.016.235 0 .391.016.156.015.25.062.094.031.125.078.047.047.047.11v5.796zm.125-7.765q0 .484-.203.672-.188.187-.735.187-.562 0-.75-.172-.187-.187-.187-.656 0-.5.187-.687.204-.204.75-.204.547 0 .735.188.203.187.203.672zm7.055 7.765q0 .063-.047.11-.031.047-.125.078-.078.031-.25.047-.156.015-.39.015-.235 0-.407-.015-.156-.016-.25-.047-.078-.031-.125-.078-.031-.047-.031-.11v-3.312q0-.422-.063-.656-.062-.25-.187-.422-.11-.172-.297-.266-.188-.094-.438-.094-.312 0-.625.235-.312.219-.672.656v3.86q0 .062-.046.109-.032.047-.125.078-.094.031-.25.047-.157.015-.391.015t-.39-.015q-.157-.016-.266-.047-.094-.031-.141-.078-.031-.047-.031-.11v-5.812q0-.063.031-.11.047-.046.125-.078.078-.03.219-.046.14-.016.328-.016.219 0 .344.016.14.015.218.046.079.032.11.079.031.046.031.109v.672q.484-.516.984-.766.5-.265 1.032-.265.593 0 1 .203.406.187.656.515t.36.782q.109.453.109 1.078v3.593zm6.84-5.406q0 .313-.079.469-.062.14-.156.14h-.688q.141.157.204.36.062.203.062.406 0 .516-.172.906-.172.391-.484.672-.313.266-.766.407-.437.14-.984.14-.281 0-.547-.062-.25-.078-.375-.172-.078.094-.14.219-.063.109-.063.25 0 .187.156.312.172.11.469.125l1.406.047q.5.031.89.156.391.11.641.328.266.22.407.532.14.296.14.687 0 .438-.187.813-.188.375-.563.656-.375.281-.953.437-.562.172-1.328.172-.734 0-1.266-.125-.515-.11-.86-.328-.327-.203-.483-.5-.157-.281-.157-.625 0-.219.047-.422.063-.187.172-.36.11-.171.266-.327.156-.172.36-.328-.282-.141-.438-.391-.157-.266-.157-.578 0-.375.172-.688.188-.328.469-.578-.234-.234-.375-.547-.125-.312-.125-.797 0-.5.172-.906.187-.406.5-.672.328-.28.765-.422.438-.156.97-.156.28 0 .53.031.25.032.47.094h1.843q.11 0 .172.14.062.141.062.485zm-2.094 1.375q0-.469-.266-.719-.266-.265-.734-.265-.235 0-.422.078-.188.078-.313.219-.11.14-.172.328-.062.187-.062.39 0 .438.265.704.266.25.72.25.25 0 .421-.079.188-.078.313-.218t.187-.313q.063-.172.063-.375zm.375 4.64q0-.296-.235-.452-.234-.157-.64-.172l-1.157-.031q-.172.125-.28.234-.095.11-.157.219-.063.11-.094.203-.016.094-.016.203 0 .328.329.484.343.172.937.172.375 0 .625-.078.25-.062.406-.187.157-.125.22-.282.062-.156.062-.312z"/><path d="M71.315 109.218h185.543"/><path stroke="#78909c" stroke-width="3" stroke-linejoin="round" stroke-linecap="butt" d="M71.315 109.218h167.543"/><path fill="#78909c" stroke="#78909c" stroke-width="3" stroke-linecap="butt" d="M238.858 114.173l13.615-4.955-13.615-4.955z" fill-rule="evenodd"/><path d="M261.328 180.633c0-40.322 5.979-73.008 13.354-73.008 3.542 0 6.939 7.692 9.443 21.383 2.505 13.692 3.912 32.262 3.912 51.625 0 40.32-5.98 73.007-13.355 73.007-3.541 0-6.938-7.691-9.443-21.383-2.504-13.692-3.91-32.262-3.91-51.624z"/><path stroke="#78909c" stroke-width="3" stroke-linejoin="round" stroke-linecap="butt" d="M261.328 180.633h0c0-40.322 5.979-73.008 13.354-73.008h0c3.542 0 6.939 7.692 9.443 21.383 2.505 13.692 3.912 32.262 3.912 51.625h0c0 40.32-5.98 73.007-13.355 73.007h0c-3.541 0-6.938-7.691-9.443-21.383-2.504-13.692-3.91-32.262-3.91-51.624z"/><path fill="#78909c" d="M231.307 82.839l5.835-6.1v2.917c7.382-.682 13.368-2.61 16.032-5.166 2.311 2.216 1.885 4.68-1.172 6.777-3.057 2.097-8.458 3.632-14.86 4.224v2.917z" fill-rule="evenodd"/><path fill="#5f737c" d="M254.646 77.407c0-4.61-10.45-8.348-23.339-8.348v-5.835c12.89 0 23.339 3.738 23.339 8.349z" fill-rule="evenodd"/><path d="M254.646 77.407c0-4.61-10.45-8.348-23.339-8.348v-5.835c12.89 0 23.339 3.738 23.339 8.349v5.834c0 3.807-7.2 7.132-17.504 8.084v2.917l-5.835-5.57 5.835-6.1v2.918c7.382-.682 13.368-2.61 16.032-5.166"/><path stroke="#78909c" stroke-linejoin="round" stroke-linecap="butt" d="M254.646 77.407c0-4.61-10.45-8.348-23.339-8.348v-5.835h0c12.89 0 23.339 3.738 23.339 8.349v5.834c0 3.807-7.2 7.132-17.504 8.084v2.917l-5.835-5.57 5.835-6.1v2.918h0c7.382-.682 13.368-2.61 16.032-5.166"/><path fill="#78909c" d="M256.079 286.096l5.834-6.1v2.917c7.383-.681 13.369-2.61 16.033-5.166 2.31 2.217 1.885 4.68-1.172 6.777-3.057 2.098-8.458 3.633-14.86 4.224v2.917z" fill-rule="evenodd"/><path fill="#5f737c" d="M279.417 280.665c0-4.611-10.449-8.349-23.338-8.349v-5.834c12.89 0 23.338 3.737 23.338 8.348z" fill-rule="evenodd"/><path d="M279.417 280.665c0-4.611-10.449-8.349-23.338-8.349v-5.834c12.89 0 23.338 3.737 23.338 8.348v5.835c0 3.807-7.2 7.131-17.504 8.083v2.917l-5.834-5.57 5.834-6.099v2.917c7.383-.681 13.369-2.61 16.033-5.166"/><path stroke="#78909c" stroke-linejoin="round" stroke-linecap="butt" d="M279.417 280.665c0-4.611-10.449-8.349-23.338-8.349v-5.834h0c12.89 0 23.338 3.737 23.338 8.348v5.835c0 3.807-7.2 7.131-17.504 8.083v2.917l-5.834-5.57 5.834-6.099v2.917h0c7.383-.681 13.369-2.61 16.033-5.166"/><path fill="#78909c" d="M46.916 266.117l5.835-6.1v2.917c7.382-.681 13.368-2.61 16.032-5.166 2.311 2.217 1.885 4.68-1.172 6.777-3.057 2.098-8.458 3.633-14.86 4.224v2.917z" fill-rule="evenodd"/><path fill="#5f737c" d="M70.255 260.686c0-4.611-10.45-8.349-23.339-8.349v-5.834c12.89 0 23.339 3.737 23.339 8.348z" fill-rule="evenodd"/><path d="M70.255 260.686c0-4.611-10.45-8.349-23.339-8.349v-5.834c12.89 0 23.339 3.737 23.339 8.348v5.835c0 3.807-7.2 7.131-17.504 8.083v2.917l-5.835-5.57 5.835-6.099v2.917c7.382-.681 13.368-2.61 16.032-5.166"/><path stroke="#78909c" stroke-linejoin="round" stroke-linecap="butt" d="M70.255 260.686c0-4.611-10.45-8.349-23.339-8.349v-5.834h0c12.89 0 23.339 3.737 23.339 8.348v5.835c0 3.807-7.2 7.131-17.504 8.083v2.917l-5.835-5.57 5.835-6.099v2.917h0c7.382-.681 13.368-2.61 16.032-5.166"/></g></svg>