<svg viewBox="0 0 456.365 230.908" fill="none" stroke-linecap="square" stroke-miterlimit="10" xmlns="http://www.w3.org/2000/svg"><clipPath id="a"><path d="M0 0h456.365v230.908H0V0z"/></clipPath><g clip-path="url(#a)"><path d="M0 0h456.365v230.908H0z"/><path d="M9.364 130.958c0-45.183 37.558-81.811 83.89-81.811 22.248 0 43.586 8.62 59.318 23.962 15.733 15.342 24.571 36.151 24.571 57.849 0 45.183-37.559 81.811-83.89 81.811-46.33 0-83.89-36.628-83.89-81.811z"/><path stroke="#595959" stroke-width="2" stroke-linejoin="round" stroke-linecap="butt" d="M9.364 130.958h0c0-45.183 37.558-81.811 83.89-81.811h0c22.248 0 43.586 8.62 59.318 23.962 15.733 15.342 24.571 36.151 24.571 57.849h0c0 45.183-37.559 81.811-83.89 81.811h0c-46.33 0-83.89-36.628-83.89-81.811z"/><path fill="#0097a7" d="M251.575 142.236c0-2.148 1.24-3.89 2.771-3.89.736 0 1.44.41 1.96 1.14s.812 1.719.812 2.75c0 2.148-1.24 3.89-2.772 3.89-1.53 0-2.771-1.742-2.771-3.89z" fill-rule="evenodd"/><path stroke="#595959" stroke-linejoin="round" stroke-linecap="butt" d="M251.575 142.236h0c0-2.148 1.24-3.89 2.771-3.89h0c.736 0 1.44.41 1.96 1.14s.812 1.719.812 2.75h0c0 2.148-1.24 3.89-2.772 3.89h0c-1.53 0-2.771-1.742-2.771-3.89z"/><path fill="#0097a7" d="M267.575 142.236c0-2.148 1.24-3.89 2.771-3.89.736 0 1.44.41 1.96 1.14s.812 1.719.812 2.75c0 2.148-1.24 3.89-2.772 3.89-1.53 0-2.771-1.742-2.771-3.89z" fill-rule="evenodd"/><path stroke="#595959" stroke-linejoin="round" stroke-linecap="butt" d="M267.575 142.236h0c0-2.148 1.24-3.89 2.771-3.89h0c.736 0 1.44.41 1.96 1.14s.812 1.719.812 2.75h0c0 2.148-1.24 3.89-2.772 3.89h0c-1.53 0-2.771-1.742-2.771-3.89z"/><path fill="#0097a7" d="M259.588 150.016c0-2.149 1.24-3.89 2.772-3.89.735 0 1.44.41 1.96 1.14.52.729.811 1.718.811 2.75 0 2.148-1.24 3.89-2.771 3.89s-2.772-1.742-2.772-3.89z" fill-rule="evenodd"/><path stroke="#595959" stroke-linejoin="round" stroke-linecap="butt" d="M259.588 150.016h0c0-2.149 1.24-3.89 2.772-3.89h0c.735 0 1.44.41 1.96 1.14.52.729.811 1.718.811 2.75h0c0 2.148-1.24 3.89-2.771 3.89h0c-1.531 0-2.772-1.742-2.772-3.89z"/><path fill="#c00" d="M259.588 130.958c0-2.148 1.24-3.89 2.772-3.89.735 0 1.44.41 1.96 1.14.52.729.811 1.718.811 2.75 0 2.148-1.24 3.89-2.771 3.89s-2.772-1.742-2.772-3.89z" fill-rule="evenodd"/><path stroke="#595959" stroke-linejoin="round" stroke-linecap="butt" d="M259.588 130.958h0c0-2.148 1.24-3.89 2.772-3.89h0c.735 0 1.44.41 1.96 1.14.52.729.811 1.718.811 2.75h0c0 2.148-1.24 3.89-2.771 3.89h0c-1.531 0-2.772-1.742-2.772-3.89z"/><path fill="#666" d="M251.575 119.68c0-2.148 1.24-3.89 2.771-3.89.736 0 1.44.41 1.96 1.14.52.729.812 1.718.812 2.75 0 2.148-1.24 3.89-2.772 3.89-1.53 0-2.771-1.742-2.771-3.89z" fill-rule="evenodd"/><path stroke="#666" stroke-linejoin="round" stroke-linecap="butt" d="M251.575 119.68h0c0-2.148 1.24-3.89 2.771-3.89h0c.736 0 1.44.41 1.96 1.14.52.729.812 1.718.812 2.75h0c0 2.148-1.24 3.89-2.772 3.89h0c-1.53 0-2.771-1.742-2.771-3.89z"/><path fill="#666" d="M259.588 111.9c0-2.148 1.24-3.89 2.772-3.89.735 0 1.44.41 1.96 1.14s.811 1.719.811 2.75c0 2.149-1.24 3.89-2.771 3.89s-2.772-1.741-2.772-3.89z" fill-rule="evenodd"/><path stroke="#595959" stroke-linejoin="round" stroke-linecap="butt" d="M259.588 111.9h0c0-2.148 1.24-3.89 2.772-3.89h0c.735 0 1.44.41 1.96 1.14s.811 1.719.811 2.75h0c0 2.149-1.24 3.89-2.771 3.89h0c-1.531 0-2.772-1.741-2.772-3.89z"/><path fill="#666" d="M267.575 123.178c0-2.148 1.24-3.89 2.771-3.89.736 0 1.44.41 1.96 1.14s.812 1.719.812 2.75c0 2.149-1.24 3.89-2.772 3.89-1.53 0-2.771-1.741-2.771-3.89z" fill-rule="evenodd"/><path stroke="#666" stroke-linejoin="round" stroke-linecap="butt" d="M267.575 123.178h0c0-2.148 1.24-3.89 2.771-3.89h0c.736 0 1.44.41 1.96 1.14s.812 1.719.812 2.75h0c0 2.149-1.24 3.89-2.772 3.89h0c-1.53 0-2.771-1.741-2.771-3.89z"/><path d="M209.131 130.958c0-28.84 23.831-52.22 53.229-52.22 14.117 0 27.655 5.501 37.638 15.295 9.982 9.793 15.59 23.075 15.59 36.925 0 28.84-23.831 52.22-53.228 52.22-29.398 0-53.229-23.38-53.229-52.22z"/><path stroke="#595959" stroke-width="2" stroke-linejoin="round" stroke-linecap="butt" d="M209.131 130.958h0c0-28.84 23.831-52.22 53.229-52.22h0c14.117 0 27.655 5.501 37.638 15.295 9.982 9.793 15.59 23.075 15.59 36.925h0c0 28.84-23.831 52.22-53.228 52.22h0c-29.398 0-53.229-23.38-53.229-52.22z"/><path d="M244.8 119.68c0-9.402 7.862-17.024 17.56-17.024 4.657 0 9.123 1.794 12.416 4.986 3.293 3.193 5.143 7.523 5.143 12.038 0 9.402-7.862 17.023-17.56 17.023-9.697 0-17.558-7.621-17.558-17.023z"/><path stroke="#595959" stroke-linejoin="round" stroke-linecap="butt" d="M244.8 119.68h0c0-9.402 7.862-17.024 17.56-17.024h0c4.657 0 9.123 1.794 12.416 4.986 3.293 3.193 5.143 7.523 5.143 12.038h0c0 9.402-7.862 17.023-17.56 17.023h0c-9.697 0-17.558-7.621-17.558-17.023z"/><path d="M244.8 142.236c0-10.81 7.862-19.575 17.56-19.575 4.657 0 9.123 2.063 12.416 5.734 3.293 3.67 5.143 8.65 5.143 13.841 0 10.811-7.862 19.575-17.56 19.575-9.697 0-17.558-8.764-17.558-19.575z"/><path stroke="#595959" stroke-linejoin="round" stroke-linecap="butt" d="M244.8 142.236h0c0-10.81 7.862-19.575 17.56-19.575h0c4.657 0 9.123 2.063 12.416 5.734 3.293 3.67 5.143 8.65 5.143 13.841h0c0 10.811-7.862 19.575-17.56 19.575h0c-9.697 0-17.558-8.764-17.558-19.575z"/><path d="M93.024 130.958c0-10.81 7.861-19.575 17.559-19.575 4.657 0 9.123 2.063 12.416 5.734 3.293 3.67 5.143 8.65 5.143 13.841 0 10.81-7.862 19.575-17.56 19.575-9.697 0-17.558-8.764-17.558-19.575z"/><path stroke="#595959" stroke-linejoin="round" stroke-linecap="butt" stroke-dasharray="4.0,3.0" d="M93.024 130.958h0c0-10.81 7.861-19.575 17.559-19.575h0c4.657 0 9.123 2.063 12.416 5.734 3.293 3.67 5.143 8.65 5.143 13.841h0c0 10.81-7.862 19.575-17.56 19.575h0c-9.697 0-17.558-8.764-17.558-19.575z"/><path fill="#999" d="M101.16 130.958c0-2.148 1.241-3.89 2.772-3.89.735 0 1.44.41 1.96 1.14.52.729.811 1.718.811 2.75 0 2.148-1.24 3.89-2.771 3.89s-2.772-1.742-2.772-3.89z" fill-rule="evenodd"/><path stroke="#666" stroke-linejoin="round" stroke-linecap="butt" d="M101.16 130.958h0c0-2.148 1.241-3.89 2.772-3.89h0c.735 0 1.44.41 1.96 1.14.52.729.811 1.718.811 2.75h0c0 2.148-1.24 3.89-2.771 3.89h0c-1.531 0-2.772-1.742-2.772-3.89z"/><path fill="#999" d="M114.937 130.958c0-2.148 1.24-3.89 2.772-3.89.735 0 1.44.41 1.96 1.14.52.729.811 1.718.811 2.75 0 2.148-1.24 3.89-2.771 3.89s-2.772-1.742-2.772-3.89z" fill-rule="evenodd"/><path stroke="#595959" stroke-linejoin="round" stroke-linecap="butt" d="M114.937 130.958h0c0-2.148 1.24-3.89 2.772-3.89h0c.735 0 1.44.41 1.96 1.14.52.729.811 1.718.811 2.75h0c0 2.148-1.24 3.89-2.771 3.89h0c-1.531 0-2.772-1.742-2.772-3.89z"/><path fill="#999" d="M107.811 142.236c0-2.148 1.24-3.89 2.772-3.89.735 0 1.44.41 1.96 1.14s.811 1.719.811 2.75c0 2.148-1.24 3.89-2.771 3.89s-2.772-1.742-2.772-3.89z" fill-rule="evenodd"/><path stroke="#595959" stroke-linejoin="round" stroke-linecap="butt" d="M107.811 142.236h0c0-2.148 1.24-3.89 2.772-3.89h0c.735 0 1.44.41 1.96 1.14s.811 1.719.811 2.75h0c0 2.148-1.24 3.89-2.771 3.89h0c-1.531 0-2.772-1.742-2.772-3.89z"/><path d="M249.943 156.078c0 15.366-31.732 32.142-63.464 30.733-31.732-1.41-63.465-21.004-63.465-42.009"/><path stroke="#0097a7" stroke-width="2" stroke-linejoin="round" stroke-linecap="butt" d="M249.943 156.078c0 15.366-31.732 32.142-63.464 30.733-31.732-1.41-63.465-21.004-63.465-42.009"/><path d="M170.239 176.512h46.677v25.449h-46.677z"/><path fill="#0097a7" d="M184.333 190.906q1.28 0 2 1 .734 1 .734 2.75 0 1.812-.75 2.796-.75.985-2.047.985-1.281 0-2-.922h-.14l-.329.797h-1.515v-10.125h1.984v2.36q0 .437-.078 1.437h.078q.688-1.078 2.063-1.078zm-.641 1.578q-.734 0-1.078.453-.328.453-.344 1.5v.219q0 1.156.344 1.671.344.5 1.11.5.609 0 .968-.562.36-.563.36-1.625 0-1.078-.376-1.61-.359-.546-.984-.546zm9.075-1.578q1.281 0 2 1 .734 1 .734 2.75 0 1.812-.75 2.796-.75.985-2.047.985-1.28 0-2-.922h-.14l-.328.797h-1.516v-10.125h1.984v2.36q0 .437-.078 1.437h.078q.688-1.078 2.063-1.078zm-.64 1.578q-.735 0-1.079.453-.328.453-.344 1.5v.219q0 1.156.344 1.671.344.5 1.11.5.609 0 .968-.562.36-.563.36-1.625 0-1.078-.375-1.61-.36-.546-.985-.546zm7.793-3.813q1.375 0 2.203.625.844.625.844 1.672 0 .734-.407 1.313-.406.562-1.312 1 1.078.578 1.531 1.203.469.625.469 1.36 0 1.17-.922 1.89-.906.703-2.406.703-1.563 0-2.453-.656-.891-.672-.891-1.891 0-.813.422-1.438.437-.625 1.406-1.109-.812-.516-1.172-1.094-.36-.593-.36-1.297 0-1.015.845-1.64.843-.64 2.203-.64zm-1.485 7.11q0 .562.391.875.39.312 1.063.312.75 0 1.125-.312.375-.329.375-.86 0-.437-.375-.812-.36-.39-1.188-.813-1.39.64-1.39 1.61zm1.47-5.641q-.516 0-.829.266-.312.265-.312.703 0 .39.25.703.25.312.906.64.64-.296.89-.609.25-.312.25-.734 0-.438-.328-.703-.312-.266-.828-.266z"/><path d="M32.577 8.267h142.71v31.339H32.576z"/><path fill="#999" d="M47.327 33.156q.735 0 1.75-.313v2.063q-1.046.468-2.546.468-1.672 0-2.438-.843-.75-.844-.75-2.531v-4.907H42v-1.187l1.532-.922.812-2.156h1.766V25h2.86v2.093h-2.86V32q0 .593.328.875.344.28.89.28zm10.27 2.031l-.53-1.39h-.079q-.703.89-1.453 1.234-.734.343-1.922.343-1.468 0-2.312-.843-.844-.844-.844-2.39 0-1.626 1.125-2.391 1.14-.766 3.438-.844l1.765-.063v-.437q0-1.547-1.594-1.547-1.218 0-2.859.734l-.922-1.875q1.75-.922 3.89-.922 2.048 0 3.141.891 1.094.89 1.094 2.719v6.781h-1.937zm-.812-4.719l-1.078.032q-1.219.046-1.812.453-.579.39-.579 1.203 0 1.187 1.344 1.187.969 0 1.547-.547.578-.562.578-1.484v-.844zm11.3-5.656q.562 0 .937.078l-.203 2.61q-.344-.094-.828-.094-1.328 0-2.078.687-.734.688-.734 1.907v5.187h-2.782V25h2.11l.406 1.718h.14q.47-.86 1.266-1.375.813-.531 1.766-.531zm11.66.188v1.421l-1.595.407q.438.687.438 1.53 0 1.642-1.156 2.563-1.14.907-3.172.907l-.5-.032-.406-.046q-.438.328-.438.734 0 .594 1.531.594h1.735q1.672 0 2.547.718.89.72.89 2.125 0 1.782-1.5 2.766-1.484.984-4.265.984-2.125 0-3.266-.75-1.125-.734-1.125-2.078 0-.922.578-1.547.578-.609 1.688-.875-.422-.187-.75-.593-.313-.422-.313-.875 0-.594.328-.97.344-.39.985-.765-.797-.343-1.282-1.11-.468-.765-.468-1.812 0-1.656 1.078-2.562 1.093-.922 3.11-.922.42 0 1.015.078.593.078.75.11h3.562zm-7.876 11.624q0 .579.547.907.563.328 1.563.328 1.484 0 2.328-.422.86-.406.86-1.11 0-.578-.517-.796-.5-.219-1.546-.219h-1.438q-.766 0-1.281.36-.516.359-.516.953zm1.016-8.28q0 .827.375 1.312.39.469 1.156.469.781 0 1.14-.47.376-.484.376-1.312 0-1.843-1.516-1.843-1.531 0-1.531 1.843zm12.743-1.563q-.875 0-1.375.562-.5.563-.579 1.594h3.891q-.016-1.031-.531-1.594-.516-.562-1.406-.562zm.39 8.594q-2.453 0-3.844-1.36-1.375-1.36-1.375-3.844 0-2.562 1.266-3.953 1.281-1.406 3.547-1.406 2.156 0 3.36 1.234 1.202 1.22 1.202 3.391v1.344h-6.562q.047 1.187.703 1.86.656.655 1.828.655.922 0 1.735-.187.828-.188 1.718-.61v2.157q-.718.36-1.547.531-.828.188-2.03.188zm10.71-2.22q.735 0 1.75-.312v2.063q-1.047.468-2.547.468-1.672 0-2.437-.843-.75-.844-.75-2.531v-4.907H91.4v-1.187l1.531-.922.813-2.156h1.765V25h2.86v2.093h-2.86V32q0 .593.329.875.343.28.89.28zm12.867-6.374q-.875 0-1.375.562-.5.563-.578 1.594h3.89q-.015-1.031-.531-1.594-.516-.562-1.406-.562zm.39 8.594q-2.453 0-3.843-1.36-1.375-1.36-1.375-3.844 0-2.562 1.265-3.953 1.281-1.406 3.547-1.406 2.156 0 3.36 1.234 1.203 1.22 1.203 3.391v1.344h-6.563q.047 1.187.703 1.86.656.655 1.828.655.922 0 1.735-.187.828-.188 1.718-.61v2.157q-.718.36-1.546.531-.829.188-2.032.188zm8.507-5.391L115.211 25h3.156l1.969 3.25 2-3.25h3.156l-3.328 4.984 3.469 5.203h-3.156l-2.141-3.484-2.14 3.484h-3.157l3.453-5.203zm14.286 5.39q-1.797 0-2.813-1.312h-.14q.14 1.281.14 1.484v4.125h-2.78V25h2.265l.39 1.328h.125q.97-1.516 2.891-1.516 1.797 0 2.812 1.39 1.032 1.391 1.032 3.876 0 1.625-.485 2.828-.468 1.203-1.359 1.843-.875.625-2.078.625zm-.813-8.343q-1.03 0-1.515.64-.469.625-.485 2.094v.297q0 1.64.485 2.36.484.703 1.547.703 1.875 0 1.875-3.079 0-1.515-.47-2.265-.452-.75-1.437-.75zm6.634 6.86q0-.767.407-1.157.421-.39 1.203-.39.75 0 1.156.405.422.391.422 1.141 0 .719-.422 1.14-.406.407-1.156.407-.766 0-1.188-.406-.422-.407-.422-1.14z"/><path d="M198.992 35.397h142.709v31.339H198.992z"/><path fill="#999" d="M215.133 51.942q.562 0 .937.078l-.203 2.61q-.344-.094-.828-.094-1.328 0-2.078.687-.735.688-.735 1.906v5.188h-2.78V52.129h2.109l.406 1.72h.14q.47-.86 1.266-1.376.813-.531 1.766-.531zm7.003 1.969q-.875 0-1.375.562-.5.563-.578 1.594h3.89q-.015-1.031-.53-1.594-.517-.562-1.407-.562zm.39 8.593q-2.453 0-3.843-1.359-1.375-1.36-1.375-3.844 0-2.562 1.265-3.953 1.282-1.406 3.547-1.406 2.156 0 3.36 1.234 1.203 1.219 1.203 3.39v1.345h-6.563q.047 1.187.703 1.859.657.656 1.828.656.922 0 1.735-.187.828-.188 1.719-.61v2.157q-.72.359-1.547.53-.828.188-2.032.188zm12.085-10.562q1.797 0 2.813 1.406 1.031 1.406 1.031 3.86 0 2.515-1.062 3.906-1.047 1.39-2.86 1.39-1.797 0-2.812-1.312h-.188l-.468 1.125h-2.125V48.145h2.78v3.297q0 .625-.109 2.016h.11q.969-1.516 2.89-1.516zm-.89 2.219q-1.031 0-1.516.64-.469.625-.484 2.094v.297q0 1.64.484 2.36.485.702 1.547.702.86 0 1.36-.78.515-.798.515-2.298 0-1.515-.516-2.265-.515-.75-1.39-.75zm13.493 8.156l-.531-1.39h-.078q-.703.89-1.453 1.234-.735.343-1.922.343-1.469 0-2.313-.843-.843-.844-.843-2.391 0-1.625 1.125-2.39 1.14-.766 3.437-.844l1.766-.063v-.437q0-1.547-1.594-1.547-1.219 0-2.86.734l-.921-1.875q1.75-.922 3.89-.922 2.047 0 3.141.89 1.094.892 1.094 2.72v6.78h-1.938zm-.812-4.719l-1.078.031q-1.22.047-1.813.454-.578.39-.578 1.203 0 1.187 1.344 1.187.968 0 1.547-.547.578-.562.578-1.484v-.844zm8.393 4.719h-2.781V48.145h2.781v14.172zm9.381 0l-.531-1.39h-.078q-.703.89-1.453 1.234-.735.343-1.922.343-1.469 0-2.313-.843-.844-.844-.844-2.391 0-1.625 1.125-2.39 1.141-.766 3.438-.844l1.766-.063v-.437q0-1.547-1.594-1.547-1.219 0-2.86.734l-.921-1.875q1.75-.922 3.89-.922 2.047 0 3.14.89 1.095.892 1.095 2.72v6.78h-1.938zm-.812-4.719l-1.079.031q-1.218.047-1.812.454-.578.39-.578 1.203 0 1.187 1.344 1.187.968 0 1.546-.547.579-.562.579-1.484v-.844zm15.018 4.719h-2.781v-5.953q0-1.094-.39-1.64-.391-.563-1.25-.563-1.157 0-1.688.78-.516.782-.516 2.579v4.797h-2.781V52.129h2.125l.375 1.313h.156q.469-.75 1.281-1.125.813-.375 1.844-.375 1.781 0 2.703.969.922.953.922 2.765v6.64zm6.996.187q-4.75 0-4.75-5.218 0-2.61 1.281-3.97 1.297-1.374 3.719-1.374 1.765 0 3.172.687l-.828 2.157q-.657-.266-1.22-.438-.562-.172-1.124-.172-2.172 0-2.172 3.078 0 3 2.172 3 .797 0 1.469-.218.687-.22 1.375-.672v2.375q-.672.437-1.36.594-.687.171-1.734.171zm9.67-8.593q-.875 0-1.375.562-.5.563-.578 1.594h3.89q-.015-1.031-.53-1.594-.516-.562-1.407-.562zm.39 8.593q-2.452 0-3.843-1.359-1.375-1.36-1.375-3.844 0-2.562 1.266-3.953 1.281-1.406 3.547-1.406 2.156 0 3.359 1.234 1.203 1.219 1.203 3.39v1.345h-6.562q.046 1.187.703 1.859.656.656 1.828.656.922 0 1.734-.187.828-.188 1.719-.61v2.157q-.719.359-1.547.53-.828.188-2.031.188zm9.648 0q-1.797 0-2.828-1.39-1.015-1.406-1.015-3.875 0-2.5 1.03-3.89 1.048-1.407 2.876-1.407 1.922 0 2.937 1.5h.094q-.219-1.14-.219-2.031v-3.266h2.797v14.172h-2.14l-.532-1.328h-.125q-.937 1.515-2.875 1.515zm.97-2.218q1.062 0 1.562-.61.5-.625.546-2.11v-.312q0-1.64-.515-2.343-.5-.703-1.64-.703-.923 0-1.438.78-.516.782-.516 2.298 0 1.5.516 2.25.515.75 1.484.75zm-90.923 13.656q.562 0 .937.078l-.203 2.61q-.344-.094-.828-.094-1.328 0-2.078.687-.735.688-.735 1.906v5.188h-2.78V74.129h2.109l.406 1.72h.14q.47-.86 1.266-1.376.813-.531 1.766-.531zm9.893 7.344q0 1.578-1.093 2.406-1.078.812-3.25.812-1.11 0-1.89-.156-.782-.156-1.47-.437v-2.297q.766.36 1.735.61.984.25 1.718.25 1.516 0 1.516-.876 0-.328-.203-.531-.203-.219-.703-.469-.485-.265-1.313-.61-1.172-.484-1.718-.905-.547-.422-.797-.954-.25-.546-.25-1.343 0-1.36 1.047-2.094 1.046-.75 2.984-.75 1.844 0 3.578.797l-.844 2.015q-.765-.328-1.437-.53-.656-.22-1.344-.22-1.234 0-1.234.657 0 .375.39.656.407.266 1.75.812 1.188.47 1.735.891.562.422.828.969.265.547.265 1.297zm6.383-5.375q-.875 0-1.375.562-.5.563-.578 1.594h3.89q-.015-1.031-.53-1.594-.516-.562-1.407-.562zm.39 8.593q-2.452 0-3.843-1.359-1.375-1.36-1.375-3.844 0-2.562 1.266-3.953 1.281-1.406 3.547-1.406 2.156 0 3.359 1.234 1.203 1.219 1.203 3.39v1.345h-6.562q.047 1.187.703 1.859.656.656 1.828.656.922 0 1.734-.187.828-.188 1.72-.61v2.157q-.72.359-1.548.53-.828.188-2.031.188z"/><path d="M293.575 195.181H480v31.339H293.575z"/><path fill="#0097a7" d="M305.2 213.325q0 1.078.344 1.64.359.547 1.156.547.797 0 1.14-.547.36-.546.36-1.64 0-1.078-.36-1.61-.343-.546-1.14-.546-.797 0-1.156.546-.344.532-.344 1.61zm5.031 0q0 1.781-.937 2.781-.938 1-2.61 1-1.047 0-1.86-.453-.796-.453-1.234-1.313-.421-.859-.421-2.015 0-1.781.921-2.766.938-.984 2.625-.984 1.047 0 1.844.453.813.453 1.235 1.312.437.844.437 1.985zm3.361 3.656l-2.765-7.281h2.078l1.406 4.156q.235.781.297 1.484h.031q.032-.625.297-1.484l1.39-4.156h2.079l-2.766 7.281h-2.047zm8.863-6q-.625 0-.984.406-.36.391-.406 1.125h2.781q-.016-.734-.39-1.125-.36-.406-1-.406zm.282 6.125q-1.75 0-2.75-.969-.985-.968-.985-2.734 0-1.844.906-2.828.922-1 2.547-1 1.532 0 2.391.875.86.875.86 2.422v.968h-4.688q.031.844.5 1.329.469.468 1.312.468.657 0 1.235-.14.593-.14 1.234-.438v1.531q-.516.266-1.11.391-.593.125-1.452.125zm8.655-7.531q.391 0 .657.047l-.141 1.86q-.25-.063-.594-.063-.937 0-1.469.5-.53.484-.53 1.359v3.703h-1.985V209.7h1.5l.297 1.234h.093q.344-.625.907-.984.578-.375 1.265-.375zm3.975 7.406h-1.985v-10.125h1.985v10.125zm6.692 0l-.375-.984h-.063q-.5.625-1.03.875-.532.234-1.376.234-1.047 0-1.656-.594-.594-.593-.594-1.703 0-1.156.813-1.703.812-.562 2.437-.61l1.266-.046v-.313q0-1.109-1.14-1.109-.86 0-2.048.531l-.656-1.344q1.266-.656 2.781-.656 1.47 0 2.25.64.782.626.782 1.938v4.844h-1.391zm-.578-3.375l-.766.031q-.875.032-1.297.313-.422.281-.422.875 0 .828.97.828.687 0 1.093-.39.422-.391.422-1.048v-.609zm8.003 3.5q-1.281 0-2-.922h-.11q.11.906.11 1.047v2.953H345.5V209.7h1.61l.28.953h.094q.688-1.078 2.063-1.078 1.281 0 2 1 .734.984.734 2.75 0 1.172-.344 2.031-.328.86-.968 1.313-.625.437-1.485.437zm-.578-5.953q-.734 0-1.078.453-.328.453-.344 1.5v.219q0 1.156.344 1.672.344.5 1.11.5 1.328 0 1.328-2.188 0-1.078-.329-1.61-.328-.546-1.03-.546zm9.012 5.953q-1.28 0-2-.922h-.109q.11.906.11 1.047v2.953h-1.985V209.7h1.61l.28.953h.094q.688-1.078 2.063-1.078 1.281 0 2 1 .734.984.734 2.75 0 1.172-.343 2.031-.329.86-.97 1.313-.624.437-1.484.437zm-.578-5.953q-.734 0-1.078.453-.328.453-.344 1.5v.219q0 1.156.344 1.672.344.5 1.11.5 1.328 0 1.328-2.188 0-1.078-.328-1.61-.329-.546-1.032-.546zm4.935-3.328q0-.969 1.078-.969 1.093 0 1.093.969 0 .469-.28.719-.266.25-.813.25-1.078 0-1.078-.97zm2.078 9.156h-1.985V209.7h1.985v7.281zm8.786 0h-1.985v-4.25q0-.781-.28-1.172-.266-.406-.891-.406-.829 0-1.204.562-.359.547-.359 1.844v3.422h-1.984V209.7h1.515l.266.937h.11q.327-.53.906-.797.593-.265 1.328-.265 1.265 0 1.922.687.656.672.656 1.97v4.75zm8.384-7.281v1.015l-1.14.297q.312.485.312 1.094 0 1.172-.828 1.828-.812.64-2.25.64l-.36-.015-.296-.031q-.313.234-.313.516 0 .437 1.094.437h1.235q1.203 0 1.828.516.625.515.625 1.5 0 1.281-1.063 1.984-1.062.703-3.047.703-1.53 0-2.343-.531-.797-.531-.797-1.484 0-.657.406-1.11.422-.437 1.219-.625-.313-.125-.547-.422-.219-.297-.219-.625 0-.422.234-.703.25-.281.704-.547-.579-.234-.922-.78-.328-.548-.328-1.298 0-1.187.78-1.828.782-.656 2.22-.656.296 0 .718.062.422.047.532.063h2.546zm-5.625 8.312q0 .407.391.641.406.234 1.11.234 1.078 0 1.671-.297.61-.28.61-.796 0-.407-.36-.563-.36-.156-1.11-.156h-1.015q-.547 0-.922.25-.375.265-.375.687zm.735-5.922q0 .594.265.938.266.344.829.344.546 0 .812-.344t.266-.938q0-1.312-1.078-1.312-1.094 0-1.094 1.312zm11.851 5.016q-1.281 0-2.016-.984-.734-1-.734-2.766 0-1.797.75-2.781.75-1 2.047-1 1.375 0 2.11 1.062h.062q-.157-.812-.157-1.453v-2.328h2v10.125h-1.53l-.376-.937h-.094q-.671 1.062-2.062 1.062zm.703-1.578q.75 0 1.11-.438.359-.453.39-1.5v-.218q0-1.172-.36-1.672-.359-.516-1.171-.516-.672 0-1.047.563-.36.562-.36 1.64 0 1.063.36 1.61.375.531 1.078.531zm10.044 1.453l-.375-.984h-.063q-.5.625-1.031.875-.531.234-1.375.234-1.047 0-1.656-.594-.594-.593-.594-1.703 0-1.156.812-1.703.813-.562 2.438-.61l1.266-.046v-.313q0-1.109-1.141-1.109-.86 0-2.047.531l-.656-1.344q1.265-.656 2.781-.656 1.469 0 2.25.64.781.626.781 1.938v4.844h-1.39zm-.578-3.375l-.766.031q-.875.032-1.297.313-.422.281-.422.875 0 .828.969.828.687 0 1.094-.39.422-.391.422-1.048v-.609zm7.081 1.922q.516 0 1.25-.219v1.469q-.75.328-1.828.328-1.188 0-1.734-.594-.547-.609-.547-1.812v-3.5h-.938v-.844l1.094-.656.562-1.547h1.266v1.547h2.047v1.5h-2.047v3.5q0 .422.234.625.25.203.641.203zm7.332 1.453l-.375-.984h-.062q-.5.625-1.031.875-.532.234-1.375.234-1.047 0-1.657-.594-.593-.593-.593-1.703 0-1.156.812-1.703.813-.562 2.438-.61l1.265-.046v-.313q0-1.109-1.14-1.109-.86 0-2.047.531l-.656-1.344q1.265-.656 2.78-.656 1.47 0 2.25.64.782.626.782 1.938v4.844h-1.39zm-.578-3.375l-.765.031q-.875.032-1.297.313-.422.281-.422.875 0 .828.969.828.687 0 1.093-.39.422-.391.422-1.048v-.609zm9.097 1.219q0 1.11-.78 1.703-.782.578-2.329.578-.797 0-1.36-.11-.562-.093-1.046-.312v-1.64q.562.265 1.25.437.687.172 1.219.172 1.078 0 1.078-.625 0-.234-.14-.375-.142-.14-.5-.328-.345-.188-.938-.438-.829-.343-1.235-.64-.39-.313-.578-.688-.172-.39-.172-.953 0-.984.75-1.5.766-.531 2.14-.531 1.313 0 2.563.562l-.61 1.438q-.546-.235-1.03-.375-.47-.156-.953-.156-.875 0-.875.468 0 .266.28.47.282.187 1.235.577.86.344 1.25.64.39.298.578.688.203.391.203.938zm4.547-3.844q-.625 0-.984.406-.36.391-.406 1.125h2.78q-.015-.734-.39-1.125-.36-.406-1-.406zm.282 6.125q-1.75 0-2.75-.969-.985-.968-.985-2.734 0-1.844.906-2.828.922-1 2.547-1 1.532 0 2.39.875.86.875.86 2.422v.968h-4.687q.031.844.5 1.329.469.468 1.312.468.657 0 1.235-.14.593-.14 1.234-.438v1.531q-.516.266-1.11.391-.593.125-1.452.125zm7.655-1.578q.516 0 1.25-.219v1.469q-.75.328-1.828.328-1.187 0-1.734-.594-.547-.609-.547-1.812v-3.5h-.938v-.844l1.094-.656.563-1.547h1.265v1.547h2.047v1.5h-2.047v3.5q0 .422.235.625.25.203.64.203zm7.801-.703q0 1.11-.78 1.703-.782.578-2.329.578-.797 0-1.36-.11-.562-.093-1.046-.312v-1.64q.562.265 1.25.437.687.172 1.219.172 1.078 0 1.078-.625 0-.234-.14-.375-.142-.14-.5-.328-.345-.188-.938-.438-.829-.343-1.235-.64-.39-.313-.578-.688-.172-.39-.172-.953 0-.984.75-1.5.766-.531 2.14-.531 1.313 0 2.563.562l-.609 1.438q-.547-.235-1.031-.375-.469-.156-.953-.156-.875 0-.875.468 0 .266.28.47.282.187 1.235.577.86.344 1.25.64.39.298.578.688.203.391.203.938z"/><path d="M386.787 195.181l-112-39.118"/><path stroke="#595959" stroke-linejoin="round" stroke-linecap="butt" d="M386.787 195.181l-106.335-37.14"/><path fill="#595959" stroke="#595959" stroke-linecap="butt" d="M280.997 156.482l-4.83.063 3.74 3.056z" fill-rule="evenodd"/><path d="M386.787 195.181l-106.866-75.496"/><path stroke="#595959" stroke-linejoin="round" stroke-linecap="butt" d="M386.787 195.181l-101.965-72.034"/><path fill="#595959" stroke="#595959" stroke-linecap="butt" d="M285.775 121.798l-4.66-1.27 2.754 3.968z" fill-rule="evenodd"/></g></svg>